<svg width="40" height="40" viewBox="0 0 40 40" fill="none" xmlns="http://www.w3.org/2000/svg">
<g clip-path="url(#clip0_3011_51994)">
<path d="M20 40C31.0457 40 40 31.0457 40 20C40 8.9543 31.0457 0 20 0C8.9543 0 0 8.9543 0 20C0 31.0457 8.9543 40 20 40Z" fill="#F0F0F0"/>
<path d="M20.0001 0C12.0709 0 5.21962 4.61445 1.98462 11.3044H38.0155C34.7806 4.61445 27.9292 0 20.0001 0Z" fill="#338AF3"/>
<path d="M20.0001 40.0001C27.9292 40.0001 34.7805 35.3856 38.0155 28.6957H1.98462C5.21962 35.3856 12.0709 40.0001 20.0001 40.0001Z" fill="#338AF3"/>
<path d="M25.9777 20L23.5351 21.1489L24.8358 23.5145L22.1835 23.0071L21.8474 25.6864L20 23.7158L18.1525 25.6864L17.8164 23.0071L15.1641 23.5144L16.4647 21.1489L14.0222 20L16.4648 18.851L15.1641 16.4855L17.8164 16.9929L18.1525 14.3135L20 16.2841L21.8475 14.3135L22.1835 16.9929L24.8359 16.4855L23.5352 18.8511L25.9777 20Z" fill="#FFDA44"/>
</g>
<defs>
<clipPath id="clip0_3011_51994">
<rect width="40" height="40" fill="white"/>
</clipPath>
</defs>
</svg>
