<svg width="40" height="40" viewBox="0 0 40 40" fill="none" xmlns="http://www.w3.org/2000/svg">
<g clip-path="url(#clip0_3011_51992)">
<path d="M39.9998 20.0001C39.9998 31.0457 31.0454 40.0001 19.9998 40.0001C8.95413 40.0001 -0.000244141 31.0457 -0.000244141 20.0001C-0.000244141 20.0048 19.9998 0.0023877 19.9998 0.00012207C31.0454 0.00012207 39.9998 8.9545 39.9998 20.0001Z" fill="#0052B4"/>
<path d="M20.0001 0.00012207C19.999 0.00012207 19.9977 0.000204191 19.9966 0.000204191L20.0001 0.00012207Z" fill="#F0F0F0"/>
<path d="M19.9465 20H20C20 19.9819 20 19.9646 20 19.9465C19.9822 19.9644 19.9644 19.9822 19.9465 20Z" fill="#F0F0F0"/>
<path d="M20 10.435C20 6.91587 20 4.60985 20 0.000244141H19.9966C8.9525 0.00204102 0 8.95555 0 20.0002H10.4348V14.1242L16.3107 20.0002H19.9466C19.9645 19.9824 19.9823 19.9645 20.0001 19.9466C20.0001 18.5992 20.0001 17.397 20.0001 16.311L14.1241 10.435H20Z" fill="#F0F0F0"/>
<path d="M10.1183 2.60876C6.99028 4.38994 4.38981 6.99041 2.60864 10.1185V20.0001H7.82606V7.82627V7.82619H20C20 6.18064 20 4.61298 20 2.60876H10.1183Z" fill="#D80027"/>
<path d="M20 17.5407L12.8943 10.4351H10.4348C10.4348 10.435 10.4348 10.4351 10.4348 10.4351L19.9999 20.0002H20C20 20.0002 20 18.3045 20 17.5407Z" fill="#D80027"/>
<path d="M12.0621 23.4783L13.1598 25.7734L15.6385 25.2005L14.5285 27.4898L16.5218 29.0705L14.04 29.6298L14.0469 32.1739L12.0621 30.5823L10.0775 32.1739L10.0844 29.6298L7.60254 29.0705L9.5959 27.4898L8.48574 25.2005L10.9646 25.7734L12.0621 23.4783Z" fill="#F0F0F0"/>
<path d="M29.9441 27.8262L30.4929 28.9738L31.7323 28.6873L31.1772 29.8319L32.174 30.6223L30.933 30.902L30.9365 32.174L29.9441 31.3781L28.9518 32.174L28.9552 30.902L27.7144 30.6223L28.711 29.8319L28.156 28.6873L29.3953 28.9738L29.9441 27.8262Z" fill="#F0F0F0"/>
<path d="M24.8385 15.6522L25.3872 16.7999L26.6266 16.5133L26.0716 17.6579L27.0683 18.4483L25.8274 18.728L25.8308 20L24.8385 19.2042L23.8461 20L23.8495 18.728L22.6086 18.4483L23.6053 17.6579L23.0503 16.5133L24.2897 16.7999L24.8385 15.6522Z" fill="#F0F0F0"/>
<path d="M29.9441 8.69568L30.4929 9.84333L31.7323 9.55685L31.1773 10.7015L32.1739 11.4918L30.933 11.7715L30.9365 13.0436L29.9441 12.2477L28.9518 13.0436L28.9552 11.7715L27.7144 11.4918L28.7109 10.7015L28.156 9.55685L29.3953 9.84333L29.9441 8.69568Z" fill="#F0F0F0"/>
<path d="M34.4037 13.9131L34.9524 15.0607L36.1918 14.7742L35.6368 15.9188L36.6334 16.7092L35.3925 16.9889L35.3959 18.2609L34.4037 17.4651L33.4113 18.2609L33.4147 16.9889L32.1738 16.7092L33.1705 15.9188L32.6155 14.7742L33.8548 15.0607L34.4037 13.9131Z" fill="#F0F0F0"/>
<path d="M31.2149 20L31.6465 21.3286H33.0436L31.9133 22.1498L32.3451 23.4783L31.2149 22.6572L30.0847 23.4783L30.5164 22.1498L29.3862 21.3286H30.7832L31.2149 20Z" fill="#F0F0F0"/>
</g>
<defs>
<clipPath id="clip0_3011_51992">
<rect width="40" height="40" fill="white"/>
</clipPath>
</defs>
</svg>
