<svg width="40" height="40" viewBox="0 0 40 40" fill="none" xmlns="http://www.w3.org/2000/svg">
<g clip-path="url(#clip0_3011_51990)">
<path d="M40 20C40 17.5536 39.56 15.2101 38.756 13.0436L20 12.174L1.24398 13.0435C0.440078 15.2101 0 17.5536 0 20C0 22.4465 0.440078 24.79 1.24398 26.9565L20 27.8261L38.756 26.9566C39.56 24.79 40 22.4465 40 20Z" fill="#D80027"/>
<path d="M19.9999 39.9999C28.5992 39.9999 35.9301 34.5724 38.7559 26.9564H1.2439C4.06976 34.5724 11.4006 39.9999 19.9999 39.9999Z" fill="#6DA544"/>
<path d="M1.2439 13.0435H38.756C35.9301 5.4275 28.5992 0 19.9999 0C11.4006 0 4.06976 5.4275 1.2439 13.0435Z" fill="#338AF3"/>
<path d="M20.4348 25.6522C17.3133 25.6522 14.7826 23.1216 14.7826 20C14.7826 16.8785 17.3133 14.3478 20.4348 14.3478C21.4081 14.3478 22.324 14.5939 23.1235 15.0272C21.8691 13.8006 20.1538 13.0435 18.2609 13.0435C14.4189 13.0435 11.3044 16.158 11.3044 19.9999C11.3044 23.8419 14.419 26.9564 18.2609 26.9564C20.1539 26.9564 21.8692 26.1993 23.1235 24.9727C22.324 25.4061 21.4081 25.6522 20.4348 25.6522Z" fill="#F0F0F0"/>
<path d="M24.7827 16.087L25.5313 18.1926L27.5496 17.2331L26.5902 19.2513L28.6957 20.0001L26.5902 20.7488L27.5496 22.7671L25.5313 21.8076L24.7827 23.9131L24.0341 21.8076L22.0157 22.7671L22.9753 20.7488L20.8696 20.0001L22.9753 19.2513L22.0157 17.2331L24.0341 18.1926L24.7827 16.087Z" fill="#F0F0F0"/>
</g>
<defs>
<clipPath id="clip0_3011_51990">
<rect width="40" height="40" fill="white"/>
</clipPath>
</defs>
</svg>
