<svg width="40" height="40" viewBox="0 0 40 40" fill="none" xmlns="http://www.w3.org/2000/svg">
<g clip-path="url(#clip0_3011_51988)">
<path d="M19.9998 40.0001C31.0454 40.0001 39.9998 31.0458 39.9998 20.0001C39.9998 8.95437 31.0454 6.10352e-05 19.9998 6.10352e-05C8.95406 6.10352e-05 -0.000244141 8.95437 -0.000244141 20.0001C-0.000244141 31.0458 8.95406 40.0001 19.9998 40.0001Z" fill="#F0F0F0"/>
<path d="M19.9998 6.10352e-05C15.9861 6.10352e-05 12.2492 1.18326 9.11702 3.21865L14.2607 6.66623L7.82593 9.99951L14.2607 13.3328L7.82593 16.6661L14.2607 19.999L7.82593 23.3322L14.2607 26.6654L7.82593 29.999L14.2607 33.3322L9.1164 36.7809C12.2487 38.8167 15.9859 40.0001 19.9998 40.0001C31.0455 40.0001 39.9998 31.0457 39.9998 20.0001C39.9998 8.95444 31.0455 6.10352e-05 19.9998 6.10352e-05V6.10352e-05Z" fill="#D80027"/>
</g>
<defs>
<clipPath id="clip0_3011_51988">
<rect width="40" height="40" fill="white"/>
</clipPath>
</defs>
</svg>
