<svg width="40" height="40" viewBox="0 0 40 40" fill="none" xmlns="http://www.w3.org/2000/svg">
<g clip-path="url(#clip0_3011_51974)">
<path d="M20 40C31.0457 40 40 31.0457 40 20C40 8.9543 31.0457 0 20 0C8.9543 0 0 8.9543 0 20C0 31.0457 8.9543 40 20 40Z" fill="#F0F0F0"/>
<path d="M32.1779 4.13288C25.0176 -1.37696 14.9826 -1.37696 7.82227 4.1328L20.0001 16.3106L32.1779 4.13288Z" fill="#D80027"/>
<path d="M19.9999 23.6894L7.82227 35.867C14.9826 41.3769 25.0176 41.3769 32.1779 35.867L20.0001 23.6892L19.9999 23.6894Z" fill="#D80027"/>
<path d="M16.3106 20.0001L4.13287 7.82227C-1.37697 14.9826 -1.37697 25.0176 4.13287 32.1779L16.3106 20.0001Z" fill="#6DA544"/>
<path d="M23.6892 20.0001L35.8669 32.1779C41.3767 25.0176 41.3767 14.9826 35.8669 7.82227L23.6892 20.0001Z" fill="#6DA544"/>
<path d="M20.0001 28.6957C24.8025 28.6957 28.6957 24.8025 28.6957 20.0001C28.6957 15.1976 24.8025 11.3044 20.0001 11.3044C15.1976 11.3044 11.3044 15.1976 11.3044 20.0001C11.3044 24.8025 15.1976 28.6957 20.0001 28.6957Z" fill="#F0F0F0"/>
<path d="M20.0001 13.9131L20.7532 15.2175H22.2593L21.5062 16.5218L22.2593 17.8261H20.7532L20.0001 19.1305L19.2471 17.8261H17.741L18.494 16.5218L17.741 15.2175H19.2471L20.0001 13.9131Z" fill="#D80027"/>
<path d="M16.1723 20L16.9254 21.3044H18.4314L17.6784 22.6087L18.4314 23.9131H16.9254L16.1723 25.2174L15.4192 23.9131H13.9131L14.6661 22.6087L13.9131 21.3044H15.4192L16.1723 20Z" fill="#D80027"/>
<path d="M23.8278 20L24.5809 21.3044H26.087L25.3339 22.6087L26.087 23.913H24.5809L23.8278 25.2174L23.0747 23.913H21.5686L22.3217 22.6087L21.5686 21.3044H23.0747L23.8278 20Z" fill="#D80027"/>
</g>
<defs>
<clipPath id="clip0_3011_51974">
<rect width="40" height="40" fill="white"/>
</clipPath>
</defs>
</svg>
