<svg width="40" height="40" viewBox="0 0 40 40" fill="none" xmlns="http://www.w3.org/2000/svg">
<g clip-path="url(#clip0_3011_51978)">
<path d="M19.9998 40C31.0455 40 39.9998 31.0457 39.9998 20C39.9998 8.9543 31.0455 0 19.9998 0C8.95406 0 -0.000244141 8.9543 -0.000244141 20C-0.000244141 31.0457 8.95406 40 19.9998 40Z" fill="#6DA544"/>
<path d="M20 7.82605L36.5217 20L20 32.1739L3.47827 20L20 7.82605Z" fill="#FFDA44"/>
<path d="M19.9999 26.9565C23.8419 26.9565 26.9564 23.842 26.9564 20.0001C26.9564 16.1581 23.8419 13.0436 19.9999 13.0436C16.158 13.0436 13.0435 16.1581 13.0435 20.0001C13.0435 23.842 16.158 26.9565 19.9999 26.9565Z" fill="#F0F0F0"/>
<path d="M16.5217 19.5653C15.312 19.5653 14.1446 19.7493 13.0457 20.0907C13.0943 23.8907 16.1884 26.9566 20 26.9566C22.3568 26.9566 24.4384 25.7834 25.6967 23.9904C23.5439 21.2953 20.2313 19.5653 16.5217 19.5653Z" fill="#0052B4"/>
<path d="M26.8276 21.3329C26.9113 20.9013 26.9566 20.4561 26.9566 20.0001C26.9566 16.158 23.842 13.0436 20.0001 13.0436C17.1334 13.0436 14.6724 14.778 13.6074 17.2544C14.5488 17.0594 15.5235 16.9566 16.5219 16.9566C20.5623 16.9565 24.2174 18.6361 26.8276 21.3329Z" fill="#0052B4"/>
</g>
<defs>
<clipPath id="clip0_3011_51978">
<rect width="40" height="40" fill="white"/>
</clipPath>
</defs>
</svg>
