<svg width="40" height="40" viewBox="0 0 40 40" fill="none" xmlns="http://www.w3.org/2000/svg">
<g clip-path="url(#clip0_3011_51989)">
<path d="M20 40C31.0457 40 40 31.0457 40 20C40 8.9543 31.0457 0 20 0C8.95431 0 0 8.9543 0 20C0 31.0457 8.95431 40 20 40Z" fill="#FFDA44"/>
<path d="M12.174 13.0436H38.7561C35.9303 5.42756 28.5993 6.10352e-05 20.0001 6.10352e-05C14.4772 6.10352e-05 9.4777 2.23905 5.85864 5.85858L12.174 13.0436Z" fill="#338AF3"/>
<path d="M12.174 26.9565H38.7561C35.9303 34.5726 28.5993 40.0001 20.0001 40.0001C14.4772 40.0001 9.4777 37.7611 5.85864 34.1415L12.174 26.9565Z" fill="#338AF3"/>
<path d="M5.85785 5.85785C-1.95262 13.6683 -1.95262 26.3317 5.85785 34.1422C9.08543 30.9146 12.1896 27.8105 20 20L5.85785 5.85785Z" fill="black"/>
</g>
<defs>
<clipPath id="clip0_3011_51989">
<rect width="40" height="40" fill="white"/>
</clipPath>
</defs>
</svg>
