<svg width="40" height="40" viewBox="0 0 40 40" fill="none" xmlns="http://www.w3.org/2000/svg">
<g clip-path="url(#clip0_3011_51981)">
<path d="M34.1422 34.1421C26.3317 41.9526 13.6684 41.9526 5.85785 34.1421C-1.95262 26.3317 -1.95262 13.6683 5.85785 5.85775C5.86067 5.85775 23.8311 0.547832 31.6417 8.3583C39.4522 16.1688 34.1475 34.1367 34.1422 34.1421Z" fill="#FFDA44"/>
<path d="M34.142 34.1421C41.9524 26.3317 41.9524 13.6683 34.142 5.85776C26.3315 -1.95279 13.6682 -1.95271 5.85767 5.85776L34.142 34.1421Z" fill="#D80027"/>
<path d="M25.2278 25.2298C24.4062 25.5524 23.4516 25.5182 22.6234 25.0534C21.1602 24.2322 20.6378 22.3733 21.4593 20.9098L21.2099 20.7699C23.7155 20.1658 25.5691 17.8916 25.5366 15.2078C25.5165 13.5393 24.7709 12.0466 23.6048 11.0251L21.7787 12.8959C22.4691 13.4461 22.9166 14.29 22.9281 15.2394C22.9484 16.9176 21.5998 18.2994 19.9218 18.3196L19.9253 18.6053C18.1493 16.7376 15.253 16.2694 12.9451 17.6394C11.5103 18.4913 10.5905 19.8832 10.2888 21.4039L12.8219 22.05C12.9533 21.177 13.4602 20.3675 14.2767 19.8827C15.7198 19.0261 17.5907 19.5033 18.4473 20.9462L18.6933 20.8004C17.9637 23.2721 19.0063 26.0145 21.3469 27.3283C22.802 28.145 24.4673 28.2457 25.9352 27.7466L25.2278 25.2298ZM19.9428 20.0584L19.9427 20.0584L19.9428 20.0584Z" fill="#FF9811"/>
<path d="M27.4051 13.5453L25.9915 18.5899L21.7501 17.8067L19.0199 12.179L11.6444 14.7962L11.0627 13.1572L9.13306 12.9194L10.587 17.017L15.6627 15.7189L17.1052 19.7836L13.5964 24.9618L19.5509 30.0404L18.4222 31.3636L19.1812 33.1539L22.0029 29.8458L18.3409 26.0991L21.1399 22.8176L27.3788 23.2672L28.7998 15.5711L30.51 15.8869L31.681 14.3346L27.4051 13.5453ZM19.9984 20.136V20.1361V20.136Z" fill="#FFEACF"/>
</g>
<defs>
<clipPath id="clip0_3011_51981">
<rect width="40" height="40" fill="white"/>
</clipPath>
</defs>
</svg>
