<svg width="40" height="40" viewBox="0 0 40 40" fill="none" xmlns="http://www.w3.org/2000/svg">
<g clip-path="url(#clip0_3011_51983)">
<path d="M40 20C40 13.1358 36.5415 7.08013 31.2724 3.47825L20 2.60864L8.72758 3.47817C3.45859 7.08013 0 13.1359 0 20C0 26.8643 3.45859 32.9198 8.72758 36.5217L20 37.3913L31.2724 36.5218C36.5415 32.9198 40 26.8643 40 20Z" fill="#0052B4"/>
<path d="M31.2724 3.47816C28.0626 1.28394 24.1815 -0.00012207 20 -0.00012207C15.8185 -0.00012207 11.9373 1.28394 8.72754 3.47816H31.2724Z" fill="#A2001D"/>
<path d="M8.72754 36.5216C11.9372 38.7158 15.8185 39.9999 20 39.9999C24.1815 39.9999 28.0626 38.7158 31.2724 36.5216H8.72754Z" fill="#A2001D"/>
<path d="M20 29.5652C25.2828 29.5652 29.5653 25.2827 29.5653 19.9999C29.5653 14.7172 25.2828 10.4347 20 10.4347C14.7173 10.4347 10.4348 14.7172 10.4348 19.9999C10.4348 25.2827 14.7173 29.5652 20 29.5652Z" fill="#F0F0F0"/>
<path d="M19.9999 27.8261C24.3222 27.8261 27.826 24.3223 27.826 20C27.826 15.6778 24.3222 12.174 19.9999 12.174C15.6777 12.174 12.1738 15.6778 12.1738 20C12.1738 24.3223 15.6777 27.8261 19.9999 27.8261Z" fill="#6DA544"/>
<path d="M20.0001 25.2174C22.8816 25.2174 25.2176 22.8815 25.2176 20C25.2176 17.1185 22.8816 14.7826 20.0001 14.7826C17.1186 14.7826 14.7827 17.1185 14.7827 20C14.7827 22.8815 17.1186 25.2174 20.0001 25.2174Z" fill="#F0F0F0"/>
<path d="M20.0002 18.6956L17.1741 19.9999V22.1738L20.0002 23.913L22.8263 22.1738V19.9999L20.0002 18.6956Z" fill="#0052B4"/>
<path d="M17.1741 17.3912H22.8263V19.9999H17.1741V17.3912Z" fill="#FFDA44"/>
</g>
<defs>
<clipPath id="clip0_3011_51983">
<rect width="40" height="40" fill="white"/>
</clipPath>
</defs>
</svg>
