<svg width="40" height="40" viewBox="0 0 40 40" fill="none" xmlns="http://www.w3.org/2000/svg">
<g clip-path="url(#clip0_3011_51967)">
<path d="M19.9998 40C31.0454 40 39.9998 31.0457 39.9998 20C39.9998 8.9543 31.0454 0 19.9998 0C8.95406 0 -0.000244141 8.9543 -0.000244141 20C-0.000244141 31.0457 8.95406 40 19.9998 40Z" fill="#D80027"/>
<path d="M10.9453 12.172L12.6719 17.4845H18.2578L13.7422 20.7736L15.4687 26.0861L10.9453 22.8048L6.42187 26.0861L8.15625 20.7736L3.63281 17.4845H9.21875L10.9453 12.172Z" fill="#FFDA44"/>
<path d="M23.7109 30.9767L22.3906 29.3517L20.4375 30.1095L21.5703 28.3517L20.25 26.7189L22.2734 27.2579L23.4141 25.5001L23.5234 27.5939L25.5547 28.1329L23.5937 28.8829L23.7109 30.9767Z" fill="#FFDA44"/>
<path d="M26.3359 26.2111L26.9609 24.2111L25.25 23.0001L27.3437 22.9689L27.9609 20.9689L28.6406 22.9532L30.7344 22.9298L29.0547 24.1798L29.7266 26.1642L28.0156 24.9532L26.3359 26.2111Z" fill="#FFDA44"/>
<path d="M29.875 14.6798L28.9531 16.5626L30.4531 18.0236L28.3828 17.7267L27.4609 19.6017L27.1016 17.5392L25.0234 17.2423L26.8828 16.2657L26.5234 14.1954L28.0234 15.6564L29.875 14.6798Z" fill="#FFDA44"/>
<path d="M23.7656 8.97668L23.6094 11.0626L25.5547 11.8517L23.5156 12.3517L23.3672 14.4454L22.2656 12.6642L20.2266 13.1642L21.5781 11.5626L20.4688 9.78918L22.4141 10.5782L23.7656 8.97668Z" fill="#FFDA44"/>
</g>
<defs>
<clipPath id="clip0_3011_51967">
<rect width="40" height="40" fill="white"/>
</clipPath>
</defs>
</svg>
