<svg width="40" height="40" viewBox="0 0 40 40" fill="none" xmlns="http://www.w3.org/2000/svg">
<g clip-path="url(#clip0_3011_51923)">
<path d="M19.9999 40C22.4463 40 24.7898 39.56 26.9564 38.756L27.826 20L26.9565 1.24398C24.7898 0.440078 22.4463 0 19.9999 0C17.5535 0 15.21 0.440078 13.0434 1.24398L12.1738 20L13.0434 38.756C15.21 39.56 17.5535 40 19.9999 40Z" fill="#F0F0F0"/>
<path d="M0 20C0 28.5993 5.4275 35.9302 13.0435 38.7561V1.24402C5.4275 4.06988 0 11.4007 0 20Z" fill="#FF9811"/>
<path d="M26.9564 1.24402V38.7561C34.5724 35.9302 39.9999 28.5993 39.9999 20C39.9999 11.4007 34.5724 4.06988 26.9564 1.24402Z" fill="#6DA544"/>
</g>
<defs>
<clipPath id="clip0_3011_51923">
<rect width="40" height="40" fill="white"/>
</clipPath>
</defs>
</svg>
