<svg width="40" height="40" viewBox="0 0 40 40" fill="none" xmlns="http://www.w3.org/2000/svg">
<g clip-path="url(#clip0_3011_51965)">
<path d="M20 40.0001C31.0457 40.0001 40 31.0458 40 20.0001C40 8.95443 31.0457 0.00012207 20 0.00012207C8.95431 0.00012207 0 8.95443 0 20.0001C0 31.0458 8.95431 40.0001 20 40.0001Z" fill="#F0F0F0"/>
<path d="M39.9994 19.9421H18.3189C14.0144 24.2467 11.4115 27.5699 8.75366 30.2277L20.058 31.2464L37.5998 29.5073C39.1306 26.6796 40.0001 23.4414 40.0001 20C40.0001 19.9807 39.9994 19.9615 39.9994 19.9421Z" fill="#D80027"/>
<path d="M8.75355 10.3769H37.5357C34.1343 4.19188 27.557 0 19.9999 0C14.4917 0 9.50449 2.22742 5.8877 5.83L8.75355 10.3769Z" fill="#FFDA44"/>
<path d="M9.62326 29.5073C7.82529 31.3053 7.13045 32.8117 5.82959 34.1125C9.45107 37.749 14.4624 40 20.0001 40C27.6044 40 34.2172 35.7559 37.5998 29.5073H9.62326Z" fill="#0052B4"/>
<path d="M5.85785 5.79993C-1.95262 13.6104 -1.95262 26.2738 5.85785 34.0843C9.08543 30.8567 12.1896 27.7526 20 19.9421L5.85785 5.79993Z" fill="#6DA544"/>
<path d="M5.2755 19.9422C5.2755 17.0283 7.32339 14.594 10.0581 13.9968C9.63776 13.905 9.20167 13.8552 8.7537 13.8552C5.3919 13.8552 2.66675 16.5804 2.66675 19.9422C2.66675 23.304 5.3919 26.0291 8.7537 26.0291C9.20159 26.0291 9.63769 25.9794 10.0581 25.8876C7.32339 25.2903 5.2755 22.8561 5.2755 19.9422Z" fill="#F0F0F0"/>
<path d="M9.99087 14.7247L10.3147 15.7211H11.3624L10.5147 16.337L10.8385 17.3334L9.99087 16.7176L9.14321 17.3334L9.46704 16.337L8.61938 15.7211H9.66704L9.99087 14.7247Z" fill="#F0F0F0"/>
<path d="M9.99087 17.3334L10.3147 18.3299H11.3624L10.5147 18.9456L10.8385 19.9421L9.99087 19.3263L9.14321 19.9421L9.46704 18.9456L8.61938 18.3299H9.66704L9.99087 17.3334Z" fill="#F0F0F0"/>
<path d="M9.99087 19.9423L10.3147 20.9387H11.3624L10.5147 21.5545L10.8385 22.5509L9.99087 21.9351L9.14321 22.5509L9.46704 21.5545L8.61938 20.9387H9.66704L9.99087 19.9423Z" fill="#F0F0F0"/>
<path d="M9.99087 22.5509L10.3147 23.5473H11.3624L10.5147 24.1632L10.8385 25.1596L9.99087 24.5438L9.14321 25.1596L9.46704 24.1632L8.61938 23.5473H9.66704L9.99087 22.5509Z" fill="#F0F0F0"/>
</g>
<defs>
<clipPath id="clip0_3011_51965">
<rect width="40" height="40" fill="white"/>
</clipPath>
</defs>
</svg>
