<svg width="40" height="40" viewBox="0 0 40 40" fill="none" xmlns="http://www.w3.org/2000/svg">
<g clip-path="url(#clip0_3011_51962)">
<path d="M19.9999 40C31.0456 40 39.9998 31.0457 39.9998 20C39.9998 8.95439 31.0456 0.00012207 19.9999 0.00012207C8.95427 0.00012207 0 8.95439 0 20C0 31.0457 8.95427 40 19.9999 40Z" fill="#F0F0F0"/>
<path d="M20.0001 0.00012207C13.457 0.00012207 7.6481 3.14254 3.99927 8.00012H36.0009C32.3522 3.14247 26.5432 0.00012207 20.0001 0.00012207Z" fill="#0052B4"/>
<path d="M20.0001 39.9999C26.5432 39.9999 32.3522 36.8575 36.001 31.9999H3.99927C7.64802 36.8575 13.457 39.9999 20.0001 39.9999Z" fill="#0052B4"/>
<path d="M0 20C0 21.3699 0.138125 22.7076 0.400547 24H39.5995C39.862 22.7076 40 21.3699 40 20C40 18.6301 39.8619 17.2924 39.5995 16H0.400547C0.138125 17.2924 0 18.6301 0 20Z" fill="#0052B4"/>
<path d="M5.85779 5.85791C-1.9526 13.6683 -1.9526 26.3317 5.85779 34.1422C9.08537 30.9146 12.1894 27.8105 19.9999 20.0001L5.85779 5.85791Z" fill="#D80027"/>
<path d="M8.0945 14.7827L9.38935 18.7683H13.5804L10.1901 21.2317L11.4849 25.2173L8.0945 22.754L4.70396 25.2173L5.99911 21.2317L2.60864 18.7683H6.79942L8.0945 14.7827Z" fill="#F0F0F0"/>
</g>
<defs>
<clipPath id="clip0_3011_51962">
<rect width="40" height="40" fill="white"/>
</clipPath>
</defs>
</svg>
