<svg width="40" height="40" viewBox="0 0 40 40" fill="none" xmlns="http://www.w3.org/2000/svg">
<g clip-path="url(#clip0_3011_51957)">
<path d="M20 39.9999C31.0457 39.9999 40 31.0456 40 19.9999C40 8.95424 31.0457 -6.10352e-05 20 -6.10352e-05C8.9543 -6.10352e-05 0 8.95424 0 19.9999C0 31.0456 8.9543 39.9999 20 39.9999Z" fill="#F0F0F0"/>
<path d="M23.9131 39.6161C31.8196 38.0477 38.0478 31.8194 39.6162 23.913H23.9131V39.6161Z" fill="#496E2D"/>
<path d="M0.383789 23.913C1.95215 31.8194 8.18043 38.0477 16.0869 39.6161V23.913H0.383789Z" fill="#496E2D"/>
<path d="M39.6162 16.0869C38.0478 8.18051 31.8196 1.95223 23.9131 0.383789V16.0869H39.6162Z" fill="#496E2D"/>
<path d="M16.0869 0.383789C8.18043 1.95223 1.95215 8.18051 0.383789 16.0869H16.0869V0.383789Z" fill="#496E2D"/>
<path d="M18.6958 23.913H16.0872V39.6162C16.9385 39.785 17.8093 39.8994 18.6958 39.9565V23.913Z" fill="#FFDA44"/>
<path d="M18.6958 16.0869V0.043457C17.8093 0.100488 16.9384 0.214941 16.0872 0.383769V16.0869H18.6958Z" fill="#FFDA44"/>
<path d="M21.3043 0.0434546C20.8729 0.015564 20.4383 -6.10352e-05 19.9999 -6.10352e-05C19.5616 -6.10352e-05 19.127 0.015564 18.6956 0.0434546V16.087H21.3042V0.0434546H21.3043Z" fill="black"/>
<path d="M18.6956 39.9565C19.127 39.9844 19.5616 40 19.9999 40C20.4383 40 20.8729 39.9844 21.3043 39.9565V23.913H18.6956V39.9565H18.6956Z" fill="black"/>
<path d="M16.0869 18.6956V16.0869H0.383769C0.214863 16.9383 0.100488 17.8091 0.043457 18.6956H16.0869Z" fill="#FFDA44"/>
<path d="M23.9128 18.6956H39.9564C39.8993 17.8091 39.7849 16.9383 39.616 16.0869H23.9129V18.6956H23.9128Z" fill="#FFDA44"/>
<path d="M23.9131 21.3043H39.9566C39.9844 20.873 40 20.4383 40 19.9999C40 19.5616 39.9844 19.1269 39.9565 18.6956H23.9131V21.3043Z" fill="black"/>
<path d="M0.0435156 18.6956C0.0157031 19.1269 0 19.5616 0 19.9999C0 20.4383 0.0157031 20.873 0.0435156 21.3043H16.087V18.6956H0.0435156V18.6956Z" fill="black"/>
<path d="M20.0001 29.5652C25.2828 29.5652 29.5653 25.2827 29.5653 19.9999C29.5653 14.7172 25.2828 10.4347 20.0001 10.4347C14.7173 10.4347 10.4348 14.7172 10.4348 19.9999C10.4348 25.2827 14.7173 29.5652 20.0001 29.5652Z" fill="#D80027"/>
<path d="M22.1791 21.0672C21.4676 19.6443 20.5429 18.2021 20.5429 18.2021C20.5429 18.2021 20.5658 17.5455 20.5658 17.1542C20.5658 16.5648 20.088 16.087 19.4986 16.087C18.9403 16.087 18.4828 16.516 18.4361 17.0622C17.9971 17.0909 17.6497 17.4551 17.6497 17.9013C17.6497 18.2258 17.8335 18.507 18.1025 18.6475C18.2363 18.3347 18.4982 18.0905 18.8221 17.9791C18.8749 18.0223 18.9316 18.0609 18.9922 18.0937L19.1289 18.1591C19.1289 18.1591 18.6219 19.5881 18.6219 20.3558C18.6219 22.5139 20.0449 23.1795 20.0449 23.1795V23.2017L19.3334 23.9131H20.7563V22.4902L21.4678 23.2016C21.474 23.1883 22.8154 22.3399 22.1791 21.0672Z" fill="#496E2D"/>
<path d="M19.9998 12.1739L20.3236 13.1703H21.3712L20.5236 13.7862L20.8475 14.7826L19.9998 14.1668L19.1522 14.7826L19.476 13.7862L18.6284 13.1703H19.6761L19.9998 12.1739Z" fill="#496E2D"/>
<path d="M15.3999 13.6685L16.2474 14.2844L17.095 13.6685L16.7713 14.665L17.6189 15.2807L16.5712 15.2808L16.2475 16.2772L15.9236 15.2808L14.876 15.2807L15.7236 14.6649L15.3999 13.6685Z" fill="#496E2D"/>
<path d="M12.5569 17.5816H13.6045L13.9283 16.5852L14.252 17.5816L15.2998 17.5815L14.4522 18.1975L14.776 19.1939L13.9283 18.578L13.0807 19.1938L13.4044 18.1974L12.5569 17.5816Z" fill="#496E2D"/>
<path d="M12.5569 22.4183L13.4044 21.8026L13.0806 20.8062L13.9283 21.422L14.7759 20.8062L14.4522 21.8026L15.2999 22.4184L14.252 22.4185L13.9283 23.4148L13.6045 22.4183H12.5569Z" fill="#496E2D"/>
<path d="M15.4 26.3314L15.7236 25.3351L14.876 24.7193H15.9237L16.2475 23.7228L16.5713 24.7192H17.619L16.7714 25.3351L17.0951 26.3314L16.2475 25.7156L15.4 26.3314Z" fill="#496E2D"/>
<path d="M19.9998 27.8261L19.6761 26.8298H18.6284L19.476 26.2139L19.1522 25.2175L19.9998 25.8332L20.8474 25.2174L20.5236 26.2139L21.3712 26.8298L20.3236 26.8298L19.9998 27.8261Z" fill="#496E2D"/>
<path d="M24.5999 26.3314L23.7524 25.7156L22.9048 26.3315L23.2285 25.3351L22.3809 24.7193L23.4286 24.7192L23.7523 23.7228L24.0762 24.7193H25.1238L24.2762 25.3351L24.5999 26.3314Z" fill="#496E2D"/>
<path d="M27.4429 22.4184H26.3953L26.0715 23.4149L25.7478 22.4185H24.7L25.5476 21.8026L25.2238 20.8063L26.0715 21.4221L26.919 20.8063L26.5954 21.8027L27.4429 22.4184Z" fill="#496E2D"/>
<path d="M27.4429 17.5816L26.5954 18.1974L26.9191 19.1938L26.0715 18.578L25.2239 19.1939L25.5476 18.1975L24.7 17.5817L25.7478 17.5815L26.0714 16.5853L26.3953 17.5816H27.4429Z" fill="#496E2D"/>
<path d="M24.5999 13.6686L24.2762 14.6649L25.1238 15.2808H24.0762L23.7524 16.2772L23.4286 15.2808L22.3809 15.2809L23.2285 14.6649L22.9048 13.6687L23.7524 14.2844L24.5999 13.6686Z" fill="#496E2D"/>
</g>
<defs>
<clipPath id="clip0_3011_51957">
<rect width="40" height="40" fill="white"/>
</clipPath>
</defs>
</svg>
