<svg width="40" height="40" viewBox="0 0 40 40" fill="none" xmlns="http://www.w3.org/2000/svg">
<g clip-path="url(#clip0_3011_51956)">
<path d="M19.9998 40.0001C31.0454 40.0001 39.9998 31.0458 39.9998 20.0001C39.9998 8.95437 31.0454 6.10352e-05 19.9998 6.10352e-05C8.95406 6.10352e-05 -0.000244141 8.95437 -0.000244141 20.0001C-0.000244141 31.0458 8.95406 40.0001 19.9998 40.0001Z" fill="#F0F0F0"/>
<path d="M0.688965 25.2174C2.53568 32.0692 7.93076 37.4644 14.7826 39.3111V25.2174H0.688965Z" fill="#D80027"/>
<path d="M14.7826 0.689026C7.93076 2.53567 2.53561 7.93082 0.688965 14.7826H14.7826V0.689026H14.7826Z" fill="#0052B4"/>
<path d="M39.3109 14.7826C37.4642 7.93082 32.0691 2.53567 25.2173 0.689026V14.7827H39.3109V14.7826Z" fill="#D80027"/>
<path d="M25.2173 39.311C32.0691 37.4643 37.4642 32.0692 39.311 25.2173H25.2173V39.311Z" fill="#0052B4"/>
<path d="M25.2173 20C25.2173 22.8816 22.8815 25.2174 19.9999 25.2174C17.1184 25.2174 14.7825 22.8816 14.7825 20C14.7825 17.1185 19.9999 14.7826 19.9999 14.7826C19.9999 14.7826 25.2173 17.1185 25.2173 20Z" fill="#496E2D"/>
<path d="M14.7825 20C14.7825 17.1185 17.1184 14.7826 19.9999 14.7826C22.8815 14.7826 25.2173 17.1185 25.2173 20" fill="#0052B4"/>
<path d="M17.0652 17.3914V20.6522C17.0652 22.2731 18.3791 23.587 20 23.587C21.6208 23.587 22.9347 22.2731 22.9347 20.6522V17.3914H17.0652Z" fill="#D80027"/>
</g>
<defs>
<clipPath id="clip0_3011_51956">
<rect width="40" height="40" fill="white"/>
</clipPath>
</defs>
</svg>
