<svg width="40" height="40" viewBox="0 0 40 40" fill="none" xmlns="http://www.w3.org/2000/svg">
<g clip-path="url(#clip0_3011_51951)">
<path d="M18.261 18.2607C18.261 18.2607 5.86963 34.1449 5.85791 34.142C9.47713 37.7613 14.4772 39.9999 20.0001 39.9999C31.0457 39.9999 40.0001 31.0455 40.0001 19.9999L18.261 18.2607Z" fill="#338AF3"/>
<path d="M18.261 20C18.261 20 5.86963 5.85508 5.85791 5.85789C9.47713 2.23859 14.4772 0 20.0001 0C31.0457 0 40.0001 8.95437 40.0001 20H18.261Z" fill="#6DA544"/>
<path d="M5.85785 5.85779C-1.95262 13.6683 -1.95262 26.3316 5.85785 34.1422C5.8573 34.1454 40 20 40 20L5.85785 5.85779Z" fill="#D80027"/>
<path d="M10.4348 11.7391C6.5989 11.7391 3.47827 14.8598 3.47827 18.6956V21.3043C3.47827 25.1402 6.59897 28.2608 10.4348 28.2608C14.2705 28.2608 17.3912 25.1401 17.3912 21.3043V18.6956C17.3913 14.8598 14.2706 11.7391 10.4348 11.7391ZM14.7826 21.3044C14.7826 23.2475 13.5012 24.8966 11.7391 25.452V22.6087L13.5847 20.7631L11.7401 18.9185L11.7391 18.262V17.3914H9.13046V20L7.28608 21.8443L9.13046 23.6886V25.4521C7.36835 24.8967 6.08694 23.2476 6.08694 21.3044V18.6958C6.08694 16.2984 8.03741 14.348 10.4348 14.348C12.8321 14.348 14.7826 16.2984 14.7826 18.6958V21.3044Z" fill="#FFDA44"/>
</g>
<defs>
<clipPath id="clip0_3011_51951">
<rect width="40" height="40" fill="white"/>
</clipPath>
</defs>
</svg>
