<svg width="40" height="40" viewBox="0 0 40 40" fill="none" xmlns="http://www.w3.org/2000/svg">
<g clip-path="url(#clip0_3011_51845)">
<path d="M6.10352e-05 20.0001C6.10352e-05 22.4465 0.440139 24.7899 1.24405 26.9566L20.0001 28.6957L38.7561 26.9566C39.56 24.7899 40.0001 22.4465 40.0001 20.0001C40.0001 17.5537 39.56 15.2102 38.7561 13.0436L20.0001 11.3044L1.24405 13.0436C0.440139 15.2102 6.10352e-05 17.5537 6.10352e-05 20.0001H6.10352e-05Z" fill="#FFDA44"/>
<path d="M38.7559 13.0435C35.9301 5.42758 28.5992 0 19.9999 0C11.4006 0 4.06976 5.42758 1.2439 13.0435H38.7559Z" fill="#D80027"/>
<path d="M1.2439 26.9565C4.06976 34.5725 11.4006 40.0001 19.9999 40.0001C28.5992 40.0001 35.9301 34.5725 38.7559 26.9565H1.2439Z" fill="#D80027"/>
</g>
<defs>
<clipPath id="clip0_3011_51845">
<rect width="40" height="40" fill="white"/>
</clipPath>
</defs>
</svg>
