<svg width="40" height="40" viewBox="0 0 40 40" fill="none" xmlns="http://www.w3.org/2000/svg">
<g clip-path="url(#clip0_3011_51950)">
<path d="M0 19.9999C0 22.4463 0.440078 24.7898 1.24398 26.9564L20 27.826L38.756 26.9565C39.56 24.7898 40 22.4463 40 19.9999C40 17.5535 39.56 15.2101 38.756 13.0434L20 12.1738L1.24398 13.0434C0.440078 15.2101 0 17.5535 0 19.9999H0Z" fill="black"/>
<path d="M19.9999 0C11.4006 0 4.06975 5.4275 1.2439 13.0435H38.756C35.9301 5.4275 28.5992 0 19.9999 0Z" fill="#0052B4"/>
<path d="M38.7559 26.9564H1.2439C4.06976 34.5724 11.4006 39.9999 19.9999 39.9999C28.5992 39.9999 35.9301 34.5724 38.7559 26.9564Z" fill="#F0F0F0"/>
</g>
<defs>
<clipPath id="clip0_3011_51950">
<rect width="40" height="40" fill="white"/>
</clipPath>
</defs>
</svg>
