<svg width="40" height="40" viewBox="0 0 40 40" fill="none" xmlns="http://www.w3.org/2000/svg">
<g clip-path="url(#clip0_3011_51949)">
<path d="M0 20.0001C0 22.4466 0.440078 24.7901 1.24406 26.9568L20 28.6957L38.7559 26.9567C39.56 24.7901 40 22.4466 40 20.0001C40 17.5872 39.5726 15.2741 38.7895 13.1325L20 11.3044L1.21047 13.1326C0.427422 15.2741 0 17.5872 0 20.0001H0Z" fill="#FFDA44"/>
<path d="M19.9999 40.0001C28.5992 40.0001 35.9301 34.5726 38.7559 26.9565H1.2439C4.06976 34.5726 11.4006 40.0001 19.9999 40.0001Z" fill="#D80027"/>
<path d="M19.9999 0C11.4006 0 4.06976 5.4275 1.2439 13.0435H38.756C35.9301 5.4275 28.5992 0 19.9999 0Z" fill="#6DA544"/>
<path d="M20.0001 29.5653C25.2828 29.5653 29.5653 25.2828 29.5653 20C29.5653 14.7173 25.2828 10.4348 20.0001 10.4348C14.7173 10.4348 10.4348 14.7173 10.4348 20C10.4348 25.2828 14.7173 29.5653 20.0001 29.5653Z" fill="#0052B4"/>
<path d="M19.998 12.5929L21.7247 17.9071H27.3214L22.7918 21.1916L24.5321 26.5216L19.998 23.2215L15.4708 26.5155L17.2041 21.1916L12.6787 17.9071H18.2713L19.998 12.5929Z" fill="#FFDA44"/>
<path d="M26.8846 21.3226L21.4068 19.5426L24.7922 14.8832L23.3853 13.8608L19.9998 18.5205L16.6145 13.8609L15.2075 14.8831L18.5928 19.5429L13.1152 21.3225L13.6526 22.9766L19.1304 21.1969V26.9564H20.8695V21.1968L26.347 22.9766L26.8846 21.3226Z" fill="#FFDA44"/>
</g>
<defs>
<clipPath id="clip0_3011_51949">
<rect width="40" height="40" fill="white"/>
</clipPath>
</defs>
</svg>
