<svg width="40" height="40" viewBox="0 0 40 40" fill="none" xmlns="http://www.w3.org/2000/svg">
<g clip-path="url(#clip0_3011_51948)">
<path d="M39.9998 20.0001C39.9998 31.0457 31.0454 40.0001 19.9998 40.0001C8.95413 40.0001 -0.000244141 31.0457 -0.000244141 20.0001C-0.000244141 20.0049 19.9998 0.00230957 19.9998 0.00012207C31.0454 0.00012207 39.9998 8.9545 39.9998 20.0001Z" fill="#338AF3"/>
<path d="M19.9999 9.56537V16.3109L13.0435 9.56537H19.9999Z" fill="#0052B4"/>
<path d="M10.4347 20.0002H16.3107L10.4347 12.1741L9.56519 18.261L10.4347 20.0002Z" fill="#0052B4"/>
<path d="M19.9463 20.0001H19.9998C19.9998 19.9821 19.9998 19.9646 19.9998 19.9466C19.982 19.9645 19.9642 19.9823 19.9463 20.0001Z" fill="#F0F0F0"/>
<path d="M19.9998 10.4348C19.9998 6.91569 19.9998 4.60983 19.9998 6.10352e-05H19.9964C8.95226 0.00193604 -0.000244141 8.95545 -0.000244141 20.0001H10.4345V14.1242L16.3105 20.0001H19.9464C19.9642 19.9822 19.982 19.9644 19.9999 19.9465C19.9999 18.5991 19.9999 17.3969 19.9999 16.3108L14.1238 10.4348H19.9998Z" fill="#F0F0F0"/>
<path d="M10.1183 2.6087C6.99028 4.38988 4.38981 6.99034 2.60864 10.1184V20H7.82606V7.82628V7.82613H20C20 6.18058 20 4.61292 20 2.6087H10.1183Z" fill="#D80027"/>
<path d="M20 17.5406L12.8943 10.4349H10.4348V10.435L19.9998 20H20C20 20 20 18.3042 20 17.5406Z" fill="#D80027"/>
<path d="M22.6086 13.0436V20C22.6086 24.6594 28.6956 26.087 28.6956 26.087C28.6956 26.087 34.7826 24.6594 34.7826 20V13.0436L28.6956 11.3044L22.6086 13.0436Z" fill="#F3F3F3"/>
<path d="M34.7826 13.0436V10.4349H22.6086V13.0436H27.8259V18.2611H22.6086V20.0001V20.0003L27.8259 20.0003V25.8204C28.3508 26.006 28.6956 26.0871 28.6956 26.0871C28.6956 26.0871 29.0403 26.0062 29.5651 25.8204V20.0003H34.7826V20.0001V18.261H29.5651V13.0435H34.7826V13.0436Z" fill="#D80027"/>
</g>
<defs>
<clipPath id="clip0_3011_51948">
<rect width="40" height="40" fill="white"/>
</clipPath>
</defs>
</svg>
