<svg width="40" height="40" viewBox="0 0 40 40" fill="none" xmlns="http://www.w3.org/2000/svg">
<g clip-path="url(#clip0_3011_51895)">
<path d="M20.0002 40.0001C31.0459 40.0001 40.0002 31.0458 40.0002 20.0001C40.0002 8.95443 31.0459 0.00012207 20.0002 0.00012207C8.95455 0.00012207 0.000244141 8.95443 0.000244141 20.0001C0.000244141 31.0458 8.95455 40.0001 20.0002 40.0001Z" fill="#338AF3"/>
<path d="M20.0003 8.69568L20.8636 11.3529H23.6576L21.3973 12.9951L22.2606 15.6522L20.0003 14.0101L17.7399 15.6522L18.6034 12.9951L16.343 11.3529H19.137L20.0003 8.69568Z" fill="#F0F0F0"/>
<path d="M8.69592 20.0003L11.3531 19.1368V16.3428L12.9954 18.6032L15.6525 17.7399L14.0103 20.0003L15.6525 22.2604L12.9954 21.397L11.3531 23.6574V20.8635L8.69592 20.0003Z" fill="#F0F0F0"/>
<path d="M20.0004 31.3045L19.1371 28.6473H16.343L18.6035 27.005L17.7401 24.3479L20.0004 25.9901L22.2607 24.3479L21.3972 27.005L23.6576 28.6473H20.8637L20.0004 31.3045Z" fill="#F0F0F0"/>
<path d="M31.3046 20L28.6474 20.8634V23.6574L27.0051 21.397L24.348 22.2604L25.9902 20L24.348 17.7398L27.0051 18.6032L28.6474 16.3428V19.1368L31.3046 20Z" fill="#F0F0F0"/>
</g>
<defs>
<clipPath id="clip0_3011_51895">
<rect width="40" height="40" fill="white"/>
</clipPath>
</defs>
</svg>
