<svg width="40" height="40" viewBox="0 0 40 40" fill="none" xmlns="http://www.w3.org/2000/svg">
<g clip-path="url(#clip0_3011_51946)">
<path d="M19.9998 40.0001C31.0455 40.0001 39.9998 31.0458 39.9998 20.0001C39.9998 8.95443 31.0455 0.00012207 19.9998 0.00012207C8.95406 0.00012207 -0.000244141 8.95443 -0.000244141 20.0001C-0.000244141 31.0458 8.95406 40.0001 19.9998 40.0001Z" fill="#F0F0F0"/>
<path d="M39.9998 20C39.9998 11.4007 34.5723 4.06988 26.9563 1.24402V38.7561C34.5723 35.9302 39.9998 28.5993 39.9998 20Z" fill="#D80027"/>
<path d="M0 20C0 28.5993 5.42758 35.9302 13.0435 38.7561V1.24402C5.42758 4.06988 0 11.4007 0 20Z" fill="#0052B4"/>
</g>
<defs>
<clipPath id="clip0_3011_51946">
<rect width="40" height="40" fill="white"/>
</clipPath>
</defs>
</svg>
