<svg width="40" height="40" viewBox="0 0 40 40" fill="none" xmlns="http://www.w3.org/2000/svg">
<g clip-path="url(#clip0_3011_51945)">
<path d="M38.756 26.9566C39.56 24.79 40 22.4465 40 20.0001C40 17.5537 39.56 15.2103 38.756 13.0436L20 11.3044L1.24398 13.0436C0.440078 15.2103 0 17.5537 0 20.0001C0 22.4465 0.440078 24.79 1.24398 26.9566L20 28.6957L38.756 26.9566Z" fill="#FFDA44"/>
<path d="M20 40C28.5992 40 35.9301 34.5725 38.7559 26.9565H1.2439C4.06983 34.5725 11.4006 40 20 40Z" fill="#0052B4"/>
<path d="M20 6.10352e-05C11.4006 6.10352e-05 4.06983 5.42756 1.2439 13.0436H38.756C35.9302 5.42756 28.5992 6.10352e-05 20 6.10352e-05Z" fill="#6DA544"/>
</g>
<defs>
<clipPath id="clip0_3011_51945">
<rect width="40" height="40" fill="white"/>
</clipPath>
</defs>
</svg>
