<svg width="40" height="40" viewBox="0 0 40 40" fill="none" xmlns="http://www.w3.org/2000/svg">
<g clip-path="url(#clip0_3011_51943)">
<path d="M19.9998 40.0001C31.0454 40.0001 39.9998 31.0458 39.9998 20.0001C39.9998 8.95443 31.0454 0.00012207 19.9998 0.00012207C8.95406 0.00012207 -0.000244141 8.95443 -0.000244141 20.0001C-0.000244141 31.0458 8.95406 40.0001 19.9998 40.0001Z" fill="#F0F0F0"/>
<path d="M39.8307 17.3914H22.6088H22.6087V0.169358C21.7548 0.058186 20.8841 6.10352e-05 20 6.10352e-05C19.1159 6.10352e-05 18.2452 0.058186 17.3913 0.169358V17.3912V17.3913H0.169297C0.058125 18.2453 0 19.1159 0 20.0001C0 20.8844 0.058125 21.7548 0.169297 22.6087H17.3912H17.3913V39.8308C18.2452 39.9419 19.1159 40.0001 20 40.0001C20.8841 40.0001 21.7548 39.942 22.6087 39.8308V22.6089V22.6088H39.8307C39.9419 21.7548 40 20.8844 40 20.0001C40 19.1159 39.9419 18.2453 39.8307 17.3914Z" fill="#D80027"/>
<path d="M12.1737 9.56535V6.9566H9.56505V9.56535H6.9563V12.174H9.56505V14.7827H12.1737V12.174H14.7824V9.56535H12.1737Z" fill="#D80027"/>
<path d="M30.4346 9.56535V6.9566H27.826V9.56535H25.2173V12.174H27.826V14.7827H30.4346V12.174H33.0434V9.56535H30.4346Z" fill="#D80027"/>
<path d="M12.1737 27.8262V25.2175H9.56505V27.8262H6.9563V30.4349H9.56505V33.0436H12.1737V30.4349H14.7824V27.8262H12.1737Z" fill="#D80027"/>
<path d="M30.4346 27.8262V25.2175H27.826V27.8262H25.2173V30.4349H27.826V33.0436H30.4346V30.4349H33.0434V27.8262H30.4346Z" fill="#D80027"/>
</g>
<defs>
<clipPath id="clip0_3011_51943">
<rect width="40" height="40" fill="white"/>
</clipPath>
</defs>
</svg>
