<svg width="40" height="40" viewBox="0 0 40 40" fill="none" xmlns="http://www.w3.org/2000/svg">
<g clip-path="url(#clip0_3011_51941)">
<path d="M0 19.9999C0 22.4463 0.440078 24.7898 1.24398 26.9564L20 27.826L38.756 26.9565C39.56 24.7898 40 22.4463 40 19.9999C40 17.5535 39.56 15.2101 38.756 13.0434L20 12.1738L1.24398 13.0434C0.440078 15.2101 0 17.5535 0 19.9999H0Z" fill="#FFDA44"/>
<path d="M19.9999 0C11.4006 0 4.06976 5.4275 1.2439 13.0435H38.756C35.9301 5.4275 28.5992 0 19.9999 0Z" fill="#D80027"/>
<path d="M38.7559 26.9564H1.2439C4.06976 34.5724 11.4006 39.9999 19.9999 39.9999C28.5992 39.9999 35.9301 34.5724 38.7559 26.9564Z" fill="#496E2D"/>
<path d="M19.9999 13.0435L21.7265 18.3575H27.3146L22.7941 21.6421L24.5206 26.9564L19.9999 23.672L15.4792 26.9564L17.2061 21.6421L12.6855 18.3575H18.2734L19.9999 13.0435Z" fill="black"/>
</g>
<defs>
<clipPath id="clip0_3011_51941">
<rect width="40" height="40" fill="white"/>
</clipPath>
</defs>
</svg>
