<svg width="40" height="40" viewBox="0 0 40 40" fill="none" xmlns="http://www.w3.org/2000/svg">
<g clip-path="url(#clip0_3011_51937)">
<path d="M26.9567 1.24406C24.79 0.440078 22.4465 0 20 0C17.5537 0 15.2102 0.440078 13.0437 1.24391L12.1741 20L13.0436 38.7561C15.2102 39.56 17.5537 40 20 40C22.4466 40 24.79 39.56 26.9567 38.7559L27.8263 20L26.9567 1.24406Z" fill="#FFDA44"/>
<path d="M0 19.9999C0 28.5991 5.4275 35.93 13.0435 38.7558V1.24377C5.4275 4.06971 0 11.4005 0 19.9999Z" fill="#D80027"/>
<path d="M40.0001 19.9999C40.0001 11.4005 34.5726 4.06971 26.9565 1.24377V38.7559C34.5726 35.93 40.0001 28.5991 40.0001 19.9999Z" fill="#6DA544"/>
</g>
<defs>
<clipPath id="clip0_3011_51937">
<rect width="40" height="40" fill="white"/>
</clipPath>
</defs>
</svg>
