<svg width="40" height="40" viewBox="0 0 40 40" fill="none" xmlns="http://www.w3.org/2000/svg">
<g clip-path="url(#clip0_3011_51944)">
<path d="M20 40C31.0457 40 40 31.0457 40 20C40 8.9543 31.0457 0 20 0C8.9543 0 0 8.9543 0 20C0 31.0457 8.9543 40 20 40Z" fill="#F0F0F0"/>
<path d="M19.9999 0C11.7316 0 4.63561 5.01766 1.5896 12.1739H38.4103C35.3643 5.01766 28.2683 0 19.9999 0Z" fill="#A2001D"/>
<path d="M19.9999 40C28.2683 40 35.3643 34.9823 38.4102 27.826H1.5896C4.63561 34.9823 11.7315 40 19.9999 40Z" fill="#496E2D"/>
<path d="M39.311 14.7826H0.688984C0.240625 16.4461 0 18.1948 0 20C0 21.8052 0.240625 23.5539 0.688984 25.2174H39.3111C39.7594 23.5539 40 21.8052 40 20C40 18.1948 39.7594 16.4461 39.311 14.7826Z" fill="#0052B4"/>
</g>
<defs>
<clipPath id="clip0_3011_51944">
<rect width="40" height="40" fill="white"/>
</clipPath>
</defs>
</svg>
