<svg width="40" height="40" viewBox="0 0 40 40" fill="none" xmlns="http://www.w3.org/2000/svg">
<g clip-path="url(#clip0_3011_51952)">
<path d="M20.0005 39.9999C31.0462 39.9999 40.0005 31.0456 40.0005 19.9999C40.0005 8.95418 31.0462 -0.00012207 20.0005 -0.00012207C8.95479 -0.00012207 0.000488281 8.95418 0.000488281 19.9999C0.000488281 31.0456 8.95479 39.9999 20.0005 39.9999Z" fill="#F0F0F0"/>
<path d="M12.174 13.0435H38.7561C35.9303 5.42744 28.5993 -6.10352e-05 20.0001 -6.10352e-05C14.4772 -6.10352e-05 9.47771 2.23892 5.85864 5.85845L12.174 13.0435Z" fill="#6DA544"/>
<path d="M12.174 26.9564H38.7561C35.9303 34.5724 28.5993 39.9999 20.0001 39.9999C14.4772 39.9999 9.47771 37.761 5.85864 34.1414L12.174 26.9564Z" fill="#D80027"/>
<path d="M5.85785 5.85779C-1.95262 13.6683 -1.95262 26.3316 5.85785 34.1422C9.08543 30.9146 12.1896 27.8104 20 20L5.85785 5.85779Z" fill="#0052B4"/>
<path d="M23.4783 16.5217V20.8695C23.4783 23.532 26.9566 24.3478 26.9566 24.3478C26.9566 24.3478 30.4348 23.532 30.4348 20.8695V16.5217H23.4783Z" fill="#DEDDE0"/>
<path d="M26.0869 20.0869H27.8261V22.6086H26.0869V20.0869Z" fill="#786145"/>
<path d="M28.6957 19.1304C28.6957 18.1698 27.9171 17.3912 26.9566 17.3912C25.996 17.3912 25.2174 18.1698 25.2174 19.1304C24.7372 19.1304 24.3479 19.5197 24.3479 19.9999C24.3479 20.4801 24.7372 20.8694 25.2174 20.8694H28.6957C29.1759 20.8694 29.5652 20.4801 29.5652 19.9999C29.5652 19.5197 29.176 19.1304 28.6957 19.1304Z" fill="#6DA544"/>
</g>
<defs>
<clipPath id="clip0_3011_51952">
<rect width="40" height="40" fill="white"/>
</clipPath>
</defs>
</svg>
