<svg width="40" height="40" viewBox="0 0 40 40" fill="none" xmlns="http://www.w3.org/2000/svg">
<g clip-path="url(#clip0_3011_51940)">
<path d="M20 39.9999C31.0457 39.9999 40 31.0456 40 19.9999C40 8.95418 31.0457 -0.00012207 20 -0.00012207C8.9543 -0.00012207 0 8.95418 0 19.9999C0 31.0456 8.9543 39.9999 20 39.9999Z" fill="#F0F0F0"/>
<path d="M20 14.7825H39.311C38.8095 12.922 38.0473 11.1688 37.0645 9.56506H20V14.7825Z" fill="#338AF3"/>
<path d="M7.55007 35.6522H32.4495C34.2747 34.1985 35.8401 32.4327 37.0643 30.4348H2.9353C4.1596 32.4326 5.72491 34.1985 7.55007 35.6522Z" fill="#338AF3"/>
<path d="M6.95632 4.83899C5.38397 6.19297 4.02468 7.78743 2.9353 9.56524H6.95632V4.83899Z" fill="#338AF3"/>
<path d="M19.9998 20C19.9998 17.9628 19.9998 16.2579 19.9998 14.7826H12.1737V20H6.95624V14.7826H0.68874C0.240381 16.4462 -0.000244141 18.1948 -0.000244141 20C-0.000244141 21.8053 0.240381 23.5538 0.68874 25.2174H39.3109C39.7591 23.5538 39.9998 21.8053 39.9998 20H19.9998Z" fill="#338AF3"/>
<path d="M19.9999 0C17.2227 0 14.5777 0.566641 12.1738 1.58969V9.56523H19.9999C19.9999 7.74398 19.9999 6.195 19.9999 4.34781H32.4497C29.0332 1.62688 24.7069 0 19.9999 0Z" fill="#338AF3"/>
</g>
<defs>
<clipPath id="clip0_3011_51940">
<rect width="40" height="40" fill="white"/>
</clipPath>
</defs>
</svg>
