<svg width="40" height="40" viewBox="0 0 40 40" fill="none" xmlns="http://www.w3.org/2000/svg">
<g clip-path="url(#clip0_3011_51939)">
<path d="M20.0005 39.9999C31.0462 39.9999 40.0005 31.0456 40.0005 19.9999C40.0005 8.95418 31.0462 -0.00012207 20.0005 -0.00012207C8.95479 -0.00012207 0.000488281 8.95418 0.000488281 19.9999C0.000488281 31.0456 8.95479 39.9999 20.0005 39.9999Z" fill="#FFDA44"/>
<path d="M8.72754 3.47828C11.9373 1.28406 15.8184 0 20 0C24.1815 0 28.0626 1.28406 31.2724 3.47828L20 4.34781L8.72754 3.47828Z" fill="#A2001D"/>
<path d="M20.0001 19.9999L18.7237 18.7235L18.3848 19.3306L20.0001 19.9999Z" fill="#0052B4"/>
<path d="M5.85785 5.85779C-1.95262 13.6683 -1.95262 26.3316 5.85785 34.1422C9.08543 30.9146 12.1896 27.8104 20 20L5.85785 5.85779Z" fill="#496E2D"/>
<path d="M34.1422 5.85779C41.9527 13.6683 41.9527 26.3316 34.1422 34.1422C30.9146 30.9146 27.8105 27.8104 20 20L34.1422 5.85779Z" fill="#496E2D"/>
<path d="M19.9999 26.9564C23.8419 26.9564 26.9564 23.8419 26.9564 19.9999C26.9564 16.158 23.8419 13.0435 19.9999 13.0435C16.158 13.0435 13.0435 16.158 13.0435 19.9999C13.0435 23.8419 16.158 26.9564 19.9999 26.9564Z" fill="#A2001D"/>
<path d="M19.9999 13.0433L21.5592 17.8425H26.6059L22.5233 20.8091L24.0826 25.6085L19.9999 22.6424L15.9171 25.6085L17.4767 20.8091L13.394 17.8425H18.4405L19.9999 13.0433Z" fill="#FFDA44"/>
<path d="M20.0067 -0.00012207H19.9933C14.4736 0.0016748 9.47662 2.23941 5.85889 5.85675H34.1412C30.5233 2.23941 25.5264 0.0016748 20.0067 -0.00012207Z" fill="#A2001D"/>
<path d="M5.85889 34.1431C9.4781 37.7617 14.4776 39.9999 19.9999 39.9999C25.5222 39.9999 30.5217 37.7617 34.1409 34.1431H5.85889Z" fill="#A2001D"/>
<path d="M19.9999 2.17395L20.3237 3.17036H21.3714L20.5238 3.78622L20.8476 4.78262L19.9999 4.16684L19.1523 4.78262L19.4762 3.78622L18.6284 3.17036H19.6761L19.9999 2.17395Z" fill="#FFDA44"/>
<path d="M15.1503 2.17395L15.4741 3.17036H16.5218L15.6742 3.78622L15.998 4.78262L15.1503 4.16684L14.3028 4.78262L14.6265 3.78622L13.7788 3.17036H14.8265L15.1503 2.17395Z" fill="#FFDA44"/>
<path d="M24.8498 2.17395L25.1736 3.17036H26.2212L25.3737 3.78622L25.6975 4.78262L24.8498 4.16684L24.0022 4.78262L24.326 3.78622L23.4783 3.17036H24.5259L24.8498 2.17395Z" fill="#FFDA44"/>
<path d="M19.9999 35.2174L20.3237 36.2138H21.3714L20.5238 36.8297L20.8476 37.8261L19.9999 37.2102L19.1523 37.8261L19.4762 36.8297L18.6284 36.2138H19.6761L19.9999 35.2174Z" fill="#FFDA44"/>
<path d="M15.1503 35.2174L15.4741 36.2138H16.5218L15.6742 36.8297L15.998 37.8261L15.1503 37.2102L14.3028 37.8261L14.6265 36.8297L13.7788 36.2138H14.8265L15.1503 35.2174Z" fill="#FFDA44"/>
<path d="M24.8498 35.2174L25.1736 36.2138H26.2212L25.3737 36.8297L25.6975 37.8261L24.8498 37.2102L24.0022 37.8261L24.326 36.8297L23.4783 36.2138H24.5259L24.8498 35.2174Z" fill="#FFDA44"/>
<path d="M6.09398 19.6696C6.60766 20.4813 6.36625 21.5556 5.55461 22.0693C4.74305 22.5831 3.66867 22.3417 3.15492 21.53C2.22484 20.0607 2.76414 17.6609 2.76414 17.6609C2.76414 17.6609 5.16383 18.2002 6.09398 19.6696Z" fill="#FFDA44"/>
<path d="M5.0895 22.2043C5.56973 22.2043 5.95903 21.815 5.95903 21.3347C5.95903 20.8545 5.56973 20.4652 5.0895 20.4652C4.60927 20.4652 4.21997 20.8545 4.21997 21.3347C4.21997 21.815 4.60927 22.2043 5.0895 22.2043Z" fill="#A2001D"/>
</g>
<defs>
<clipPath id="clip0_3011_51939">
<rect width="40" height="40" fill="white"/>
</clipPath>
</defs>
</svg>
