<svg width="40" height="40" viewBox="0 0 40 40" fill="none" xmlns="http://www.w3.org/2000/svg">
<g clip-path="url(#clip0_3011_51938)">
<path d="M19.9998 40C31.0454 40 39.9998 31.0457 39.9998 20C39.9998 8.9543 31.0454 0 19.9998 0C8.95406 0 -0.000244141 8.9543 -0.000244141 20C-0.000244141 31.0457 8.95406 40 19.9998 40Z" fill="#F0F0F0"/>
<path d="M39.9999 19.9998C39.9999 12.0706 35.3855 5.21938 28.6956 1.98438V38.0152C35.3855 34.7803 39.9999 27.929 39.9999 19.9998Z" fill="#338AF3"/>
<path d="M0 19.9998C0 27.929 4.61445 34.7803 11.3044 38.0153V1.98438C4.61445 5.21937 0 12.0706 0 19.9998Z" fill="#338AF3"/>
<path d="M25.2263 23.3818L21.8446 20.0001L25.0636 16.7809L24.9177 15.0808L23.9962 14.1591L19.9999 18.1553L16.0037 14.1591L15.0821 15.0808L14.9362 16.7809L18.1552 20.0001L14.7734 23.3818L16.6181 25.2263L19.9999 21.8447L23.3817 25.2263L25.2263 23.3818Z" fill="#ACABB1"/>
<path d="M24.9189 15.0811L23.0743 16.9257C23.8611 17.7125 24.3478 18.7994 24.3478 20C24.3478 22.4013 22.4012 24.3479 20 24.3479C17.5988 24.3479 15.6521 22.4013 15.6521 20C15.6521 18.7994 16.1388 17.7125 16.9256 16.9257L15.081 15.0811C13.8221 16.3398 13.0435 18.0789 13.0435 20C13.0435 23.8421 16.158 26.9565 19.9999 26.9565C23.8419 26.9565 26.9564 23.842 26.9564 20C26.9564 18.079 26.1778 16.3399 24.9189 15.0811Z" fill="#6DA544"/>
</g>
<defs>
<clipPath id="clip0_3011_51938">
<rect width="40" height="40" fill="white"/>
</clipPath>
</defs>
</svg>
