<svg width="40" height="40" viewBox="0 0 40 40" fill="none" xmlns="http://www.w3.org/2000/svg">
<g clip-path="url(#clip0_3011_51936)">
<path d="M19.9999 0C18.1948 0 16.446 0.240625 14.7825 0.688984L13.0435 20L14.7826 39.311C16.446 39.7594 18.1948 40 19.9999 40C31.0456 40 39.9999 31.0456 39.9999 20C39.9999 8.95437 31.0456 0 19.9999 0Z" fill="#FFDA44"/>
<path d="M13.0435 20L14.7826 39.311C16.446 39.7594 18.1948 40 19.9999 40C31.0456 40 39.9999 31.0456 39.9999 20H13.0435Z" fill="#6DA544"/>
<path d="M0 20C0 27.5808 4.21797 34.1761 10.4348 37.5682V2.43176C4.21797 5.82379 0 12.4191 0 20Z" fill="#D80027"/>
<path d="M0 20C0 29.2405 6.26727 37.016 14.7826 39.311V0.688965C6.26727 2.98396 0 10.7594 0 20Z" fill="#D80027"/>
<path d="M7.55739 14.7826L8.85231 18.7682H13.0434L9.65294 21.2317L10.9478 25.2174L7.55739 22.7541L4.16685 25.2174L5.462 21.2317L2.07153 18.7682H6.26239L7.55739 14.7826Z" fill="black"/>
</g>
<defs>
<clipPath id="clip0_3011_51936">
<rect width="40" height="40" fill="white"/>
</clipPath>
</defs>
</svg>
