<svg width="40" height="40" viewBox="0 0 40 40" fill="none" xmlns="http://www.w3.org/2000/svg">
<g clip-path="url(#clip0_3011_51935)">
<path d="M20 39.9999C31.0457 39.9999 40 31.0456 40 19.9999C40 8.95418 31.0457 -0.00012207 20 -0.00012207C8.9543 -0.00012207 0 8.95418 0 19.9999C0 31.0456 8.9543 39.9999 20 39.9999Z" fill="#F0F0F0"/>
<path d="M19.9999 -0.00012207C16.4639 -0.00012207 13.1429 0.918784 10.2607 2.52894V37.4708C13.143 39.081 16.4639 39.9999 19.9999 39.9999C31.0455 39.9999 39.9999 31.0455 39.9999 19.9999C39.9999 8.95425 31.0455 -0.00012207 19.9999 -0.00012207Z" fill="#6DA544"/>
<path d="M10.3197 2.49609C9.06151 3.19336 7.88667 4.02211 6.81331 4.9643C6.92183 4.86914 7.03144 4.77508 7.1419 4.68227L22.4595 19.9999L7.14183 35.3176C7.03128 35.2248 6.92175 35.1307 6.81323 35.0355C7.88659 35.9777 9.06151 36.8064 10.3196 37.5037L40 19.9999L10.3197 2.49609Z" fill="#F0F0F0"/>
<path d="M8.63045 3.54541C8.02053 3.96775 7.43475 4.42221 6.87654 4.90791L20 19.9999L6.87646 35.092C7.43467 35.5777 8.02045 36.0322 8.63037 36.4545L36.5764 19.9999L8.63045 3.54541Z" fill="#FFDA44"/>
<path d="M7.14189 4.68237C6.69728 5.05597 6.26822 5.44761 5.85791 5.85784L18.261 20L5.85791 34.1422C6.26822 34.5525 6.69721 34.9442 7.14189 35.3177L22.4595 20L7.14189 4.68237Z" fill="black"/>
<path d="M5.85785 5.85779C-1.95262 13.6683 -1.95262 26.3316 5.85785 34.1422C9.08543 30.9146 12.1896 27.8104 20 20L5.85785 5.85779Z" fill="#D80027"/>
</g>
<defs>
<clipPath id="clip0_3011_51935">
<rect width="40" height="40" fill="white"/>
</clipPath>
</defs>
</svg>
