<svg width="40" height="40" viewBox="0 0 40 40" fill="none" xmlns="http://www.w3.org/2000/svg">
<g clip-path="url(#clip0_3011_51933)">
<path d="M20 39.9999C31.0457 39.9999 40 31.0456 40 19.9999C40 8.95424 31.0457 -6.10352e-05 20 -6.10352e-05C8.95431 -6.10352e-05 0 8.95424 0 19.9999C0 31.0456 8.95431 39.9999 20 39.9999Z" fill="#F0F0F0"/>
<path d="M19.9998 39.9999C27.929 39.9999 34.7803 35.3854 38.0153 28.6955H1.98438C5.21937 35.3854 12.0706 39.9999 19.9998 39.9999Z" fill="#338AF3"/>
<path d="M19.9998 -0.000183105C12.0706 -0.000183105 5.21937 4.61427 1.98438 11.3042H38.0152C34.7803 4.61427 27.929 -0.000183105 19.9998 -0.000183105Z" fill="#338AF3"/>
<path d="M12.3082 13.0433L12.9557 15.0362H15.051L13.3559 16.2677L14.0035 18.2606L12.3082 17.029L10.6128 18.2606L11.2604 16.2677L9.56519 15.0362H11.6606L12.3082 13.0433Z" fill="#338AF3"/>
<path d="M12.3082 21.739L12.9557 23.7319H15.051L13.3559 24.9635L14.0035 26.9563L12.3082 25.7247L10.6128 26.9563L11.2604 24.9635L9.56519 23.7319H11.6606L12.3082 21.739Z" fill="#338AF3"/>
<path d="M27.6917 13.0433L28.3393 15.0362H30.4347L28.7394 16.2677L29.387 18.2606L27.6917 17.029L25.9964 18.2606L26.644 16.2677L24.9487 15.0362H27.0442L27.6917 13.0433Z" fill="#338AF3"/>
<path d="M27.6917 21.739L28.3393 23.7319H30.4347L28.7394 24.9635L29.387 26.9563L27.6917 25.7247L25.9964 26.9563L26.644 24.9635L24.9487 23.7319H27.0442L27.6917 21.739Z" fill="#338AF3"/>
<path d="M19.9998 17.3911L20.6474 19.3841H22.7428L21.0475 20.6156L21.6951 22.6085L19.9998 21.3768L18.3045 22.6085L18.9521 20.6156L17.2568 19.3841H19.3522L19.9998 17.3911Z" fill="#338AF3"/>
</g>
<defs>
<clipPath id="clip0_3011_51933">
<rect width="40" height="40" fill="white"/>
</clipPath>
</defs>
</svg>
