<svg width="40" height="40" viewBox="0 0 40 40" fill="none" xmlns="http://www.w3.org/2000/svg">
<g clip-path="url(#clip0_3011_51932)">
<path d="M1.24398 13.0435C0.440078 15.2102 0 17.5535 0 19.9999C0 22.4464 0.440078 24.7899 1.24398 26.9564L20 28.6956L38.756 26.9564C39.5599 24.7899 40 22.4464 40 19.9999C40 17.5535 39.5599 15.2102 38.756 13.0435L20 11.3043L1.24398 13.0435Z" fill="#F0F0F0"/>
<path d="M20.0001 -6.10352e-05C11.4009 -6.10352e-05 4.06992 5.42744 1.24414 13.0435H38.7562C35.9302 5.42744 28.5994 -6.10352e-05 20.0001 -6.10352e-05Z" fill="#D80027"/>
<path d="M20.0001 39.9999C28.5994 39.9999 35.9302 34.5724 38.7562 26.9564H1.24414C4.06992 34.5724 11.4009 39.9999 20.0001 39.9999Z" fill="#6DA544"/>
</g>
<defs>
<clipPath id="clip0_3011_51932">
<rect width="40" height="40" fill="white"/>
</clipPath>
</defs>
</svg>
