<svg width="40" height="40" viewBox="0 0 40 40" fill="none" xmlns="http://www.w3.org/2000/svg">
<g clip-path="url(#clip0_3011_51928)">
<path d="M20.0001 40.0001C31.0458 40.0001 40.0001 31.0458 40.0001 20.0001C40.0001 8.95443 31.0458 0.00012207 20.0001 0.00012207C8.95443 0.00012207 0.00012207 8.95443 0.00012207 20.0001C0.00012207 31.0458 8.95443 40.0001 20.0001 40.0001Z" fill="#F0F0F0"/>
<path d="M26.496 14.7826H23.8793C23.9009 15.0702 23.9132 15.3603 23.9132 15.6521C23.9132 17.5868 23.4296 19.4621 22.5865 20.7969C22.3265 21.2086 21.8894 21.79 21.3044 22.1822V14.7825H18.6958V22.1822C18.1108 21.79 17.6737 21.2087 17.4137 20.7969C16.5705 19.4621 16.087 17.5868 16.087 15.6521C16.087 15.3603 16.0994 15.0701 16.1209 14.7826H13.5042C13.4874 15.0688 13.4783 15.3586 13.4783 15.6521C13.4783 21.0159 16.343 25.2174 20 25.2174C23.657 25.2174 26.5217 21.0159 26.5217 15.6521C26.5219 15.3586 26.5127 15.0688 26.496 14.7826Z" fill="#D80027"/>
<path d="M8.26095 9.5653H10.8696V11.3044H13.4783V9.5653H16.087V11.3044H18.6956V9.5653H21.3043V11.3044H23.913V9.5653H26.5217V11.3044H29.1303V9.5653H31.739V11.3044H38.0153C34.7806 4.61451 27.9292 6.10352e-05 20.0001 6.10352e-05C12.0709 6.10352e-05 5.21962 4.61451 1.98462 11.3044H8.26095V9.5653Z" fill="#6DA544"/>
<path d="M31.7392 28.6957V30.4349H29.1306V28.6957H26.5219V30.4349H23.9132V28.6957H21.3045V30.4349H18.6959V28.6957H16.0872V30.4349H13.4785V28.6957H10.8696V30.4349H8.26095V28.6957H1.98462C5.21962 35.3857 12.0709 40.0001 20.0001 40.0001C27.9293 40.0001 34.7806 35.3857 38.0156 28.6957H31.7392Z" fill="#D80027"/>
</g>
<defs>
<clipPath id="clip0_3011_51928">
<rect width="40" height="40" fill="white"/>
</clipPath>
</defs>
</svg>
