<svg width="40" height="40" viewBox="0 0 40 40" fill="none" xmlns="http://www.w3.org/2000/svg">
<g clip-path="url(#clip0_3011_51922)">
<path d="M19.9999 39.9999C31.0456 39.9999 39.9999 31.0456 39.9999 19.9999C39.9999 8.95424 31.0456 -6.10352e-05 19.9999 -6.10352e-05C8.95418 -6.10352e-05 -0.00012207 8.95424 -0.00012207 19.9999C-0.00012207 31.0456 8.95418 39.9999 19.9999 39.9999Z" fill="#FFDA44"/>
<path d="M32.1762 4.13437C28.8038 1.54211 24.5823 0 19.9999 0C15.4176 0 11.196 1.54219 7.82361 4.13437L19.9999 16.3106L32.1762 4.13437Z" fill="#6DA544"/>
<path d="M4.1343 7.82379C1.54219 11.1962 0 15.4177 0 20C0 24.5824 1.54219 28.8039 4.13438 32.1764L16.3107 20L4.1343 7.82379Z" fill="black"/>
<path d="M7.82361 35.8657C11.1961 38.458 15.4176 40.0001 19.9999 40.0001C24.5823 40.0001 28.8038 38.4579 32.1763 35.8657L19.9999 23.6895L7.82361 35.8657Z" fill="#6DA544"/>
<path d="M35.8656 32.1763C38.4578 28.8039 40 24.5824 40 20C40 15.4177 38.4578 11.1962 35.8656 7.82379L23.6893 20L35.8656 32.1763Z" fill="black"/>
</g>
<defs>
<clipPath id="clip0_3011_51922">
<rect width="40" height="40" fill="white"/>
</clipPath>
</defs>
</svg>
