<svg width="40" height="40" viewBox="0 0 40 40" fill="none" xmlns="http://www.w3.org/2000/svg">
<g clip-path="url(#clip0_3011_51920)">
<path d="M20.0001 39.9999C31.0458 39.9999 40.0001 31.0456 40.0001 19.9999C40.0001 8.95418 31.0458 -0.00012207 20.0001 -0.00012207C8.95443 -0.00012207 0.00012207 8.95418 0.00012207 19.9999C0.00012207 31.0456 8.95443 39.9999 20.0001 39.9999Z" fill="#F0F0F0"/>
<path d="M12.1739 13.0435H38.756C35.9302 5.42744 28.5992 -6.10352e-05 20 -6.10352e-05C14.477 -6.10352e-05 9.47758 2.23892 5.85852 5.85845L12.1739 13.0435Z" fill="black"/>
<path d="M12.1739 26.9564H38.756C35.9302 34.5724 28.5992 39.9999 20 39.9999C14.477 39.9999 9.47758 37.761 5.85852 34.1414L12.1739 26.9564Z" fill="#6DA544"/>
<path d="M5.85785 5.85779C-1.95262 13.6683 -1.95262 26.3316 5.85785 34.1422C9.08543 30.9146 12.1896 27.8104 20 20L5.85785 5.85779Z" fill="#D80027"/>
<path d="M7.93801 15.6522L9.03558 17.9474L11.5144 17.3745L10.4043 19.6636L12.3976 21.2444L9.91582 21.8037L9.92269 24.3478L7.93801 22.7561L5.95324 24.3478L5.96019 21.8037L3.47839 21.2444L5.47168 19.6636L4.36168 17.3745L6.84035 17.9474L7.93801 15.6522Z" fill="#F0F0F0"/>
</g>
<defs>
<clipPath id="clip0_3011_51920">
<rect width="40" height="40" fill="white"/>
</clipPath>
</defs>
</svg>
