<svg width="40" height="40" viewBox="0 0 40 40" fill="none" xmlns="http://www.w3.org/2000/svg">
<g clip-path="url(#clip0_3011_51915)">
<path d="M20 39.9999C31.0457 39.9999 40 31.0456 40 19.9999C40 8.95418 31.0457 -0.00012207 20 -0.00012207C8.95431 -0.00012207 0 8.95418 0 19.9999C0 31.0456 8.95431 39.9999 20 39.9999Z" fill="#D80027"/>
<path d="M29.781 19.9998L25.7845 21.8797L27.9127 25.7505L23.5727 24.9201L23.023 29.3042L19.9999 26.08L16.9771 29.3042L16.4272 24.9201L12.0875 25.7504L14.2156 21.8795L10.219 19.9998L14.2156 18.12L12.0875 14.2491L16.427 15.0796L16.9773 10.6954L19.9999 13.9197L23.0231 10.6954L23.5727 15.0796L27.9129 14.2491L25.7846 18.1203L29.781 19.9998Z" fill="#FFDA44"/>
<path d="M20 26.0867C23.3618 26.0867 26.087 23.3615 26.087 19.9998C26.087 16.6381 23.3618 13.9128 20 13.9128C16.6383 13.9128 13.9131 16.6381 13.9131 19.9998C13.9131 23.3615 16.6383 26.0867 20 26.0867Z" fill="#D80027"/>
<path d="M16.9565 20C16.8099 20 16.6651 20.0075 16.5222 20.0217C16.5275 20.8648 16.8325 21.6364 17.3362 22.2359C17.605 21.5127 18.0062 20.8532 18.5122 20.2888C18.0289 20.103 17.5046 20 16.9565 20Z" fill="#FFDA44"/>
<path d="M18.8301 23.2759C19.1957 23.4065 19.5894 23.4782 20 23.4782C20.4106 23.4782 20.8043 23.4065 21.1699 23.2759C20.9706 22.4937 20.5591 21.7955 20 21.2467C19.4409 21.7954 19.0294 22.4937 18.8301 23.2759Z" fill="#FFDA44"/>
<path d="M23.0121 18.2613C22.4107 17.2218 21.2875 16.5216 20 16.5216C18.7125 16.5216 17.5893 17.2217 16.9879 18.2613C18.0843 18.2668 19.1124 18.565 20 19.0797C20.8876 18.565 21.9156 18.2668 23.0121 18.2613Z" fill="#FFDA44"/>
<path d="M21.4877 20.2888C21.9937 20.8531 22.3949 21.5126 22.6637 22.2359C23.1674 21.6364 23.4724 20.8648 23.4777 20.0217C23.3347 20.0074 23.1899 20 23.0434 20C22.4954 19.9999 21.9711 20.1029 21.4877 20.2888Z" fill="#FFDA44"/>
</g>
<defs>
<clipPath id="clip0_3011_51915">
<rect width="40" height="40" fill="white"/>
</clipPath>
</defs>
</svg>
