<svg width="40" height="40" viewBox="0 0 40 40" fill="none" xmlns="http://www.w3.org/2000/svg">
<g clip-path="url(#clip0_3011_51917)">
<path d="M0 19.9999C0 8.95431 8.95437 -6.10352e-05 20 -6.10352e-05C31.0456 -6.10352e-05 40 8.95431 40 19.9999" fill="#D80027"/>
<path d="M26.9564 18.5996L24.1138 19.9365L25.6276 22.6896L22.541 22.099L22.1499 25.2172L19.9999 22.9238L17.8499 25.2172L17.4589 22.099L14.3723 22.6894L15.886 19.9365L13.0435 18.5996L15.886 17.2624L14.3723 14.5097L17.4588 15.1L17.85 11.982L19.9999 14.2752L22.1499 11.982L22.541 15.1L25.6277 14.5097L24.1141 17.2626L26.9564 18.5996Z" fill="#FFDA44"/>
<path d="M25.2174 6.52154H21.3044C21.3044 5.8013 20.7203 5.21716 20 5.21716C19.2797 5.21716 18.6956 5.80123 18.6956 6.52154H14.7826C14.7826 7.24185 15.4101 7.82591 16.1304 7.82591H16.0869C16.0869 8.54622 16.6708 9.13029 17.3913 9.13029C17.3913 9.8506 17.9752 10.4347 18.6956 10.4347H21.3043C22.0246 10.4347 22.6087 9.85068 22.6087 9.13029C23.3289 9.13029 23.9131 8.5463 23.9131 7.82591H23.8696C24.5899 7.82591 25.2174 7.24193 25.2174 6.52154Z" fill="#FFDA44"/>
<path d="M40 19.9999C40 31.0456 31.0456 39.9999 20 39.9999C8.95437 39.9999 0 31.0456 0 19.9999H40Z" fill="#F0F0F0"/>
<path d="M20 39.9998C26.2517 39.9998 31.8325 37.1308 35.5002 32.6383C34.8405 32.1885 34.4843 31.4615 33.3331 31.4615C31.6664 31.4615 31.6664 32.9854 29.9999 32.9854C28.3333 32.9854 28.3332 31.4615 26.6667 31.4615C25 31.4615 25 32.9854 23.3333 32.9854C21.6666 32.9854 21.6665 31.4615 19.9997 31.4615C18.3331 31.4615 18.3331 32.9854 16.6665 32.9854C15.0001 32.9854 15.0001 31.4615 13.3335 31.4615C11.6667 31.4615 11.6667 32.9854 9.99987 32.9854C8.33307 32.9854 8.33307 31.4615 6.66627 31.4615C5.51518 31.4615 5.15901 32.1884 4.49963 32.6381C8.16713 37.1308 13.7482 39.9998 20 39.9998Z" fill="#0052B4"/>
<path d="M36.6664 22.5506C34.9997 22.5506 34.9997 21.0267 33.333 21.0267C31.6664 21.0267 31.6664 22.5506 29.9998 22.5506C28.3333 22.5506 28.3332 21.0267 26.6666 21.0267C25 21.0267 25 22.5506 23.3333 22.5506C21.6665 22.5506 21.6665 21.0267 19.9997 21.0267C18.333 21.0267 18.333 22.5506 16.6665 22.5506C15.0001 22.5506 15.0001 21.0267 13.3334 21.0267C11.6666 21.0267 11.6666 22.5506 9.99983 22.5506C8.33303 22.5506 8.33303 21.0267 6.66623 21.0267C4.99983 21.0267 4.99983 22.5506 3.33319 22.5506C1.67553 22.5506 1.66592 21.0435 0.026001 21.0274C0.0721728 21.9423 0.181392 22.8404 0.346548 23.7187C1.67498 23.9139 1.79131 25.2173 3.33327 25.2173C4.99991 25.2173 4.99991 23.6935 6.66631 23.6935C8.33311 23.6935 8.33311 25.2173 9.9999 25.2173C11.6667 25.2173 11.6667 23.6935 13.3335 23.6935C15.0001 23.6935 15.0001 25.2173 16.6665 25.2173C18.3332 25.2173 18.3332 23.6935 19.9997 23.6935C21.6665 23.6935 21.6665 25.2173 23.3333 25.2173C25.0001 25.2173 25.0001 23.6935 26.6667 23.6935C28.3333 23.6935 28.3333 25.2173 29.9999 25.2173C31.6665 25.2173 31.6665 23.6935 33.3331 23.6935C34.9999 23.6935 34.9999 25.2173 36.6665 25.2173C38.2086 25.2173 38.3249 23.914 39.6534 23.7188C39.8186 22.8404 39.9277 21.9424 39.9741 21.0275C38.3339 21.0437 38.3241 22.5506 36.6664 22.5506Z" fill="#0052B4"/>
<path d="M33.3331 26.2442C31.6665 26.2442 31.6665 27.7681 29.9999 27.7681C28.3333 27.7681 28.3333 26.2442 26.6667 26.2442C25.0001 26.2442 25.0001 27.7681 23.3333 27.7681C21.6665 27.7681 21.6665 26.2442 19.9997 26.2442C18.3331 26.2442 18.3331 27.7681 16.6665 27.7681C15.0001 27.7681 15.0001 26.2442 13.3335 26.2442C11.6667 26.2442 11.6667 27.7681 9.9999 27.7681C8.33311 27.7681 8.33311 26.2442 6.66631 26.2442C4.9999 26.2442 4.9999 27.7681 3.33326 27.7681C2.1424 27.7681 1.80225 26.9903 1.09717 26.5459C1.56654 27.9021 2.17717 29.1922 2.91256 30.3981C3.04045 30.4217 3.17967 30.4347 3.33326 30.4347C4.9999 30.4347 4.9999 28.911 6.66631 28.911C8.33311 28.911 8.33311 30.4347 9.9999 30.4347C11.6667 30.4347 11.6667 28.911 13.3335 28.911C15.0001 28.911 15.0001 30.4347 16.6665 30.4347C18.3332 30.4347 18.3332 28.911 19.9997 28.911C21.6665 28.911 21.6665 30.4347 23.3333 30.4347C25.0001 30.4347 25.0001 28.911 26.6667 28.911C28.3333 28.911 28.3333 30.4347 29.9999 30.4347C31.6665 30.4347 31.6665 28.911 33.3331 28.911C34.9999 28.911 34.9999 30.4347 36.6665 30.4347C36.8202 30.4347 36.9594 30.4217 37.0873 30.398C37.8227 29.1922 38.4333 27.9021 38.9029 26.546C38.1977 26.9901 37.8575 27.7681 36.6665 27.7681C34.9999 27.7681 34.9999 26.2442 33.3331 26.2442Z" fill="#0052B4"/>
<path d="M39.938 18.4199C38.3341 18.4578 38.3119 19.9421 36.6664 19.9421C34.9998 19.9421 34.9998 18.4182 33.333 18.4182C31.6664 18.4182 31.6664 19.9421 29.9998 19.9421C28.3333 19.9421 28.3332 18.4182 26.6666 18.4182C25 18.4182 25 19.9421 23.3333 19.9421C21.6666 19.9421 21.6665 18.4182 19.9997 18.4182C18.333 18.4182 18.333 19.9421 16.6665 19.9421C15.0001 19.9421 15.0001 18.4182 13.3334 18.4182C11.6666 18.4182 11.6666 19.9421 9.99984 19.9421C8.33305 19.9421 8.33305 18.4182 6.66625 18.4182C4.99984 18.4182 4.99984 19.9421 3.3332 19.9421C1.68797 19.9421 1.6657 18.4579 0.0619531 18.4199C0.02125 18.9413 0 19.4682 0 19.9999C0 20.3642 0.0103125 20.7262 0.0297656 21.0857C1.66594 21.104 1.6768 22.6086 3.33328 22.6086C4.99992 22.6086 4.99992 21.0849 6.66633 21.0849C8.33312 21.0849 8.33312 22.6086 9.99992 22.6086C11.6667 22.6086 11.6667 21.0849 13.3335 21.0849C15.0002 21.0849 15.0002 22.6086 16.6666 22.6086C18.3332 22.6086 18.3332 21.0849 19.9998 21.0849C21.6666 21.0849 21.6666 22.6086 23.3334 22.6086C25.0002 22.6086 25.0002 21.0849 26.6667 21.0849C28.3334 21.0849 28.3334 22.6086 29.9999 22.6086C31.6665 22.6086 31.6666 21.0849 33.3331 21.0849C34.9999 21.0849 34.9999 22.6086 36.6665 22.6086C38.3231 22.6086 38.334 21.104 39.9705 21.0857C39.9897 20.7261 40 20.3642 40 19.9999C40 19.4682 39.9787 18.9413 39.938 18.4199Z" fill="#F0F0F0"/>
</g>
<defs>
<clipPath id="clip0_3011_51917">
<rect width="40" height="40" fill="white"/>
</clipPath>
</defs>
</svg>
