<svg width="40" height="40" viewBox="0 0 40 40" fill="none" xmlns="http://www.w3.org/2000/svg">
<mask id="mask0_3011_51837" style="mask-type:alpha" maskUnits="userSpaceOnUse" x="0" y="0" width="40" height="40">
<path d="M20 40C31.0457 40 40 31.0457 40 20C40 8.9543 31.0457 0 20 0C8.9543 0 0 8.9543 0 20C0 31.0457 8.9543 40 20 40Z" fill="#D80027"/>
</mask>
<g mask="url(#mask0_3011_51837)">
<rect x="-9.80078" y="-0.599426" width="59.5" height="42.5" rx="21.25" fill="white"/>
<path fill-rule="evenodd" clip-rule="evenodd" d="M-9.80078 27.7339L49.6992 -0.599426H-9.80078V27.7339Z" fill="#1EC160"/>
<path fill-rule="evenodd" clip-rule="evenodd" d="M-9.80078 41.9004H49.6992V13.5671L-9.80078 41.9004Z" fill="#DF2A40"/>
<path fill-rule="evenodd" clip-rule="evenodd" d="M-8.14111 53.2342L61.5402 9.69249L48.0272 -11.9327L-21.6541 31.609L-8.14111 53.2342Z" fill="#FFD956"/>
<path fill-rule="evenodd" clip-rule="evenodd" d="M-11.1464 48.4283L58.5349 4.88657L51.0277 -7.12744L-18.6536 36.4143L-11.1464 48.4283Z" fill="#262626"/>
<path fill-rule="evenodd" clip-rule="evenodd" d="M33.3634 15.9703L31.3544 19.1522L30.0509 15.6221L26.4039 14.6947L29.3584 12.3641L29.1134 8.60907L32.2429 10.6987L35.7385 9.30539L34.7182 12.9275L37.1235 15.8214L33.3634 15.9703Z" fill="white"/>
<path fill-rule="evenodd" clip-rule="evenodd" d="M10.6983 29.7113L8.68934 32.8932L7.3858 29.3632L3.73883 28.4357L6.69329 26.1052L6.44833 22.3501L9.57783 24.4398L13.0734 23.0464L12.0531 26.6685L14.4584 29.5624L10.6983 29.7113Z" fill="white"/>
</g>
</svg>
