<svg width="40" height="40" viewBox="0 0 40 40" fill="none" xmlns="http://www.w3.org/2000/svg">
<g clip-path="url(#clip0_3011_51878)">
<path d="M19.9996 40C31.0453 40 39.9996 31.0457 39.9996 20C39.9996 8.9543 31.0453 0 19.9996 0C8.95394 0 -0.000366211 8.9543 -0.000366211 20C-0.000366211 31.0457 8.95394 40 19.9996 40Z" fill="#F0F0F0"/>
<path d="M20 0C13.9382 0 8.50672 2.69719 4.83899 6.95648H35.1609C31.4933 2.69719 26.0618 0 20 0Z" fill="#0052B4"/>
<path d="M35.161 33.0435H4.83899C8.50672 37.3028 13.9382 39.9999 20 39.9999C26.0618 39.9999 31.4933 37.3028 35.161 33.0435Z" fill="#0052B4"/>
<path d="M37.0645 9.56519H2.93547C1.07383 12.6031 0 16.176 0 20C0 23.8239 1.07383 27.3969 2.93547 30.4347H37.0645C38.9262 27.3969 40 23.8239 40 20C40 16.176 38.9262 12.6031 37.0645 9.56519Z" fill="#D80027"/>
<path d="M12.3043 27.6956C16.5544 27.6956 19.9999 24.2501 19.9999 19.9999C19.9999 15.7498 16.5544 12.3043 12.3043 12.3043C8.05409 12.3043 4.60864 15.7498 4.60864 19.9999C4.60864 24.2501 8.05409 27.6956 12.3043 27.6956Z" fill="#F0F0F0"/>
<path d="M12.3043 12.3043L14.0309 17.6185H19.6276L15.0982 20.903L16.8383 26.233L12.3043 22.9328L7.77709 26.2268L9.51038 20.903L4.98499 17.6185H10.5776L12.3043 12.3043Z" fill="#D80027"/>
</g>
<defs>
<clipPath id="clip0_3011_51878">
<rect width="40" height="40" fill="white"/>
</clipPath>
</defs>
</svg>
