<svg width="40" height="40" viewBox="0 0 40 40" fill="none" xmlns="http://www.w3.org/2000/svg">
<g clip-path="url(#clip0_3011_51847)">
<path d="M20.0001 40C31.0458 40 40.0001 31.0457 40.0001 20C40.0001 8.9543 31.0458 0 20.0001 0C8.95437 0 6.10352e-05 8.9543 6.10352e-05 20C6.10352e-05 31.0457 8.95437 40 20.0001 40Z" fill="#F0F0F0"/>
<path d="M26.9565 19.9999C26.9565 21.7391 23.842 26.0869 20.0001 26.0869C16.1581 26.0869 13.0436 21.7391 13.0436 19.9999C13.0436 16.1579 16.1581 13.0435 20.0001 13.0435C23.842 13.0435 26.9565 16.1579 26.9565 19.9999Z" fill="#D80027"/>
<path d="M26.9565 20C26.9565 23.842 23.842 26.9565 20.0001 26.9565C16.1581 26.9565 13.0436 23.842 13.0436 20" fill="#0052B4"/>
<path d="M27.373 26.1489L29.2174 24.3046L30.4469 25.5342L28.6026 27.3785L27.373 26.1489Z" fill="black"/>
<path d="M24.2984 29.2229L26.1427 27.3786L27.3723 28.6081L25.528 30.4525L24.2984 29.2229Z" fill="black"/>
<path d="M31.0622 29.8374L32.9065 27.9931L34.1361 29.2226L32.2918 31.067L31.0622 29.8374Z" fill="black"/>
<path d="M27.9875 32.9119L29.8319 31.0675L31.0614 32.2971L29.2171 34.1414L27.9875 32.9119Z" fill="black"/>
<path d="M29.2175 27.9934L31.0619 26.1491L32.2914 27.3786L30.4471 29.223L29.2175 27.9934Z" fill="black"/>
<path d="M26.1436 31.0674L27.988 29.223L29.2175 30.4526L27.3732 32.297L26.1436 31.0674Z" fill="black"/>
<path d="M31.0703 13.8542L26.1521 8.93601L27.3817 7.70644L32.2999 12.6247L31.0703 13.8542Z" fill="black"/>
<path d="M26.1512 12.6252L24.3068 10.7809L25.5364 9.55139L27.3807 11.3957L26.1512 12.6252Z" fill="black"/>
<path d="M29.2251 15.7L27.3808 13.8556L28.6103 12.6261L30.4546 14.4704L29.2251 15.7Z" fill="black"/>
<path d="M29.8393 8.93579L27.995 7.09146L29.2245 5.86189L31.0689 7.70622L29.8393 8.93579Z" fill="black"/>
<path d="M32.915 12.011L31.0707 10.1667L32.3003 8.93708L34.1446 10.7814L32.915 12.011Z" fill="black"/>
<path d="M7.09027 27.99L12.0085 32.9082L10.7789 34.1378L5.8607 29.2196L7.09027 27.99Z" fill="black"/>
<path d="M12.0083 29.2185L13.8526 31.0628L12.6231 32.2924L10.7788 30.448L12.0083 29.2185Z" fill="black"/>
<path d="M8.9342 26.1453L10.7785 27.9896L9.54896 29.2192L7.70463 27.3748L8.9342 26.1453Z" fill="black"/>
<path d="M10.7786 24.3003L15.6969 29.2185L14.4673 30.4481L9.54905 25.5299L10.7786 24.3003Z" fill="black"/>
<path d="M12.0081 7.08765L7.08982 12.0059L5.86025 10.7763L10.7785 5.85807L12.0081 7.08765Z" fill="black"/>
<path d="M13.8522 8.93188L8.934 13.8501L7.70443 12.6205L12.6227 7.70231L13.8522 8.93188Z" fill="black"/>
<path d="M15.6985 10.7773L10.7803 15.6956L9.55074 14.4661L14.469 9.54783L15.6985 10.7773Z" fill="black"/>
</g>
<defs>
<clipPath id="clip0_3011_51847">
<rect width="40" height="40" fill="white"/>
</clipPath>
</defs>
</svg>
