<svg width="40" height="40" viewBox="0 0 40 40" fill="none" xmlns="http://www.w3.org/2000/svg">
<g clip-path="url(#clip0_3011_51916)">
<path d="M38.756 26.9564C39.5599 24.7898 40 22.4464 40 19.9999C40 17.5535 39.5599 15.2101 38.756 13.0435L20 11.3043L1.24398 13.0435C0.440078 15.2101 0 17.5535 0 19.9999C0 22.4464 0.440078 24.7898 1.24398 26.9564L20 28.6956L38.756 26.9564Z" fill="#F0F0F0"/>
<path d="M20.0001 39.9999C28.5993 39.9999 35.9303 34.5724 38.7561 26.9564H1.24402C4.06996 34.5724 11.4007 39.9999 20.0001 39.9999Z" fill="#D80027"/>
<path d="M20.0001 -6.10352e-05C11.4007 -6.10352e-05 4.06996 5.42744 1.24402 13.0435H38.7561C35.9303 5.42744 28.5993 -6.10352e-05 20.0001 -6.10352e-05Z" fill="#6DA544"/>
<path d="M5.85785 5.85773C-1.95262 13.6682 -1.95262 26.3316 5.85785 34.1421C7.89652 32.1034 9.88637 30.1136 13.0435 26.9565V13.0434L5.85785 5.85773Z" fill="black"/>
</g>
<defs>
<clipPath id="clip0_3011_51916">
<rect width="40" height="40" fill="white"/>
</clipPath>
</defs>
</svg>
