<svg width="40" height="40" viewBox="0 0 40 40" fill="none" xmlns="http://www.w3.org/2000/svg">
<g clip-path="url(#clip0_3011_51914)">
<path d="M38.0156 11.3042C34.7806 4.61427 27.9293 -0.000183105 20.0001 -0.000183105C12.0709 -0.000183105 5.21962 4.61427 1.98462 11.3042L20.0001 13.0433L38.0156 11.3042Z" fill="#D80027"/>
<path d="M1.98462 28.6954C5.21962 35.3854 12.0709 39.9998 20.0001 39.9998C27.9293 39.9998 34.7806 35.3854 38.0156 28.6954L20.0001 26.9563L1.98462 28.6954Z" fill="#D80027"/>
<path d="M38.0155 11.3043H1.98453C0.713125 13.9336 0 16.8835 0 19.9999C0 23.1164 0.713125 26.0663 1.98453 28.6956H38.0154C39.287 26.0663 40 23.1164 40 19.9999C40 16.8835 39.287 13.9336 38.0155 11.3043Z" fill="#0052B4"/>
<path d="M19.9999 26.9564C23.8419 26.9564 26.9564 23.8418 26.9564 19.9999C26.9564 16.1579 23.8419 13.0434 19.9999 13.0434C16.158 13.0434 13.0435 16.1579 13.0435 19.9999C13.0435 23.8418 16.158 26.9564 19.9999 26.9564Z" fill="#F0F0F0"/>
</g>
<defs>
<clipPath id="clip0_3011_51914">
<rect width="40" height="40" fill="white"/>
</clipPath>
</defs>
</svg>
