<svg width="40" height="40" viewBox="0 0 40 40" fill="none" xmlns="http://www.w3.org/2000/svg">
<g clip-path="url(#clip0_3011_51912)">
<path d="M20 39.9999C31.0457 39.9999 40 31.0456 40 19.9999C40 8.95424 31.0457 -6.10352e-05 20 -6.10352e-05C8.9543 -6.10352e-05 0 8.95424 0 19.9999C0 31.0456 8.9543 39.9999 20 39.9999Z" fill="#F0F0F0"/>
<path d="M20.0001 -0.000183105C12.0709 -0.000183105 5.21962 4.61427 1.98462 11.3042H38.0155C34.7806 4.61427 27.9292 -0.000183105 20.0001 -0.000183105Z" fill="#D80027"/>
<path d="M20.0001 39.9999C27.9292 39.9999 34.7805 35.3854 38.0155 28.6955H1.98462C5.21962 35.3854 12.0709 39.9999 20.0001 39.9999Z" fill="#D80027"/>
<path d="M25.2173 23.4781L19.9999 13.9129L14.7825 23.4781H18.6955V26.0868H21.3043V23.4781H25.2173Z" fill="#6DA544"/>
</g>
<defs>
<clipPath id="clip0_3011_51912">
<rect width="40" height="40" fill="white"/>
</clipPath>
</defs>
</svg>
