<svg width="40" height="40" viewBox="0 0 40 40" fill="none" xmlns="http://www.w3.org/2000/svg">
<g clip-path="url(#clip0_3011_51908)">
<path d="M40 20C40 31.0457 31.0456 40 20 40C8.95437 40 0 31.0457 0 20C0.869531 20 20 17.3914 20 17.3914L40 20Z" fill="#D80027"/>
<path d="M0.000366211 20C0.000366211 8.95438 8.95474 0 20.0004 0C31.046 0 40.0004 8.95438 40.0004 20" fill="#0052B4"/>
<path d="M14.7827 13.9131C14.7827 12.4724 13.6147 11.3045 12.174 11.3045C11.5056 11.3045 10.8965 11.556 10.4349 11.9692V10.4348H11.3044V8.6957H10.4349V7.82617H8.69571V8.6957H7.82618V10.4348H8.69571V11.9692C8.23407 11.556 7.62493 11.3045 6.95657 11.3045C5.51587 11.3045 4.3479 12.4724 4.3479 13.9131C4.3479 14.6855 4.68392 15.3793 5.21743 15.857V17.3914H13.9131V15.857C14.4467 15.3793 14.7827 14.6855 14.7827 13.9131Z" fill="#FFDA44"/>
</g>
<defs>
<clipPath id="clip0_3011_51908">
<rect width="40" height="40" fill="white"/>
</clipPath>
</defs>
</svg>
