<svg width="40" height="40" viewBox="0 0 40 40" fill="none" xmlns="http://www.w3.org/2000/svg">
<g clip-path="url(#clip0_3011_51844)">
<path d="M7.81252e-05 3.47827H0V36.5217H7.81252e-05V20.0001V3.47827Z" fill="#FF9811"/>
<path d="M19.9998 39.9999C31.0454 39.9999 39.9997 31.0456 39.9997 20C39.9997 8.95429 31.0454 0 19.9998 0C8.9541 0 -0.000183105 8.95429 -0.000183105 20C-0.000183105 31.0456 8.9541 39.9999 19.9998 39.9999Z" fill="#FFDA44"/>
<path d="M15.6523 3.47827H8.72767C8.42079 3.68804 8.12048 3.9064 7.82618 4.13241L6.08704 19.9999L7.82618 35.8675C8.12048 36.0936 8.42079 36.3119 8.72767 36.5216H15.6523V3.47827Z" fill="#FF9811"/>
<path d="M6.10352e-05 19.9999C6.10352e-05 26.4644 3.06788 32.2114 7.82617 35.8675V4.13232C3.06788 7.78843 6.10352e-05 13.5355 6.10352e-05 19.9999Z" fill="#6DA544"/>
<path d="M32.174 12.1924V12.6928L32.1925 12.6956L32.174 12.1924Z" fill="#FFDA44"/>
<path d="M38.4059 25.2174H34.6377L33.0435 26.9565V30.4348H29.5652V28.6957H31.3044V25.2174H23.4783V27.3913H21.7391V23.2482C21.2055 22.7706 20.8696 22.0767 20.8696 21.3043V10C20.8696 8.5593 22.0376 7.39133 23.4783 7.39133V23.4783H26.9566L28.15 22.4837C27.9416 21.9872 27.8261 21.442 27.8261 20.8696V18.261H25.2174V13.0436H30.4348C30.4348 12.1741 31.7392 11.3045 31.7392 11.3045C31.7392 11.3045 33.0435 12.174 33.0435 13.0436V14.348V18.261C34.011 18.2725 35.548 18.2474 37.2085 18.261C36.7723 17.4985 36.5217 16.5938 36.5217 15.6524C36.5217 14.1179 37.1842 12.7384 38.2388 11.7837C36.7188 8.41531 34.2933 5.54328 31.2724 3.47827H18.2609V36.5218H31.2725C34.9459 34.0108 37.7388 30.3068 39.0938 25.9678L38.4059 25.2174Z" fill="#A2001D"/>
</g>
<defs>
<clipPath id="clip0_3011_51844">
<rect width="40" height="40" fill="white"/>
</clipPath>
</defs>
</svg>
