<svg width="40" height="40" viewBox="0 0 40 40" fill="none" xmlns="http://www.w3.org/2000/svg">
<g clip-path="url(#clip0_3011_51910)">
<path d="M19.9998 40.0001C31.0455 40.0001 39.9998 31.0458 39.9998 20.0001C39.9998 8.95443 31.0455 0.00012207 19.9998 0.00012207C8.95406 0.00012207 -0.000244141 8.95443 -0.000244141 20.0001C-0.000244141 31.0458 8.95406 40.0001 19.9998 40.0001Z" fill="#F0F0F0"/>
<path d="M4.57153 7.27292H35.4284C34.2887 5.89285 32.9668 4.66902 31.5005 3.6366H8.49942C7.0331 4.66886 5.7113 5.89277 4.57153 7.27292Z" fill="#F0F0F0"/>
<path d="M-0.000244141 20.0001C-0.000244141 20.6132 0.0288965 21.2193 0.0828809 21.8183H39.9166C39.9706 21.2193 39.9998 20.6132 39.9998 20.0001C39.9998 19.3871 39.9706 18.781 39.9166 18.182H0.0828809C0.0288965 18.781 -0.000244141 19.3871 -0.000244141 20.0001H-0.000244141Z" fill="#F0F0F0"/>
<path d="M2.18086 29.091H37.819C38.4079 27.9389 38.8882 26.7224 39.2468 25.4547H0.753052C1.11157 26.7224 1.59204 27.939 2.18086 29.091Z" fill="#F0F0F0"/>
<path d="M8.49942 36.3637H31.5004C32.9668 35.3313 34.2886 34.1075 35.4283 32.7274H4.57153C5.7113 34.1073 7.0331 35.3313 8.49942 36.3637Z" fill="#F0F0F0"/>
<path d="M0.75293 14.5456H39.2468C38.8882 13.2778 38.4079 12.0613 37.819 10.9093H2.18082C1.59199 12.0613 1.11152 13.2778 0.75293 14.5456Z" fill="#F0F0F0"/>
<path d="M9.56506 3.63633H31.5004C28.2472 1.34586 24.2808 0 19.9998 0C17.3912 0 12.8182 1.34586 9.56506 3.63633Z" fill="#D80027"/>
<path d="M19.1304 10.9092H37.819C37.1539 9.60814 36.3506 8.38947 35.4283 7.27283H19.1304V10.9092Z" fill="#D80027"/>
<path d="M19.1304 18.1819H39.9168C39.8043 16.9333 39.5782 15.7173 39.2469 14.5455H19.1304V18.1819Z" fill="#D80027"/>
<path d="M0.753008 25.4547H39.2468C39.5782 24.283 39.8043 23.067 39.9168 21.8184H0.0830078C0.195508 23.067 0.421602 24.2829 0.753008 25.4547Z" fill="#D80027"/>
<path d="M4.57141 32.7271H35.4283C36.3505 31.6104 37.1538 30.3918 37.8189 29.0908H2.18079C2.84586 30.3918 3.64914 31.6105 4.57141 32.7271Z" fill="#D80027"/>
<path d="M19.9998 40C24.2808 40 28.2472 38.6541 31.5004 36.3636H8.49927C11.7524 38.6541 15.7188 40 19.9998 40Z" fill="#D80027"/>
<path d="M0.75293 14.5455C0.421523 15.7173 0.195508 16.9332 0.0830078 18.1818H19.9999V0C10.8452 0 3.1273 6.15094 0.75293 14.5455Z" fill="#0052B4"/>
<path d="M11.9053 5.21753L13.2002 9.20307H17.3913L14.0008 11.6665L15.2957 15.6523L11.9053 13.189L8.51475 15.6523L9.8099 11.6665L6.41943 9.20307H10.6103L11.9053 5.21753Z" fill="#F0F0F0"/>
</g>
<defs>
<clipPath id="clip0_3011_51910">
<rect width="40" height="40" fill="white"/>
</clipPath>
</defs>
</svg>
