<svg width="40" height="40" viewBox="0 0 40 40" fill="none" xmlns="http://www.w3.org/2000/svg">
<g clip-path="url(#clip0_3011_51911)">
<path d="M0 19.9999C0 23.1163 0.713047 26.0662 1.98453 28.6955L20 29.5652L38.0155 28.6956C39.2869 26.0662 40 23.1163 40 19.9999C40 16.8835 39.2869 13.9337 38.0155 11.3043L20 10.4347L1.98453 11.3042C0.713047 13.9337 0 16.8835 0 19.9999H0Z" fill="#F0F0F0"/>
<path d="M20.0001 40C27.9292 40 34.7806 35.3855 38.0156 28.6956H1.98462C5.21962 35.3855 12.0709 40 20.0001 40Z" fill="#6DA544"/>
<path d="M20.0001 -6.10352e-05C12.0709 -6.10352e-05 5.21962 4.61439 1.98462 11.3043H38.0155C34.7806 4.61439 27.9292 -6.10352e-05 20.0001 -6.10352e-05Z" fill="#0052B4"/>
<path d="M21.3044 19.5651V14.7825H18.6957V19.5651L15.5449 22.716C16.4612 24.216 18.1137 25.2173 20.0001 25.2173C21.8865 25.2173 23.5388 24.216 24.4552 22.716L21.3044 19.5651Z" fill="black"/>
</g>
<defs>
<clipPath id="clip0_3011_51911">
<rect width="40" height="40" fill="white"/>
</clipPath>
</defs>
</svg>
