<svg width="40" height="40" viewBox="0 0 40 40" fill="none" xmlns="http://www.w3.org/2000/svg">
<g clip-path="url(#clip0_3011_51890)">
<path d="M19.9998 40C31.0454 40 39.9998 31.0457 39.9998 20C39.9998 8.9543 31.0454 0 19.9998 0C8.95406 0 -0.000244141 8.9543 -0.000244141 20C-0.000244141 31.0457 8.95406 40 19.9998 40Z" fill="#D80027"/>
<path d="M31.8193 16.4134H22.7901L19.9999 7.82617L17.2098 16.4134H8.18054L15.4853 21.7205L12.6951 30.308L19.9999 25.0007L27.3048 30.308L24.5145 21.7206L31.8193 16.4134ZM17.5298 21.0562L18.4733 18.1524H21.5265L22.4701 21.0562V21.0563L19.9999 22.8509L17.5298 21.0563L17.5298 21.0562ZM20.9615 16.4134H19.0384L19.9999 13.454L20.9615 16.4134ZM23.9494 19.9815L23.3551 18.1525H26.4667L23.9494 19.9815ZM16.6447 18.1525L16.0504 19.9815L13.533 18.1525H16.6447ZM16.0031 25.7548L16.9647 22.7955L18.5205 23.9259L16.0031 25.7548ZM21.4793 23.9259L23.0352 22.7956L23.9967 25.7549L21.4793 23.9259Z" fill="#FFDA44"/>
</g>
<defs>
<clipPath id="clip0_3011_51890">
<rect width="40" height="40" fill="white"/>
</clipPath>
</defs>
</svg>
