<svg width="40" height="40" viewBox="0 0 40 40" fill="none" xmlns="http://www.w3.org/2000/svg">
<g clip-path="url(#clip0_3011_51894)">
<path d="M28.6957 1.98453C26.0663 0.713125 23.1165 0 20.0001 0C16.8837 0 13.9338 0.713125 11.3044 1.98453L9.56531 20L11.3044 38.0155C13.9338 39.2869 16.8837 40 20.0001 40C23.1165 40 26.0663 39.2869 28.6957 38.0155L30.4348 20L28.6957 1.98453Z" fill="#FFDA44"/>
<path d="M11.3044 1.98523C4.61453 5.22015 0 12.0709 0 20C0 27.9291 4.61453 34.7798 11.3044 38.0148V1.98523Z" fill="#0052B4"/>
<path d="M28.6957 1.98523V38.0148C35.3855 34.7798 40 27.9291 40 20C40 12.0709 35.3855 5.22015 28.6957 1.98523Z" fill="#D80027"/>
<path d="M26.9564 15.7358H22.1738C22.1738 14.5352 21.2006 13.5619 19.9999 13.5619C18.7993 13.5619 17.826 14.5352 17.826 15.7358H13.0435C13.0435 16.9179 14.0732 17.8761 15.2552 17.8761H15.1839C15.1839 19.0583 16.1422 20.0167 17.3244 20.0167C17.3244 21.0633 18.0761 21.933 19.0689 22.1189L17.3822 25.9269C18.1904 26.2554 19.0737 26.438 19.9999 26.438C20.9261 26.438 21.8095 26.2554 22.6176 25.9269L20.931 22.1189C21.9238 21.933 22.6755 21.0633 22.6755 20.0167C23.8577 20.0167 24.816 19.0583 24.816 17.8761H24.7446C25.9267 17.8761 26.9564 16.9178 26.9564 15.7358Z" fill="#FF9811"/>
<path d="M20 18.6956L17.174 19.9999V22.6086L20 24.3477L22.8261 22.6086V19.9999L20 18.6956Z" fill="#0052B4"/>
<path d="M17.174 17.3912H22.8261V19.9999H17.174V17.3912Z" fill="#D80027"/>
</g>
<defs>
<clipPath id="clip0_3011_51894">
<rect width="40" height="40" fill="white"/>
</clipPath>
</defs>
</svg>
