<svg width="40" height="40" viewBox="0 0 40 40" fill="none" xmlns="http://www.w3.org/2000/svg">
<g clip-path="url(#clip0_3011_51904)">
<path d="M20.0002 40.0001C31.0459 40.0001 40.0003 31.0458 40.0003 20.0001C40.0003 8.95437 31.0459 6.10352e-05 20.0002 6.10352e-05C8.95455 6.10352e-05 0.000244141 8.95437 0.000244141 20.0001C0.000244141 31.0458 8.95455 40.0001 20.0002 40.0001Z" fill="#F0F0F0"/>
<path d="M13.0435 20V38.756C15.21 39.56 17.5535 40 19.9999 40C31.0456 40 39.9999 31.0456 39.9999 20C39.9999 8.95436 13.0435 20 13.0435 20Z" fill="#6DA544"/>
<path d="M19.9999 0C17.5535 0 15.21 0.440078 13.0435 1.24398V20H39.9999C39.9999 8.95438 31.0456 0 19.9999 0Z" fill="#D80027"/>
</g>
<defs>
<clipPath id="clip0_3011_51904">
<rect width="40" height="40" fill="white"/>
</clipPath>
</defs>
</svg>
