<svg width="40" height="40" viewBox="0 0 40 40" fill="none" xmlns="http://www.w3.org/2000/svg">
<g clip-path="url(#clip0_3011_51887)">
<path d="M19.9999 40.0001C31.0455 40.0001 39.9999 31.0457 39.9999 20.0001C39.9999 16.6436 39.1718 13.4809 37.7107 10.7032L19.9764 20.0236L29.2968 2.28934C26.5191 0.828247 23.3564 0.00012207 19.9999 0.00012207C8.95425 0.00012207 -0.00012207 8.9545 -0.00012207 20.0001C-0.00012207 25.523 2.23847 30.523 5.85769 34.1423C9.47699 37.7616 14.477 40.0001 19.9999 40.0001Z" fill="#0052B4"/>
<path d="M37.6897 10.7249C36.7742 8.98238 35.584 7.34636 34.1188 5.88121C32.6536 4.41605 31.0178 3.22582 29.2752 2.31042L5.83447 34.1655L37.6897 10.7249Z" fill="#F0F0F0"/>
<path d="M5.83447 34.1655L37.6897 10.7249C36.7742 8.9824 35.584 7.34638 34.1188 5.88123L5.83447 34.1655Z" fill="#FF9811"/>
<path d="M17.3678 11.7283L14.9253 12.8772L16.226 15.2428L13.5737 14.7354L13.2376 17.4148L11.3901 15.4441L9.54259 17.4148L9.20665 14.7354L6.55431 15.2427L7.85485 12.8771L5.41235 11.7283L7.85493 10.5793L6.55431 8.21386L9.20649 8.72112L9.54267 6.04175L11.3901 8.01245L13.2376 6.04175L13.5737 8.72112L16.2261 8.21386L14.9254 10.5794L17.3678 11.7283Z" fill="#F0F0F0"/>
</g>
<defs>
<clipPath id="clip0_3011_51887">
<rect width="40" height="40" fill="white"/>
</clipPath>
</defs>
</svg>
