<svg width="40" height="40" viewBox="0 0 40 40" fill="none" xmlns="http://www.w3.org/2000/svg">
<g clip-path="url(#clip0_3011_51905)">
<path d="M19.9998 40.0001C31.0455 40.0001 39.9998 31.0458 39.9998 20.0001C39.9998 8.95437 31.0455 6.10352e-05 19.9998 6.10352e-05C8.95406 6.10352e-05 -0.000244141 8.95437 -0.000244141 20.0001C-0.000244141 31.0458 8.95406 40.0001 19.9998 40.0001Z" fill="#FFDA44"/>
<path d="M23.0416 39.7701C26.2944 39.2738 29.2886 37.9929 31.8272 36.128L20 20L23.0416 39.7701Z" fill="#D80027"/>
<path d="M16.9583 0.229919C13.7056 0.726169 10.7114 2.00711 8.17261 3.87187L20 20L16.9583 0.229919Z" fill="#D80027"/>
<path d="M8.17261 36.128C10.7112 37.9928 13.7054 39.2738 16.9582 39.7702L20 20L8.17261 36.128Z" fill="#D80027"/>
<path d="M3.87181 8.17267C2.00697 10.7114 0.726186 13.7056 0.229858 16.9584L19.9999 20L3.87181 8.17267Z" fill="#D80027"/>
<path d="M0.229858 23.0416C0.726108 26.2944 2.00705 29.2886 3.87189 31.8272L19.9999 20L0.229858 23.0416Z" fill="#D80027"/>
<path d="M39.7701 16.9584C39.2738 13.7056 37.9929 10.7114 36.128 8.17273L20 20L39.7701 16.9584Z" fill="#D80027"/>
<path d="M31.8272 3.87179C29.2885 2.00703 26.2944 0.726169 23.0416 0.229919L20 20L31.8272 3.87179Z" fill="#D80027"/>
<path d="M36.1282 31.8273C37.993 29.2886 39.2738 26.2943 39.7702 23.0416L20 20L36.1282 31.8273Z" fill="#D80027"/>
<path d="M19.9999 26.9565C23.8419 26.9565 26.9564 23.842 26.9564 20C26.9564 16.158 23.8419 13.0435 19.9999 13.0435C16.158 13.0435 13.0435 16.158 13.0435 20C13.0435 23.842 16.158 26.9565 19.9999 26.9565Z" fill="#D80027"/>
<path d="M20 25.2174C22.8815 25.2174 25.2174 22.8815 25.2174 20C25.2174 17.1185 22.8815 14.7826 20 14.7826C17.1185 14.7826 14.7826 17.1185 14.7826 20C14.7826 22.8815 17.1185 25.2174 20 25.2174Z" fill="#FFDA44"/>
</g>
<defs>
<clipPath id="clip0_3011_51905">
<rect width="40" height="40" fill="white"/>
</clipPath>
</defs>
</svg>
