<svg width="40" height="40" viewBox="0 0 40 40" fill="none" xmlns="http://www.w3.org/2000/svg">
<g clip-path="url(#clip0_3011_51888)">
<path d="M38.756 26.9566C39.56 24.79 40 22.4465 40 20.0001C40 17.5537 39.56 15.2101 38.756 13.0436L20 11.3044L1.24398 13.0436C0.440078 15.2101 0 17.5537 0 20.0001C0 22.4465 0.440078 24.79 1.24398 26.9566L20 28.6957L38.756 26.9566Z" fill="#6DA544"/>
<path d="M38.7563 13.0435C35.9304 5.4275 28.5996 0 20.0003 0C11.401 0 4.07012 5.4275 1.24426 13.0435H38.7563Z" fill="#FFDA44"/>
<path d="M20.0003 39.9998C28.5996 39.9998 35.9304 34.5723 38.7563 26.9563H1.24426C4.07012 34.5723 11.401 39.9998 20.0003 39.9998Z" fill="#D80027"/>
<path d="M33.7148 16.9208H23.2377L20 6.95654L16.7624 16.9208H6.28528L14.7614 23.0791L11.5238 33.0436L20 26.9565L28.4763 33.0435L25.2387 23.079L33.7148 16.9208Z" fill="#F0F0F0"/>
</g>
<defs>
<clipPath id="clip0_3011_51888">
<rect width="40" height="40" fill="white"/>
</clipPath>
</defs>
</svg>
