<svg width="40" height="40" viewBox="0 0 40 40" fill="none" xmlns="http://www.w3.org/2000/svg">
<g clip-path="url(#clip0_3011_51892)">
<path d="M19.9999 40C22.4463 40 24.7898 39.56 26.9564 38.756L27.826 20L26.9565 1.24398C24.7898 0.440078 22.4463 0 19.9999 0C17.5535 0 15.21 0.440078 13.0434 1.24398L12.1738 20L13.0434 38.756C15.21 39.56 17.5535 40 19.9999 40Z" fill="#0052B4"/>
<path d="M0 19.9999C0 28.5992 5.4275 35.9301 13.0435 38.7559V1.2439C5.4275 4.06976 0 11.4006 0 19.9999Z" fill="#A2001D"/>
<path d="M26.9567 1.2439V38.756C34.5727 35.9301 40.0002 28.5992 40.0002 19.9999C40.0002 11.4006 34.5727 4.06976 26.9567 1.2439Z" fill="#A2001D"/>
<path d="M9.56506 20H11.3042V26.9565H9.56506V20Z" fill="#FFDA44"/>
<path d="M2.60852 20H4.34766V26.9565H2.60852V20Z" fill="#FFDA44"/>
<path d="M6.9563 24.3479C7.91681 24.3479 8.69544 23.5693 8.69544 22.6088C8.69544 21.6483 7.91681 20.8696 6.9563 20.8696C5.9958 20.8696 5.21716 21.6483 5.21716 22.6088C5.21716 23.5693 5.9958 24.3479 6.9563 24.3479Z" fill="#FFDA44"/>
<path d="M6.95645 17.3914C7.43667 17.3914 7.82598 17.0021 7.82598 16.5219C7.82598 16.0416 7.43667 15.6523 6.95645 15.6523C6.47622 15.6523 6.08691 16.0416 6.08691 16.5219C6.08691 17.0021 6.47622 17.3914 6.95645 17.3914Z" fill="#FFDA44"/>
<path d="M5.21729 25.2175H8.69557V26.9567H5.21729V25.2175Z" fill="#FFDA44"/>
<path d="M5.21729 18.261H8.69557V20.0001H5.21729V18.261Z" fill="#FFDA44"/>
<path d="M6.95633 10.4348L7.57227 12.3301H9.56508L7.95297 13.5015L8.56844 15.3968L6.95633 14.2254L5.3443 15.3968L5.95977 13.5015L4.34766 12.3301H6.34047L6.95633 10.4348Z" fill="#FFDA44"/>
</g>
<defs>
<clipPath id="clip0_3011_51892">
<rect width="40" height="40" fill="white"/>
</clipPath>
</defs>
</svg>
