<svg width="40" height="40" viewBox="0 0 40 40" fill="none" xmlns="http://www.w3.org/2000/svg">
<g clip-path="url(#clip0_3011_51889)">
<path d="M20.0002 40C31.0459 40 40.0003 31.0457 40.0003 20C40.0003 8.9543 31.0459 0 20.0002 0C8.95455 0 0.000244141 8.9543 0.000244141 20C0.000244141 31.0457 8.95455 40 20.0002 40Z" fill="#F0F0F0"/>
<path d="M10.8104 27.8259L5.85864 34.1413C9.4777 37.7608 14.4772 39.9998 20.0001 39.9998C28.2681 39.9998 35.3629 34.9819 38.4088 27.8259H10.8104Z" fill="#FFDA44"/>
<path d="M38.4399 12.2463C35.4111 5.05172 28.2961 0 20.0001 0C14.4772 0 9.47771 2.23898 5.85864 5.85852L10.8672 12.2463H38.4399Z" fill="#496E2D"/>
<path d="M4.3479 14.7102V25.2174H39.3112C39.7598 23.554 40.0001 21.8053 40.0001 20.0001C40.0001 18.1686 39.7534 16.3952 39.2922 14.7102H4.3479Z" fill="black"/>
<path d="M5.85785 5.85767C-1.95262 13.6681 -1.95262 26.3315 5.85785 34.142C9.08543 30.9145 12.1896 27.8103 20 19.9999L5.85785 5.85767Z" fill="#A2001D"/>
<path d="M8.0945 14.7825L9.38942 18.7681H13.5805L10.19 21.2315L11.4849 25.2173L8.0945 22.754L4.70395 25.2173L5.99911 21.2315L2.60864 18.7681H6.79942L8.0945 14.7825Z" fill="#FFDA44"/>
<path d="M4.30518 20H11.8852V23.4783H4.30518V20Z" fill="#F0F0F0"/>
<path d="M13.3204 16.0123L12.0907 14.7825L8.09472 18.7784L4.09878 14.7825L2.86902 16.0123L6.86847 20.0047L2.86902 24.0042L4.09878 25.2173L8.09472 21.2286L12.0907 25.2173L13.3204 24.0042L9.32097 20.0047L13.3204 16.0123Z" fill="black"/>
</g>
<defs>
<clipPath id="clip0_3011_51889">
<rect width="40" height="40" fill="white"/>
</clipPath>
</defs>
</svg>
