<svg width="40" height="40" viewBox="0 0 40 40" fill="none" xmlns="http://www.w3.org/2000/svg">
<g clip-path="url(#clip0_3011_51898)">
<path d="M19.9999 40.0001C31.0456 40.0001 39.9999 31.0458 39.9999 20.0001C39.9999 8.95443 31.0456 0.00012207 19.9999 0.00012207C8.95418 0.00012207 -0.00012207 8.95443 -0.00012207 20.0001C-0.00012207 31.0458 8.95418 40.0001 19.9999 40.0001Z" fill="#496E2D"/>
<path d="M19.9999 23.1056C16.6698 23.1056 13.8878 20.7651 13.2052 17.6397C13.1003 18.1202 13.0435 18.6184 13.0435 19.1304C13.0435 22.9725 16.1579 26.0869 19.9999 26.0869C23.842 26.0869 26.9564 22.9725 26.9564 19.1304C26.9564 18.6184 26.8995 18.1202 26.7947 17.6396C26.1121 20.7652 23.3301 23.1056 19.9999 23.1056Z" fill="#FFDA44"/>
<path d="M19.9998 13.9131L20.6473 15.906H22.7429L21.0477 17.1376L21.6952 19.1305L19.9998 17.8988L18.3046 19.1305L18.9522 17.1376L17.257 15.906H19.3523L19.9998 13.9131Z" fill="#FFDA44"/>
</g>
<defs>
<clipPath id="clip0_3011_51898">
<rect width="40" height="40" fill="white"/>
</clipPath>
</defs>
</svg>
