<svg width="40" height="40" viewBox="0 0 40 40" fill="none" xmlns="http://www.w3.org/2000/svg">
<g clip-path="url(#clip0_3011_51903)">
<path d="M0 20C0 22.4464 0.440078 24.7899 1.24398 26.9565L20 27.8261L38.756 26.9566C39.56 24.7899 40 22.4464 40 20C40 17.5536 39.56 15.2102 38.756 13.0436L20 12.174L1.24398 13.0435C0.440078 15.2102 0 17.5536 0 20H0Z" fill="#D80027"/>
<path d="M19.9999 0C11.4006 0 4.06976 5.4275 1.2439 13.0435H38.756C35.9301 5.4275 28.5992 0 19.9999 0Z" fill="black"/>
<path d="M38.7559 26.9565H1.2439C4.06976 34.5725 11.4006 40.0001 19.9999 40.0001C28.5992 40.0001 35.9301 34.5725 38.7559 26.9565Z" fill="#496E2D"/>
<path d="M25.9777 9.56529L23.5352 8.41638L24.8359 6.05083L22.1835 6.55825L21.8475 3.87872L20 5.84943L18.1525 3.87872L17.8164 6.55825L15.1641 6.05083L16.4648 8.41638L14.0222 9.56529H25.9777Z" fill="#D80027"/>
</g>
<defs>
<clipPath id="clip0_3011_51903">
<rect width="40" height="40" fill="white"/>
</clipPath>
</defs>
</svg>
