<svg width="40" height="40" viewBox="0 0 40 40" fill="none" xmlns="http://www.w3.org/2000/svg">
<g clip-path="url(#clip0_3011_51896)">
<path d="M20.0002 40.0001C31.0459 40.0001 40.0002 31.0458 40.0002 20.0001C40.0002 8.95443 31.0459 0.00012207 20.0002 0.00012207C8.95455 0.00012207 0.000244141 8.95443 0.000244141 20.0001C0.000244141 31.0458 8.95455 40.0001 20.0002 40.0001Z" fill="#F0F0F0"/>
<path d="M39.9999 20C39.9999 12.0707 35.3855 5.2195 28.6956 1.9845V38.0154C35.3855 34.7804 39.9999 27.9292 39.9999 20Z" fill="#D80027"/>
<path d="M0 20C0 27.9292 4.61445 34.7804 11.3044 38.0154V1.9845C4.61445 5.2195 0 12.0707 0 20Z" fill="#6DA544"/>
<path d="M14.7825 20C14.7825 22.8815 17.1184 25.2174 19.9999 25.2174C22.8814 25.2174 25.2173 22.8815 25.2173 20V18.2609H14.7825V20Z" fill="#6DA544"/>
<path d="M26.9563 16.5217H21.7389C21.7389 15.5613 20.9602 14.7826 19.9998 14.7826C19.0393 14.7826 18.2606 15.5613 18.2606 16.5217H13.0432C13.0432 17.4823 13.8799 18.2609 14.8402 18.2609H14.7824C14.7824 19.2214 15.5609 20 16.5215 20C16.5215 20.9606 17.3001 21.7392 18.2606 21.7392H21.7389C22.6995 21.7392 23.4781 20.9606 23.4781 20C24.4386 20 25.2172 19.2214 25.2172 18.2609H25.1592C26.1198 18.2609 26.9563 17.4823 26.9563 16.5217Z" fill="#FF9811"/>
</g>
<defs>
<clipPath id="clip0_3011_51896">
<rect width="40" height="40" fill="white"/>
</clipPath>
</defs>
</svg>
