<svg width="40" height="40" viewBox="0 0 40 40" fill="none" xmlns="http://www.w3.org/2000/svg">
<g clip-path="url(#clip0_3011_51902)">
<path d="M20.0002 40.0001C31.0459 40.0001 40.0002 31.0458 40.0002 20.0001C40.0002 8.95437 31.0459 6.10352e-05 20.0002 6.10352e-05C8.95455 6.10352e-05 0.000244141 8.95437 0.000244141 20.0001C0.000244141 31.0458 8.95455 40.0001 20.0002 40.0001Z" fill="#F0F0F0"/>
<path d="M19.1305 20H40C40 18.1948 39.7594 16.4462 39.311 14.7826H19.1305V20Z" fill="#D80027"/>
<path d="M19.1305 9.56526H37.0646C35.8403 7.56745 34.275 5.80159 32.4498 4.34784H19.1305V9.56526Z" fill="#D80027"/>
<path d="M20.0002 40C24.7071 40 29.0335 38.3732 32.4499 35.6522H7.55042C10.9669 38.3732 15.2932 40 20.0002 40Z" fill="#D80027"/>
<path d="M2.93545 30.4348H37.0645C38.0474 28.831 38.8096 27.0778 39.311 25.2173H0.688965C1.19029 27.0778 1.95256 28.831 2.93545 30.4348Z" fill="#D80027"/>
<path d="M20.0002 20.0001C20.0002 8.95444 20.0002 7.65225 20.0002 6.10352e-05C8.95462 6.10352e-05 0.000244141 8.95444 0.000244141 20.0001H20.0002Z" fill="#0052B4"/>
<path d="M13.2997 17.1195C10.5683 17.1195 8.35406 14.9052 8.35406 12.1739C8.35406 9.44258 10.5684 7.22829 13.2997 7.22829C14.1513 7.22829 14.9527 7.44368 15.6523 7.82274C14.5548 6.74954 13.0538 6.08704 11.3975 6.08704C8.03586 6.08704 5.31055 8.81227 5.31055 12.174C5.31055 15.5357 8.03586 18.2609 11.3975 18.2609C13.0538 18.2609 14.5548 17.5984 15.6523 16.5252C14.9527 16.9041 14.1514 17.1195 13.2997 17.1195Z" fill="#FFDA44"/>
<path d="M14.6933 8.69562L15.5713 10.5317L17.5542 10.0736L16.6663 11.9048L18.261 13.1694L16.2755 13.6169L16.281 15.6522L14.6933 14.3789L13.1055 15.6522L13.111 13.6169L11.1255 13.1694L12.7202 11.9048L11.8321 10.0736L13.8152 10.5317L14.6933 8.69562Z" fill="#FFDA44"/>
</g>
<defs>
<clipPath id="clip0_3011_51902">
<rect width="40" height="40" fill="white"/>
</clipPath>
</defs>
</svg>
