<svg width="40" height="40" viewBox="0 0 40 40" fill="none" xmlns="http://www.w3.org/2000/svg">
<g clip-path="url(#clip0_3011_51886)">
<path d="M20.0002 39.9999C31.0459 39.9999 40.0002 31.0456 40.0002 19.9999C40.0002 8.95424 31.0459 -6.10352e-05 20.0002 -6.10352e-05C8.95455 -6.10352e-05 0.000244141 8.95424 0.000244141 19.9999C0.000244141 31.0456 8.95455 39.9999 20.0002 39.9999Z" fill="#F0F0F0"/>
<path d="M5.8578 34.1422C6.69678 34.9812 7.59194 35.7294 8.53092 36.3881L36.3879 8.53111C35.7292 7.59212 34.981 6.69697 34.1419 5.85798C33.3029 5.019 32.4078 4.27087 31.4688 3.61212L3.61194 31.4692C4.27061 32.408 5.01881 33.3032 5.8578 34.1422Z" fill="#A2001D"/>
<path d="M5.85799 5.85774C-0.451699 12.1674 -1.66295 21.6434 2.22166 29.1701L29.1703 2.22157C21.6435 -1.66304 12.1675 -0.451637 5.85799 5.85774Z" fill="#0052B4"/>
<path d="M34.1421 34.1422C40.4516 27.8326 41.6629 18.3566 37.7784 10.8298L10.8298 37.7784C18.3565 41.663 27.8325 40.4518 34.1421 34.1422Z" fill="#496E2D"/>
<path d="M16.5217 11.3043L14.2806 12.3585L15.4741 14.5289L13.0405 14.0635L12.7321 16.5217L11.0371 14.7136L9.34202 16.5217L9.03374 14.0635L6.60015 14.5289L7.79351 12.3584L5.55249 11.3043L7.79358 10.2501L6.60015 8.0798L9.03366 8.54527L9.3421 6.08691L11.0371 7.89504L12.7322 6.08691L13.0405 8.54527L15.4741 8.0798L14.2808 10.2502L16.5217 11.3043Z" fill="#FFDA44"/>
</g>
<defs>
<clipPath id="clip0_3011_51886">
<rect width="40" height="40" fill="white"/>
</clipPath>
</defs>
</svg>
