<svg width="40" height="40" viewBox="0 0 40 40" fill="none" xmlns="http://www.w3.org/2000/svg">
<g clip-path="url(#clip0_3011_51881)">
<path d="M20.0005 39.9999C31.0462 39.9999 40.0005 31.0456 40.0005 19.9999C40.0005 8.95418 31.0462 -0.00012207 20.0005 -0.00012207C8.95479 -0.00012207 0.000488281 8.95418 0.000488281 19.9999C0.000488281 31.0456 8.95479 39.9999 20.0005 39.9999Z" fill="#F0F0F0"/>
<path d="M20 0C12.0707 0 5.2195 4.61445 1.9845 11.3044H38.0154C34.7804 4.61445 27.9291 0 20 0Z" fill="#338AF3"/>
<path d="M20 39.9999C27.9291 39.9999 34.7804 35.3855 38.0154 28.6956H1.9845C5.2195 35.3855 12.0707 39.9999 20 39.9999Z" fill="#338AF3"/>
<path d="M20 13.9131C16.6383 13.9131 13.9131 16.6383 13.9131 20C13.9131 23.3618 16.6383 26.087 20 26.087C23.3618 26.087 26.087 23.3618 26.087 20C26.087 16.6383 23.3618 13.9131 20 13.9131ZM20 23.4783C18.0791 23.4783 16.5218 21.9211 16.5218 20C16.5218 18.0789 18.079 16.5218 20 16.5218C21.9211 16.5218 23.4783 18.0789 23.4783 20C23.4783 21.9211 21.921 23.4783 20 23.4783Z" fill="#FFDA44"/>
<path d="M23.0124 20.8695L20 20L16.9877 20.8695L15.9836 22.6087H24.0164L23.0124 20.8695Z" fill="#0052B4"/>
<path d="M20.0001 15.6522L17.9919 19.1305L20.0001 20L22.0084 19.1305L20.0001 15.6522Z" fill="#338AF3"/>
<path d="M16.9878 20.8696H23.0125L22.0083 19.1305H17.9919L16.9878 20.8696Z" fill="#6DA544"/>
</g>
<defs>
<clipPath id="clip0_3011_51881">
<rect width="40" height="40" fill="white"/>
</clipPath>
</defs>
</svg>
