<svg width="40" height="40" viewBox="0 0 40 40" fill="none" xmlns="http://www.w3.org/2000/svg">
<g clip-path="url(#clip0_3011_51883)">
<path d="M19.9999 40C31.0456 40 39.9999 31.0457 39.9999 20C39.9999 8.9543 31.0456 0 19.9999 0C8.95418 0 -0.00012207 8.9543 -0.00012207 20C-0.00012207 31.0457 8.95418 40 19.9999 40Z" fill="#F0F0F0"/>
<path d="M19.9999 0C11.4006 0 4.06975 5.4275 1.2439 13.0435H38.756C35.9301 5.4275 28.5992 0 19.9999 0Z" fill="#A2001D"/>
<path d="M19.9999 40C28.5992 40 35.9301 34.5725 38.7559 26.9565H1.2439C4.06976 34.5725 11.4006 40 19.9999 40Z" fill="#0052B4"/>
</g>
<defs>
<clipPath id="clip0_3011_51883">
<rect width="40" height="40" fill="white"/>
</clipPath>
</defs>
</svg>
