<svg width="40" height="40" viewBox="0 0 40 40" fill="none" xmlns="http://www.w3.org/2000/svg">
<g clip-path="url(#clip0_3011_51877)">
<path d="M20.0004 39.9999C31.0461 39.9999 40.0004 31.0456 40.0004 19.9999C40.0004 8.95418 31.0461 -0.00012207 20.0004 -0.00012207C8.95467 -0.00012207 0.000366211 8.95418 0.000366211 19.9999C0.000366211 31.0456 8.95467 39.9999 20.0004 39.9999Z" fill="#F0F0F0"/>
<path d="M0.689209 25.2174C1.8464 29.5111 4.39679 33.2325 7.82632 35.8676V25.2174H0.689209Z" fill="#D80027"/>
<path d="M18.2611 39.9239C18.8344 39.9733 19.4142 40 20.0002 40C29.2408 40 37.0163 33.7327 39.3113 25.2174H18.2611V39.9239Z" fill="#D80027"/>
<path d="M39.3113 14.7826C37.0163 6.26726 29.2408 0 20.0002 0C19.4142 0 18.8344 0.0267187 18.2611 0.0760937V14.7826H39.3113Z" fill="#D80027"/>
<path d="M7.82632 4.13245C4.39679 6.7676 1.8464 10.4889 0.689209 14.7826H7.82632V4.13245Z" fill="#D80027"/>
<path d="M39.8307 17.3913H15.6523H15.6522V0.475342C13.8039 0.885185 12.0516 1.54948 10.4348 2.43175V17.3911V17.3912H0.169297C0.0579688 18.2452 0 19.1158 0 19.9999C0 20.8841 0.0579688 21.7547 0.169297 22.6086H10.4347H10.4348V37.5681C12.0516 38.4503 13.8039 39.1147 15.6522 39.5245V22.6089V22.6087H39.8307C39.9419 21.7547 40 20.8841 40 19.9999C40 19.1158 39.9419 18.2452 39.8307 17.3913Z" fill="#0052B4"/>
</g>
<defs>
<clipPath id="clip0_3011_51877">
<rect width="40" height="40" fill="white"/>
</clipPath>
</defs>
</svg>
