<svg width="40" height="40" viewBox="0 0 40 40" fill="none" xmlns="http://www.w3.org/2000/svg">
<g clip-path="url(#clip0_3011_51876)">
<path d="M19.9999 40C31.0456 40 39.9999 31.0457 39.9999 20C39.9999 8.95431 31.0456 0 19.9999 0C8.95418 0 -0.00012207 8.95431 -0.00012207 20C-0.00012207 31.0457 8.95418 40 19.9999 40Z" fill="#F0F0F0"/>
<path d="M0 20C0 27.5809 4.21797 34.1762 10.4348 37.5682V2.43182C4.21797 5.82385 0 12.4192 0 20Z" fill="#D80027"/>
<path d="M38.7561 26.9565C39.56 24.7899 40 22.4465 40 20.0001C40 17.5537 39.56 15.2101 38.7561 13.0436H1.24406C0.440078 15.2101 0 17.5537 0 20.0001C0 22.4465 0.440078 24.7899 1.24406 26.9565L20 28.6957L38.7561 26.9565Z" fill="#D80027"/>
<path d="M20 39.9999C28.5993 39.9999 35.9301 34.5724 38.7561 26.9564H1.24402C4.0698 34.5724 11.4007 39.9999 20 39.9999Z" fill="#6DA544"/>
<path d="M0 20C0 29.2405 6.26727 37.016 14.7826 39.311V0.688965C6.26727 2.98396 0 10.7594 0 20Z" fill="#D80027"/>
<path d="M12.2358 8.80109L10.3912 6.95648L9.16149 8.18633L7.9318 6.95648L6.08719 8.80109L7.31696 10.0309L6.08704 11.2607L7.93165 13.1053L9.16141 11.8755L10.3912 13.1053L12.2358 11.2607L11.006 10.0309L12.2358 8.80109Z" fill="#F0F0F0"/>
</g>
<defs>
<clipPath id="clip0_3011_51876">
<rect width="40" height="40" fill="white"/>
</clipPath>
</defs>
</svg>
