<svg width="40" height="40" viewBox="0 0 40 40" fill="none" xmlns="http://www.w3.org/2000/svg">
<g clip-path="url(#clip0_3011_51873)">
<path d="M20.0002 40C31.0459 40 40.0002 31.0457 40.0002 20C40.0002 8.95431 31.0459 0 20.0002 0C8.95455 0 0.000244141 8.95431 0.000244141 20C0.000244141 31.0457 8.95455 40 20.0002 40Z" fill="#F0F0F0"/>
<path d="M0 20C0 31.0456 8.95437 40 20 40C20 32.3941 20 20 20 20C20 20 6.95648 20 0 20Z" fill="#0052B4"/>
<path d="M20 0C31.0456 0 40 8.95437 40 20C32.3941 20 20 20 20 20C20 20 20 6.95648 20 0Z" fill="#D80027"/>
<path d="M11.9054 6.95648L13.2004 10.9423H17.3913L14.0008 13.4055L15.2958 17.3913L11.9054 14.928L8.5149 17.3913L9.8099 13.4055L6.41943 10.9423H10.6103L11.9054 6.95648Z" fill="#0052B4"/>
<path d="M28.0947 22.6087L29.3898 26.5945H33.5806L30.1901 29.0578L31.4852 33.0435L28.0947 30.5802L24.7042 33.0435L25.9992 29.0578L22.6088 26.5945H26.7996L28.0947 22.6087Z" fill="#D80027"/>
</g>
<defs>
<clipPath id="clip0_3011_51873">
<rect width="40" height="40" fill="white"/>
</clipPath>
</defs>
</svg>
