<svg width="40" height="40" viewBox="0 0 40 40" fill="none" xmlns="http://www.w3.org/2000/svg">
<g clip-path="url(#clip0_3011_51875)">
<path d="M20.0002 40C31.0459 40 40.0003 31.0457 40.0003 20C40.0003 8.95431 31.0459 0 20.0002 0C8.95455 0 0.000244141 8.95431 0.000244141 20C0.000244141 31.0457 8.95455 40 20.0002 40Z" fill="#F0F0F0"/>
<path d="M0.00012207 20C0.00012207 27.5809 4.21801 34.1761 10.4349 37.5682V2.43182C4.21801 5.82393 0.00012207 12.4192 0.00012207 20Z" fill="#F0F0F0"/>
<path d="M20.0002 0C16.5353 0 13.2764 0.881485 10.4349 2.4318V37.5681C13.2764 39.1185 16.5353 40 20.0002 40C31.0458 40 40.0002 31.0456 40.0002 20C40.0002 8.95438 31.0458 0 20.0002 0Z" fill="#496E2D"/>
<path d="M28.5511 23.3076C26.0208 25.1358 22.4876 24.5667 20.6594 22.0366C18.8312 19.5063 19.4003 15.973 21.9305 14.1449C22.7194 13.5749 23.6058 13.238 24.5076 13.1209C22.7727 12.8614 20.9387 13.2523 19.4046 14.3609C16.2905 16.611 15.59 20.9595 17.8401 24.0738C20.0901 27.1877 24.4387 27.8884 27.5529 25.638C29.0872 24.5295 30.0342 22.9113 30.3325 21.1825C29.9383 22.0017 29.3401 22.7375 28.5511 23.3076Z" fill="#F0F0F0"/>
<path d="M28.4427 13.0437L29.868 14.5797L31.7692 13.6991L30.7487 15.5291L32.1739 17.0653L30.118 16.6602L29.0975 18.4903L28.8474 16.4099L26.7915 16.0048L28.6928 15.1242L28.4427 13.0437Z" fill="#F0F0F0"/>
</g>
<defs>
<clipPath id="clip0_3011_51875">
<rect width="40" height="40" fill="white"/>
</clipPath>
</defs>
</svg>
