<svg width="40" height="40" viewBox="0 0 40 40" fill="none" xmlns="http://www.w3.org/2000/svg">
<g clip-path="url(#clip0_3011_51869)">
<path d="M20 40C31.0457 40 40 31.0457 40 20C40 8.9543 31.0457 0 20 0C8.95431 0 0 8.9543 0 20C0 31.0457 8.95431 40 20 40Z" fill="#F0F0F0"/>
<path d="M20 0V20L5.85779 34.1422C9.47709 37.7614 14.4771 40 20 40C31.0456 40 40 31.0456 40 20C40 8.95437 20 0 20 0Z" fill="#D80027"/>
<path d="M20 0C14.4771 0 9.47709 2.23859 5.85779 5.85781C10.7648 10.7648 12.5068 12.5069 20 20H40C40 8.95438 31.0456 0 20 0Z" fill="#0052B4"/>
<path d="M13.6947 20L11.2522 18.8511L12.5529 16.4855L9.90059 16.9929L9.56449 14.3135L7.71699 16.2841L5.86957 14.3135L5.5334 16.9929L2.88113 16.4854L4.18184 18.8511L1.73926 20L4.18184 21.1489L2.88113 23.5144L5.53363 23.0071L5.86949 25.6864L7.71699 23.7158L9.56449 25.6864L9.90059 23.0071L12.5528 23.5145L11.2521 21.1489L13.6947 20Z" fill="#FFDA44"/>
<path d="M5.33389 7.82605L6.1467 8.96222L7.47834 8.54042L6.64881 9.66449L7.46162 10.8007L6.13615 10.3592L5.3067 11.4832L5.31709 10.0863L3.9917 9.64472L5.32357 9.22292L5.33389 7.82605Z" fill="#FFDA44"/>
<path d="M5.33389 28.5167L6.1467 29.6529L7.47834 29.231L6.64881 30.3552L7.46162 31.4913L6.13615 31.0498L5.3067 32.1738L5.31709 30.777L3.9917 30.3354L5.32357 29.9136L5.33389 28.5167Z" fill="#FFDA44"/>
<path d="M16.9272 18.1714L16.1144 19.3076L14.7827 18.8856L15.6122 20.0097L14.7994 21.146L16.1249 20.7044L16.9544 21.8284L16.944 20.4316L18.2694 19.9901L16.9376 19.5683L16.9272 18.1714Z" fill="#FFDA44"/>
</g>
<defs>
<clipPath id="clip0_3011_51869">
<rect width="40" height="40" fill="white"/>
</clipPath>
</defs>
</svg>
