<svg width="40" height="40" viewBox="0 0 40 40" fill="none" xmlns="http://www.w3.org/2000/svg">
<g clip-path="url(#clip0_3011_51872)">
<path d="M34.1422 34.1421C26.3317 41.9526 13.6685 41.9526 5.85784 34.1421C-1.95263 26.3316 -1.95263 13.6683 5.85792 5.85773C13.6684 -1.95274 25.1019 -0.722972 32.9124 7.08757C40.7228 14.898 41.9526 26.3316 34.1422 34.1421Z" fill="black"/>
<path d="M5.85791 5.85778C13.6684 -1.95269 26.3316 -1.95253 34.1422 5.85786C41.9527 13.6683 41.9527 26.3316 34.1422 34.1422" fill="#A2001D"/>
<path d="M15.2844 26.9567L15.6082 27.9532H16.6559L15.8083 28.5689L16.1321 29.5654L15.2844 28.9496L14.4368 29.5654L14.7605 28.5689L13.913 27.9532H14.9606L15.2844 26.9567Z" fill="#F0F0F0"/>
<path d="M12.6087 17.3914L13.1484 19.0521H14.8945L13.4818 20.0785L14.0214 21.7392L12.6087 20.7128L11.196 21.7392L11.7357 20.0785L10.3229 19.0521H12.0691L12.6087 17.3914Z" fill="#F0F0F0"/>
<path d="M12.6087 29.5654L13.1483 31.2261H14.8945L13.4816 32.2524L14.0214 33.9132L12.6087 32.8867L11.196 33.9132L11.7355 32.2524L10.3229 31.2261H12.0689L12.6087 29.5654Z" fill="#F0F0F0"/>
<path d="M17.714 21.7393L18.2538 23.4H19.9999L18.5872 24.4263L19.1268 26.0871L17.714 25.0606L16.3014 26.0871L16.8411 24.4263L15.4283 23.4H17.1745L17.714 21.7393Z" fill="#F0F0F0"/>
<path d="M7.50307 21.7393L8.04283 23.4H9.78885L8.37619 24.4263L8.91572 26.0871L7.50307 25.0606L6.09033 26.0871L6.6301 24.4263L5.21729 23.4H6.96346L7.50307 21.7393Z" fill="#F0F0F0"/>
<path d="M33.4803 14.8095C32.5865 13.9157 31.4251 13.3876 30.177 13.2969L33.913 10.3912C32.4251 8.90333 30.4308 8.23138 28.4849 8.37349C28.2519 7.5363 27.8078 6.74552 27.1494 6.08716L25.6737 9.03856C25.5769 8.86216 25.4544 8.69614 25.3048 8.54669C24.4558 7.69771 23.0794 7.69771 22.2304 8.54669C21.3815 9.39567 21.3814 10.7721 22.2304 11.6211C22.3799 11.7705 22.546 11.8931 22.7224 11.99L19.771 13.4657C20.4295 14.1243 21.2208 14.5687 22.0585 14.8015C21.9159 16.7475 22.5872 18.7414 24.0751 20.2293L27.3392 16.0326C27.5847 15.7908 27.909 15.6573 28.254 15.6573C28.6025 15.6573 28.93 15.7929 29.1763 16.0394C29.4227 16.2858 29.5584 16.6133 29.5584 16.9617C29.5584 17.3101 29.4227 17.6376 29.1763 17.884L30.4062 19.1139C30.9809 18.539 31.2976 17.7747 31.2976 16.9618C31.2976 16.2966 31.0854 15.6643 30.6937 15.1415C31.2644 15.2939 31.8039 15.5925 32.2508 16.0394C33.607 17.3956 33.607 19.6023 32.2508 20.9584L33.4806 22.1883C34.466 21.2028 35.0087 19.8926 35.0087 18.499C35.0085 17.1051 34.4657 15.795 33.4803 14.8095Z" fill="#FFDA44"/>
</g>
<defs>
<clipPath id="clip0_3011_51872">
<rect width="40" height="40" fill="white"/>
</clipPath>
</defs>
</svg>
