<svg width="40" height="40" viewBox="0 0 40 40" fill="none" xmlns="http://www.w3.org/2000/svg">
<g clip-path="url(#clip0_3011_51867)">
<path d="M0 20C0 28.5993 5.4275 35.9301 13.0434 38.756L14.7826 20L13.0434 1.24402C5.4275 4.06996 0 11.4007 0 20Z" fill="#6DA544"/>
<path d="M39.9997 20C39.9997 8.95437 31.0454 0 19.9997 0C17.5533 0 15.2098 0.440078 13.0431 1.24398V38.756C15.2098 39.56 17.5533 40 19.9997 40C31.0454 40 39.9997 31.0456 39.9997 20Z" fill="#D80027"/>
<path d="M13.0435 26.9564C16.8855 26.9564 20 23.8419 20 19.9999C20 16.158 16.8855 13.0435 13.0435 13.0435C9.20156 13.0435 6.08704 16.158 6.08704 19.9999C6.08704 23.8419 9.20156 26.9564 13.0435 26.9564Z" fill="#FFDA44"/>
<path d="M9.13025 16.5217V20.8695C9.13025 23.0306 10.8821 24.7826 13.0433 24.7826C15.2045 24.7826 16.9563 23.0307 16.9563 20.8695V16.5217H9.13025Z" fill="#D80027"/>
<path d="M13.0435 22.1739C12.3243 22.1739 11.7391 21.5888 11.7391 20.8696V19.1305H14.3478V20.8696C14.3478 21.5888 13.7627 22.1739 13.0435 22.1739Z" fill="#F0F0F0"/>
</g>
<defs>
<clipPath id="clip0_3011_51867">
<rect width="40" height="40" fill="white"/>
</clipPath>
</defs>
</svg>
