<svg width="40" height="40" viewBox="0 0 40 40" fill="none" xmlns="http://www.w3.org/2000/svg">
<g clip-path="url(#clip0_3011_51871)">
<path d="M19.9996 40C31.0453 40 39.9996 31.0457 39.9996 20C39.9996 8.9543 31.0453 0 19.9996 0C8.95394 0 -0.000366211 8.9543 -0.000366211 20C-0.000366211 31.0457 8.95394 40 19.9996 40Z" fill="#F0F0F0"/>
<path d="M20 0C12.0707 0 5.2195 4.61445 1.9845 11.3044H38.0154C34.7804 4.61445 27.9291 0 20 0Z" fill="#D80027"/>
<path d="M20 40.0001C27.9291 40.0001 34.7804 35.3856 38.0154 28.6957H1.9845C5.2195 35.3856 12.0707 40.0001 20 40.0001Z" fill="#0052B4"/>
<path d="M24.919 14.2115L23.0744 16.0562C23.8612 16.843 24.3479 17.9299 24.3479 19.1305C24.3479 21.5318 22.4012 23.4783 20.0001 23.4783C17.5989 23.4783 15.6523 21.5317 15.6523 19.1305C15.6523 17.9299 16.139 16.843 16.9258 16.0562L15.0812 14.2115C13.8222 15.4703 13.0436 17.2094 13.0436 19.1305C13.0436 22.9726 16.1581 26.087 20.0001 26.087C23.842 26.087 26.9565 22.9725 26.9565 19.1305C26.9565 17.2094 26.1779 15.4703 24.919 14.2115Z" fill="#6DA544"/>
<path d="M19.9999 16.5217L20.6475 18.5147H22.7429L21.0477 19.7463L21.6952 21.7391L19.9999 20.5075L18.3046 21.7391L18.9522 19.7463L17.257 18.5147H19.3523L19.9999 16.5217Z" fill="#FFDA44"/>
</g>
<defs>
<clipPath id="clip0_3011_51871">
<rect width="40" height="40" fill="white"/>
</clipPath>
</defs>
</svg>
