<svg width="40" height="40" viewBox="0 0 40 40" fill="none" xmlns="http://www.w3.org/2000/svg">
<g clip-path="url(#clip0_3011_51863)">
<path d="M20.0002 40.0001C31.0459 40.0001 40.0002 31.0458 40.0002 20.0001C40.0002 8.95443 31.0459 0.00012207 20.0002 0.00012207C8.95455 0.00012207 0.000244141 8.95443 0.000244141 20.0001C0.000244141 31.0458 8.95455 40.0001 20.0002 40.0001Z" fill="#F0F0F0"/>
<path d="M40 20C40 8.95437 31.0456 0 20 0C16.0875 0 12.4379 1.12461 9.35527 3.06648L13.7391 4.92906L7.82605 7.44141L13.7391 9.95367L7.82605 12.4659L13.7391 14.978L7.82605 17.4898L13.7391 20.0014L7.82605 22.5136L13.7391 25.0256L7.82605 27.5374L13.7391 30.0494L7.82605 32.5616L13.7391 35.0734L9.35722 36.935C12.4395 38.8759 16.0882 40 20 40C31.0456 40 40 31.0456 40 20Z" fill="#751A46"/>
</g>
<defs>
<clipPath id="clip0_3011_51863">
<rect width="40" height="40" fill="white"/>
</clipPath>
</defs>
</svg>
