<svg width="40" height="40" viewBox="0 0 40 40" fill="none" xmlns="http://www.w3.org/2000/svg">
<g clip-path="url(#clip0_3011_51866)">
<path d="M26.9566 1.24391C24.7898 0.440078 22.4465 1.03982e-08 20.0001 1.03982e-08C17.5537 -7.81146e-05 15.2102 0.440078 13.0436 1.24391L11.3044 19.9999L13.0436 38.7559C15.2101 39.56 17.5536 40 20.0001 40C22.4464 40 24.7899 39.56 26.9566 38.7559L28.6956 20L26.9566 1.24391Z" fill="#FFDA44"/>
<path d="M40.0001 20C40.0001 11.4008 34.5726 4.0698 26.9565 1.24402V38.7562C34.5726 35.9301 40 28.5994 40.0001 20Z" fill="#D80027"/>
<path d="M0 19.9999C0 28.5994 5.4275 35.9301 13.0434 38.7561L13.0434 1.24408C5.4275 4.06986 0 11.4006 0 19.9999H0Z" fill="#0052B4"/>
</g>
<defs>
<clipPath id="clip0_3011_51866">
<rect width="40" height="40" fill="white"/>
</clipPath>
</defs>
</svg>
