<svg width="40" height="40" viewBox="0 0 40 40" fill="none" xmlns="http://www.w3.org/2000/svg">
<g clip-path="url(#clip0_3011_51855)">
<path d="M19.9998 39.9999C31.0455 39.9999 39.9998 31.0456 39.9998 19.9999C39.9998 8.95418 31.0455 -0.00012207 19.9998 -0.00012207C8.95412 -0.00012207 -0.000183105 8.95418 -0.000183105 19.9999C-0.000183105 31.0456 8.95412 39.9999 19.9998 39.9999Z" fill="#F0F0F0"/>
<path d="M19.9998 -0.00012207C8.95419 -0.00012207 -0.000183105 8.95425 -0.000183105 19.9999C-0.000183105 22.4463 0.439895 24.7898 1.2438 26.9564H38.7559C39.5598 24.7898 39.9998 22.4463 39.9998 19.9999C39.9998 8.95425 31.0454 -0.00012207 19.9998 -0.00012207Z" fill="#0052B4"/>
<path d="M19.9999 -0.00012207C11.4006 -0.00012207 4.06976 5.42738 1.2439 13.0434H38.756C35.9301 5.42738 28.5992 -0.00012207 19.9999 -0.00012207Z" fill="#D80027"/>
<path d="M5.17169 11.3042V21.2812C5.17169 26.9565 12.5858 28.6955 12.5858 28.6955C12.5858 28.6955 19.9999 26.9565 19.9999 21.2812V11.3042H5.17169Z" fill="#D80027"/>
<path d="M8.23785 13.0435H16.9336V9.56519L15.1944 10.4347L12.5857 7.82605L9.97699 10.4347L8.23785 9.56519V13.0435Z" fill="#FFDA44"/>
<path d="M18.2607 22.6705L12.6085 17.0183L6.9563 22.6705L8.80091 24.5151L12.6085 20.7075L16.4161 24.5151L18.2607 22.6705Z" fill="#FFDA44"/>
<path d="M18.2607 17.3914H15.6235C15.7718 17.1354 15.8581 16.839 15.8581 16.522C15.8581 15.5614 15.0794 14.7828 14.1189 14.7828C13.4553 14.7828 12.8789 15.1546 12.5857 15.701C12.2925 15.1546 11.7162 14.7828 11.0525 14.7828C10.0921 14.7828 9.31339 15.5614 9.31339 16.522C9.31339 16.839 9.39964 17.1355 9.54792 17.3914H6.95636C6.95636 18.3519 7.793 19.1305 8.75339 19.1305H8.6955C8.6955 20.091 9.47409 20.8696 10.4346 20.8696C10.4346 21.7201 11.0454 22.4267 11.8521 22.5779L10.4818 25.6718C11.1385 25.9388 11.8561 26.0871 12.6086 26.0871C13.3611 26.0871 14.0788 25.9388 14.7355 25.6718L13.3652 22.5779C14.1718 22.4268 14.7826 21.7202 14.7826 20.8696C15.7432 20.8696 16.5218 20.091 16.5218 19.1305H16.4639C17.4242 19.1305 18.2607 18.3518 18.2607 17.3914Z" fill="#F0F0F0"/>
</g>
<defs>
<clipPath id="clip0_3011_51855">
<rect width="40" height="40" fill="white"/>
</clipPath>
</defs>
</svg>
