<svg width="40" height="40" viewBox="0 0 40 40" fill="none" xmlns="http://www.w3.org/2000/svg">
<g clip-path="url(#clip0_3011_51865)">
<path d="M19.9999 40.0001C31.0456 40.0001 39.9999 31.0458 39.9999 20.0001C39.9999 8.95437 31.0456 6.10352e-05 19.9999 6.10352e-05C8.95418 6.10352e-05 -0.00012207 8.95437 -0.00012207 20.0001C-0.00012207 31.0458 8.95418 40.0001 19.9999 40.0001Z" fill="#F0F0F0"/>
<path d="M38.756 26.9565C39.56 24.7898 40 22.4464 40 20C40 17.5536 39.56 15.2102 38.756 13.0435H1.24398C0.440078 15.2102 0 17.5536 0 20C0 22.4464 0.440078 24.7898 1.24398 26.9565L20 28.6956L38.756 26.9565Z" fill="#0052B4"/>
<path d="M19.9998 40C28.5991 40 35.9299 34.5725 38.7558 26.9565H1.24377C4.06963 34.5725 11.4005 40 19.9998 40Z" fill="#D80027"/>
</g>
<defs>
<clipPath id="clip0_3011_51865">
<rect width="40" height="40" fill="white"/>
</clipPath>
</defs>
</svg>
