<svg width="40" height="40" viewBox="0 0 40 40" fill="none" xmlns="http://www.w3.org/2000/svg">
<g clip-path="url(#clip0_3011_51864)">
<path d="M0 20C0 23.4648 0.881485 26.7238 2.4318 29.5652L20 31.3044L37.5682 29.5652C39.1185 26.7238 40 23.4648 40 20L20 18.2609L0 20Z" fill="#FFDA44"/>
<path d="M37.5682 10.4348C34.1761 4.21795 27.5809 6.10352e-05 20 6.10352e-05C12.4191 6.10352e-05 5.82391 4.21795 2.4318 10.4348C0.881484 13.2763 0 16.5352 0 20.0001H40C40 16.5352 39.1185 13.2763 37.5682 10.4348Z" fill="#338AF3"/>
<path d="M20 40C27.5808 40 34.1761 35.7821 37.5682 29.5652H2.43176C5.82387 35.7821 12.4191 40 20 40Z" fill="#496E2D"/>
<path d="M22.6088 11.7048L25.0514 12.8538L23.7507 15.2194L26.4031 14.712L26.7392 17.3913L28.5865 15.4207L30.434 17.3913L30.77 14.712L33.4224 15.2192L32.1217 12.8537L34.5642 11.7048L32.1217 10.5559L33.4224 8.19032L30.7701 8.69767L30.4339 6.01837L28.5865 7.989L26.7391 6.01837L26.4031 8.69767L23.7506 8.19032L25.0513 10.556L22.6088 11.7048Z" fill="#FFDA44"/>
</g>
<defs>
<clipPath id="clip0_3011_51864">
<rect width="40" height="40" fill="white"/>
</clipPath>
</defs>
</svg>
