<svg width="40" height="40" viewBox="0 0 40 40" fill="none" xmlns="http://www.w3.org/2000/svg">
<g clip-path="url(#clip0_3011_51850)">
<path d="M34.1427 34.1427C41.6435 26.6418 41.9397 14.6665 35.0343 6.8103L20 19.9999L6.8103 35.0343C14.6665 41.9397 26.6418 41.6435 34.1427 34.1427Z" fill="#496E2D"/>
<path d="M5.85711 5.85746C13.358 -1.64339 25.3333 -1.93956 33.1895 4.96582L19.9997 20.0003L4.96555 33.1898C-1.9399 25.3337 -1.64365 13.3583 5.85711 5.85746Z" fill="#0052B4"/>
<path d="M33.1896 4.9657L4.96564 33.1897C5.25095 33.5143 5.5472 33.8327 5.85728 34.1427C6.16728 34.4527 6.48579 34.7489 6.81048 35.0344L35.0342 6.81038C34.7489 6.48569 34.4526 6.16726 34.1425 5.85718C33.8327 5.54734 33.5142 5.25101 33.1896 4.9657Z" fill="#FFDA44"/>
<path d="M8.42657 6.95593L8.85837 8.2846H10.2553L9.12516 9.10562L9.5568 10.4343L8.42657 9.61311L7.29634 10.4343L7.72813 9.10562L6.5979 8.2846H7.99493L8.42657 6.95593Z" fill="#F0F0F0"/>
<path d="M15.5625 6.95593L15.9943 8.2846H17.3912L16.261 9.10562L16.6927 10.4343L15.5625 9.61311L14.4323 10.4343L14.8641 9.10562L13.7338 8.2846H15.1308L15.5625 6.95593Z" fill="#F0F0F0"/>
<path d="M8.42657 13.9127L8.85837 15.2414H10.2553L9.12516 16.0625L9.5568 17.3912L8.42657 16.57L7.29634 17.3912L7.72813 16.0625L6.5979 15.2414H7.99493L8.42657 13.9127Z" fill="#F0F0F0"/>
<path d="M15.5625 13.9127L15.9943 15.2414H17.3912L16.261 16.0625L16.6927 17.3912L15.5625 16.57L14.4323 17.3912L14.8641 16.0625L13.7338 15.2414H15.1308L15.5625 13.9127Z" fill="#F0F0F0"/>
<path d="M11.9946 10.4343L12.4264 11.763H13.8232L12.6931 12.5841L13.1248 13.9128L11.9946 13.0916L10.8643 13.9128L11.2961 12.5841L10.1658 11.763H11.5629L11.9946 10.4343Z" fill="#F0F0F0"/>
</g>
<defs>
<clipPath id="clip0_3011_51850">
<rect width="40" height="40" fill="white"/>
</clipPath>
</defs>
</svg>
