<svg width="40" height="40" viewBox="0 0 40 40" fill="none" xmlns="http://www.w3.org/2000/svg">
<g clip-path="url(#clip0_3011_51843)">
<path d="M1.98447 11.3043C0.713064 13.9337 -6.10352e-05 16.8835 -6.10352e-05 20C-6.10352e-05 23.1164 0.713064 26.0662 1.98447 28.6956L19.9999 30.4347L38.0154 28.6956C39.2868 26.0662 39.9999 23.1164 39.9999 20C39.9999 16.8835 39.2868 13.9337 38.0154 11.3043L19.9999 9.56519L1.98447 11.3043Z" fill="#F0F0F0"/>
<path d="M1.98517 28.6956C5.22001 35.3855 12.0707 39.9999 19.9999 39.9999C27.9292 39.9999 34.7799 35.3855 38.0147 28.6956H1.98517Z" fill="black"/>
<path d="M1.98517 11.3044H38.0147C34.7799 4.61445 27.9292 0 19.9999 0C12.0707 0 5.22001 4.61445 1.98517 11.3044Z" fill="#D80027"/>
<path d="M5.85779 5.85767C-1.95268 13.6681 -1.95268 26.3315 5.85779 34.142C9.08537 30.9145 12.1895 27.8103 20 19.9999L5.85779 5.85767Z" fill="#496E2D"/>
</g>
<defs>
<clipPath id="clip0_3011_51843">
<rect width="40" height="40" fill="white"/>
</clipPath>
</defs>
</svg>
