<svg width="40" height="40" viewBox="0 0 40 40" fill="none" xmlns="http://www.w3.org/2000/svg">
<g clip-path="url(#clip0_3011_51840)">
<path d="M19.9997 40C31.0454 40 39.9997 31.0457 39.9997 20C39.9997 8.9543 31.0454 0 19.9997 0C8.954 0 -0.000305176 8.9543 -0.000305176 20C-0.000305176 31.0457 8.954 40 19.9997 40Z" fill="#FFDA44"/>
<path d="M15.6519 17.3913H39.8304C38.552 7.57828 30.1612 0 19.9997 0C18.5064 0 17.0518 0.165078 15.6519 0.475391V17.3913H15.6519Z" fill="#0052B4"/>
<path d="M10.4345 17.3913V2.43188C4.94282 5.42829 1.01149 10.9245 0.169067 17.3914H10.4345V17.3913Z" fill="#0052B4"/>
<path d="M10.4345 22.6086H0.169067C1.01149 29.0756 4.94282 34.5718 10.4345 37.5681L10.4345 22.6086Z" fill="#0052B4"/>
<path d="M15.6519 22.6087V39.5246C17.0518 39.8349 18.5064 40 19.9997 40C30.1612 40 38.552 32.4217 39.8304 22.6086H15.6519V22.6087Z" fill="#0052B4"/>
</g>
<defs>
<clipPath id="clip0_3011_51840">
<rect width="40" height="40" fill="white"/>
</clipPath>
</defs>
</svg>
