<svg width="40" height="40" viewBox="0 0 40 40" fill="none" xmlns="http://www.w3.org/2000/svg">
<g clip-path="url(#clip0_3011_51852)">
<path d="M20.0002 39.9999C31.0459 39.9999 40.0002 31.0456 40.0002 19.9999C40.0002 8.95418 31.0459 -0.00012207 20.0002 -0.00012207C8.95455 -0.00012207 0.000244141 8.95418 0.000244141 19.9999C0.000244141 31.0456 8.95455 39.9999 20.0002 39.9999Z" fill="#F0F0F0"/>
<path d="M0.000244141 20C0.000244141 8.95425 8.95462 -0.00012207 20.0002 -0.00012207C31.0459 -0.00012207 40.0002 8.95425 40.0002 20" fill="#D80027"/>
<path d="M12.1739 10.4347C12.1739 7.52075 14.2218 5.08653 16.9565 4.48926C16.5362 4.39754 16.1002 4.34778 15.6521 4.34778C12.2903 4.34778 9.56519 7.07293 9.56519 10.4347C9.56519 13.7965 12.2903 16.5217 15.6521 16.5217C16.1 16.5217 16.5361 16.4719 16.9565 16.3801C14.2218 15.7829 12.1739 13.3486 12.1739 10.4347Z" fill="#F0F0F0"/>
<path d="M19.9999 4.78247L20.4316 6.11099H21.8286L20.6984 6.93216L21.1301 8.26067L19.9999 7.43966L18.8698 8.26067L19.3015 6.93216L18.1713 6.11099H19.5682L19.9999 4.78247Z" fill="#F0F0F0"/>
<path d="M16.6114 7.39124L17.043 8.71983H18.44L17.3098 9.54092L17.7416 10.8694L16.6114 10.0484L15.4811 10.8694L15.9129 9.54092L14.7827 8.71983H16.1796L16.6114 7.39124Z" fill="#F0F0F0"/>
<path d="M23.3889 7.39124L23.8207 8.71983H25.2176L24.0873 9.54092L24.5191 10.8694L23.3889 10.0484L22.2587 10.8694L22.6905 9.54092L21.5603 8.71983H22.9572L23.3889 7.39124Z" fill="#F0F0F0"/>
<path d="M22.0846 11.3042L22.5164 12.6328H23.9132L22.7831 13.4539L23.2148 14.7824L22.0846 13.9614L20.9545 14.7824L21.3862 13.4539L20.256 12.6328H21.6528L22.0846 11.3042Z" fill="#F0F0F0"/>
<path d="M17.9156 11.3042L18.3472 12.6328H19.7443L18.614 13.4539L19.0458 14.7824L17.9156 13.9614L16.7854 14.7824L17.2171 13.4539L16.0869 12.6328H17.4839L17.9156 11.3042Z" fill="#F0F0F0"/>
</g>
<defs>
<clipPath id="clip0_3011_51852">
<rect width="40" height="40" fill="white"/>
</clipPath>
</defs>
</svg>
