<svg width="40" height="40" viewBox="0 0 40 40" fill="none" xmlns="http://www.w3.org/2000/svg">
<g clip-path="url(#clip0_3011_51853)">
<path d="M38.7561 26.9564C39.5601 24.7898 40.0001 22.4464 40.0001 19.9999C40.0001 17.5535 39.5601 15.2101 38.7561 13.0435L20.0001 11.3043L1.24405 13.0435C0.440061 15.2101 6.10352e-05 17.5535 6.10352e-05 19.9999C6.10352e-05 22.4464 0.440061 24.7898 1.24405 26.9564L20.0001 28.6956L38.7561 26.9564Z" fill="#F0F0F0"/>
<path d="M20 39.9999C28.5993 39.9999 35.9302 34.5724 38.756 26.9564H1.24396C4.06989 34.5724 11.4007 39.9999 20 39.9999Z" fill="#338AF3"/>
<path d="M20 0C11.4007 0 4.06989 5.4275 1.24396 13.0435H38.7561C35.9302 5.4275 28.5993 0 20 0Z" fill="#6DA544"/>
</g>
<defs>
<clipPath id="clip0_3011_51853">
<rect width="40" height="40" fill="white"/>
</clipPath>
</defs>
</svg>
