<svg width="40" height="40" viewBox="0 0 40 40" fill="none" xmlns="http://www.w3.org/2000/svg">
<g clip-path="url(#clip0_3011_51856)">
<path d="M28.6957 1.98453C26.0663 0.713125 23.1165 0 20.0001 0C16.8837 0 13.9338 0.713125 11.3044 1.98453L9.56531 20L11.3044 38.0155C13.9338 39.2869 16.8837 40 20.0001 40C23.1165 40 26.0663 39.2869 28.6957 38.0155L30.4348 20L28.6957 1.98453Z" fill="#FFDA44"/>
<path d="M19.9999 13.0435L21.7265 18.3575H27.3146L22.794 21.6421L24.5206 26.9564L19.9999 23.6721L15.4792 26.9564L17.2062 21.6421L12.6855 18.3575H18.2733L19.9999 13.0435Z" fill="#496E2D"/>
<path d="M11.3044 1.98523C4.61459 5.22015 6.10352e-05 12.0709 6.10352e-05 20C6.10352e-05 27.9291 4.61459 34.7798 11.3044 38.0148V1.98523Z" fill="#496E2D"/>
<path d="M28.6956 1.98523V38.0148C35.3854 34.7798 39.9999 27.9291 39.9999 20C39.9999 12.0709 35.3854 5.22015 28.6956 1.98523Z" fill="#D80027"/>
</g>
<defs>
<clipPath id="clip0_3011_51856">
<rect width="40" height="40" fill="white"/>
</clipPath>
</defs>
</svg>
