<svg width="40" height="40" viewBox="0 0 40 40" fill="none" xmlns="http://www.w3.org/2000/svg">
<g clip-path="url(#clip0_3011_51846)">
<path d="M20.0002 40.0002C31.0459 40.0002 40.0002 31.0459 40.0002 20.0002C40.0002 8.95455 31.0459 0.000244141 20.0002 0.000244141C8.95455 0.000244141 0.000244141 8.95455 0.000244141 20.0002C0.000244141 31.0459 8.95455 40.0002 20.0002 40.0002Z" fill="#F0F0F0"/>
<path d="M38.4399 12.2463C35.4111 5.05172 28.2961 0 20.0001 0C14.4772 0 9.4777 2.23898 5.85864 5.85851L10.8672 12.2463H38.4399Z" fill="black"/>
<path d="M10.924 27.6812L5.85864 34.1414C9.4777 37.7609 14.4772 39.9999 20.0001 39.9999C28.324 39.9999 35.4593 34.9144 38.4707 27.6812H10.924Z" fill="#496E2D"/>
<path d="M4.34784 14.7102V25.2174H39.3111C39.7597 23.554 40 21.8053 40 20C40 18.1686 39.7533 16.3952 39.2921 14.7102H4.34784Z" fill="#A2001D"/>
<path d="M5.85791 5.85791C-1.95256 13.6684 -1.95256 26.3317 5.85791 34.1423C9.08549 30.9147 12.1896 27.8106 20.0001 20.0001L5.85791 5.85791Z" fill="#0052B4"/>
<path d="M6.51455 15.0276L8.95557 18.4339L12.9499 17.1648L10.4647 20.5392L12.9057 23.9457L8.92854 22.6249L6.44322 25.9992L6.47057 21.8084L2.49323 20.4874L6.48729 19.2183L6.51455 15.0276Z" fill="#FFDA44"/>
</g>
<defs>
<clipPath id="clip0_3011_51846">
<rect width="40" height="40" fill="white"/>
</clipPath>
</defs>
</svg>
