<svg width="40" height="40" viewBox="0 0 40 40" fill="none" xmlns="http://www.w3.org/2000/svg">
<g clip-path="url(#clip0_3011_51842)">
<path d="M20.0004 40C31.0461 40 40.0004 31.0457 40.0004 20C40.0004 8.9543 31.0461 0 20.0004 0C8.95473 0 0.000427246 8.9543 0.000427246 20C0.000427246 31.0457 8.95473 40 20.0004 40Z" fill="#F0F0F0"/>
<path d="M38.756 13.0435H1.24397C0.440139 15.2102 6.10352e-05 17.5535 6.10352e-05 19.9999C6.10352e-05 22.4463 0.440139 24.7899 1.24397 26.9564H38.7561C39.5601 24.7899 40.0001 22.4463 40.0001 19.9999C40.0001 17.5535 39.5601 15.2102 38.756 13.0435Z" fill="#A2001D"/>
<path d="M20.058 39.9998C26.9082 39.9998 32.9532 36.5551 36.5577 31.3042H3.55841C7.16294 36.5551 13.2078 39.9998 20.058 39.9998Z" fill="#6DA544"/>
<path d="M20.058 0C26.9082 0 32.9532 3.44469 36.5577 8.69562H3.55841C7.16294 3.44469 13.2078 0 20.058 0Z" fill="#6DA544"/>
<path d="M20.0001 13.0435L21.7267 18.3575H27.3146L22.794 21.6422L24.5208 26.9564L20.0001 23.6721L15.4794 26.9564L17.2063 21.6422L12.6855 18.3575H18.2734L20.0001 13.0435Z" fill="#FFDA44"/>
</g>
<defs>
<clipPath id="clip0_3011_51842">
<rect width="40" height="40" fill="white"/>
</clipPath>
</defs>
</svg>
