<svg width="40" height="40" viewBox="0 0 40 40" fill="none" xmlns="http://www.w3.org/2000/svg">
<g clip-path="url(#clip0_3011_51953)">
<path d="M20 39.9999C31.0457 39.9999 40 31.0456 40 19.9999C40 8.95418 31.0457 -0.00012207 20 -0.00012207C8.9543 -0.00012207 0 8.95418 0 19.9999C0 31.0456 8.9543 39.9999 20 39.9999Z" fill="#F0F0F0"/>
<path d="M20.0001 -6.10352e-05C12.0709 -6.10352e-05 5.21962 4.61439 1.98462 11.3043H38.0155C34.7806 4.61439 27.9292 -6.10352e-05 20.0001 -6.10352e-05Z" fill="#0052B4"/>
<path d="M20.0001 39.9999C27.9292 39.9999 34.7805 35.3854 38.0155 28.6955H1.98462C5.21962 35.3854 12.0709 39.9999 20.0001 39.9999Z" fill="#0052B4"/>
<path d="M15.9836 20.8694L20 13.9129L24.0165 20.8694H15.9836Z" fill="#FFDA44"/>
<path d="M25.2173 23.1664L19.9999 25.7751L14.7825 23.1664V19.6882H25.2173V23.1664Z" fill="#6DA544"/>
<path d="M24.9191 14.2114L23.0745 16.056C23.8613 16.8428 24.348 17.9297 24.348 19.1303C24.348 21.5316 22.4014 23.4782 20.0002 23.4782C17.599 23.4782 15.6524 21.5315 15.6524 19.1303C15.6524 17.9297 16.1391 16.8428 16.9259 16.056L15.0813 14.2114C13.8223 15.4701 13.0437 17.2093 13.0437 19.1303C13.0437 22.9724 16.1582 26.0868 20.0002 26.0868C23.8421 26.0868 26.9567 22.9723 26.9567 19.1303C26.9566 17.2093 26.178 15.4701 24.9191 14.2114Z" fill="#FFDA44"/>
</g>
<defs>
<clipPath id="clip0_3011_51953">
<rect width="40" height="40" fill="white"/>
</clipPath>
</defs>
</svg>
