<svg width="40" height="40" viewBox="0 0 40 40" fill="none" xmlns="http://www.w3.org/2000/svg">
<g clip-path="url(#clip0_3011_51851)">
<path d="M20.0002 40.0001C31.0459 40.0001 40.0002 31.0458 40.0002 20.0001C40.0002 8.95443 31.0459 0.00012207 20.0002 0.00012207C8.95449 0.00012207 0.000183105 8.95443 0.000183105 20.0001C0.000183105 31.0458 8.95449 40.0001 20.0002 40.0001Z" fill="#F0F0F0"/>
<path d="M20 40.0001C31.0456 40.0001 40 31.0457 40 20.0001C40 17.5537 39.56 15.2101 38.756 13.0436H1.24398C0.440078 15.2101 0 17.5537 0 20.0001C0 31.0457 8.95437 40.0001 20 40.0001Z" fill="#0052B4"/>
<path d="M20 40.0001C28.5993 40.0001 35.9302 34.5726 38.7561 26.9565H1.24402C4.06988 34.5726 11.4007 40.0001 20 40.0001Z" fill="#D80027"/>
<path d="M5.17181 11.3044V21.2815C5.17181 26.9568 12.586 28.6958 12.586 28.6958C12.586 28.6958 20 26.9568 20 21.2815V11.3044H5.17181Z" fill="#F0F0F0"/>
<path d="M6.91095 11.3044V21.2815C6.91095 21.9477 7.05892 22.5769 7.35204 23.1669H17.8198C18.1129 22.577 18.2609 21.9477 18.2609 21.2815V11.3044H6.91095Z" fill="#D80027"/>
<path d="M16.0641 18.2609H13.4555V16.5218H15.1946V14.7826H13.4555V13.0436H11.7164V14.7826H9.97729V16.5218H11.7164V18.2609H9.1076V20.0001H11.7164V21.7392H13.4555V20.0001H16.0641V18.2609Z" fill="#F0F0F0"/>
<path d="M9.7244 25.5947C10.8451 26.299 11.9965 26.7079 12.586 26.8898C13.1754 26.708 14.3268 26.299 15.4475 25.5947C16.5777 24.8844 17.3699 24.072 17.8198 23.1669C17.3236 22.8159 16.7182 22.6089 16.0642 22.6089C15.8261 22.6089 15.5948 22.6371 15.3724 22.6889C14.901 21.618 13.8311 20.8698 12.586 20.8698C11.341 20.8698 10.271 21.618 9.79972 22.6889C9.57729 22.6371 9.34589 22.6089 9.10784 22.6089C8.45386 22.6089 7.84847 22.8159 7.35229 23.1669C7.8019 24.0719 8.59417 24.8843 9.7244 25.5947Z" fill="#0052B4"/>
</g>
<defs>
<clipPath id="clip0_3011_51851">
<rect width="40" height="40" fill="white"/>
</clipPath>
</defs>
</svg>
