<svg width="40" height="40" viewBox="0 0 40 40" fill="none" xmlns="http://www.w3.org/2000/svg">
<g clip-path="url(#clip0_3011_51841)">
<path d="M38.0154 28.6957C39.2868 26.0664 39.9999 23.1165 39.9999 20C39.9999 16.8836 39.2868 13.9337 38.0154 11.3044L19.9999 10.4348L1.98447 11.3043C0.713064 13.9337 -6.10352e-05 16.8836 -6.10352e-05 20C-6.10352e-05 23.1165 0.713064 26.0664 1.98447 28.6957L19.9999 29.5653L38.0154 28.6957Z" fill="#FFDA44"/>
<path d="M19.9999 0C12.0707 0 5.21944 4.61445 1.98444 11.3044H38.0153C34.7804 4.61445 27.929 0 19.9999 0Z" fill="black"/>
<path d="M19.9999 39.9999C12.0707 39.9999 5.21944 35.3855 1.98444 28.6956H38.0153C34.7804 35.3855 27.929 39.9999 19.9999 39.9999Z" fill="#0052B4"/>
<path d="M39.0555 13.9128H0.944392C0.331736 15.8323 -6.10352e-05 17.8772 -6.10352e-05 19.9998C-6.10352e-05 22.1224 0.331736 24.1673 0.944392 26.0867H39.0554C39.6681 24.1673 39.9999 22.1224 39.9999 19.9998C39.9999 17.8772 39.6681 15.8323 39.0555 13.9128Z" fill="#A2001D"/>
<path d="M6.95636 19.1304H33.0433V20.8695H6.95636V19.1304Z" fill="#FFDA44"/>
<path d="M10.4346 15.6521H29.565V17.3912H10.4346V15.6521Z" fill="#FFDA44"/>
<path d="M29.6893 19.9999C29.6893 19.9999 25.2172 25.2173 19.9998 25.2173C14.7825 25.2173 14.7824 19.9999 14.7824 19.9999C14.7824 19.9999 14.7824 14.7825 19.9998 14.7825C25.2173 14.7825 29.6893 19.9999 29.6893 19.9999Z" fill="#F0F0F0"/>
<path d="M20 25.2173C14.7826 25.2173 10.3105 19.9999 10.3105 19.9999C10.3105 19.9999 14.7826 14.7825 20 14.7825" fill="black"/>
<path d="M16.5217 18.2607H18.2608V21.739H16.5217V18.2607Z" fill="#F0F0F0"/>
<path d="M21.7391 18.2607H23.4782V21.739H21.7391V18.2607Z" fill="black"/>
<path d="M6.95649 21.739C7.91699 21.739 8.69563 20.9604 8.69563 19.9999C8.69563 19.0394 7.91699 18.2607 6.95649 18.2607C5.99599 18.2607 5.21735 19.0394 5.21735 19.9999C5.21735 20.9604 5.99599 21.739 6.95649 21.739Z" fill="#0052B4"/>
<path d="M33.0435 21.739C34.004 21.739 34.7826 20.9604 34.7826 19.9999C34.7826 19.0394 34.004 18.2607 33.0435 18.2607C32.083 18.2607 31.3043 19.0394 31.3043 19.9999C31.3043 20.9604 32.083 21.739 33.0435 21.739Z" fill="#0052B4"/>
</g>
<defs>
<clipPath id="clip0_3011_51841">
<rect width="40" height="40" fill="white"/>
</clipPath>
</defs>
</svg>
