<svg width="40" height="40" viewBox="0 0 40 40" fill="none" xmlns="http://www.w3.org/2000/svg">
<g clip-path="url(#clip0_3011_51838)">
<path d="M20.0004 40C31.0461 40 40.0004 31.0457 40.0004 20C40.0004 8.9543 31.0461 0 20.0004 0C8.95473 0 0.000427246 8.9543 0.000427246 20C0.000427246 31.0457 8.95473 40 20.0004 40Z" fill="#F0F0F0"/>
<path d="M20.0003 0C11.401 0 4.07012 5.4275 1.24426 13.0435H38.7564C35.9304 5.4275 28.5996 0 20.0003 0Z" fill="#D80027"/>
<path d="M20.0003 39.9998C28.5996 39.9998 35.9304 34.5723 38.7563 26.9563H1.24426C4.07012 34.5723 11.401 39.9998 20.0003 39.9998Z" fill="black"/>
<path d="M11.9502 15.2173L13.0293 18.5385H16.5217L13.6963 20.5915L14.7756 23.9129L11.9502 21.8602L9.12477 23.9129L10.204 20.5915L7.3786 18.5385H10.871L11.9502 15.2173Z" fill="#6DA544"/>
<path d="M28.0497 15.2173L29.1288 18.5385H32.6213L29.7959 20.5915L30.8751 23.9129L28.0497 21.8602L25.2243 23.9129L26.3035 20.5915L23.4781 18.5385H26.9706L28.0497 15.2173Z" fill="#6DA544"/>
</g>
<defs>
<clipPath id="clip0_3011_51838">
<rect width="40" height="40" fill="white"/>
</clipPath>
</defs>
</svg>
