<svg width="40" height="40" viewBox="0 0 40 40" fill="none" xmlns="http://www.w3.org/2000/svg">
<g clip-path="url(#clip0_3011_51854)">
<path d="M20.0002 39.9999C31.0459 39.9999 40.0003 31.0456 40.0003 19.9999C40.0003 8.95418 31.0459 -0.00012207 20.0002 -0.00012207C8.95455 -0.00012207 0.000244141 8.95418 0.000244141 19.9999C0.000244141 31.0456 8.95455 39.9999 20.0002 39.9999Z" fill="#F0F0F0"/>
<path d="M33.5006 5.24508C29.9428 1.98789 25.2037 0 19.9999 0C19.148 0 18.3086 0.0536719 17.4847 0.157031L7.82602 11.3044L0.632812 25.0102C1.0975 26.8119 1.80797 28.5145 2.72461 30.0819L19.9999 20L33.5006 5.24508Z" fill="#FFDA44"/>
<path d="M36.6509 31.0811L8.66901 36.4811C11.89 38.6999 15.793 40 20 40C26.947 40 33.0657 36.4575 36.6509 31.0811Z" fill="#6DA544"/>
<path d="M33.5035 5.24768L2.73608 30.1012C3.54085 31.4737 4.50437 32.7417 5.60179 33.8799L40 19.9999C40 14.1594 37.496 8.90409 33.5035 5.24768Z" fill="#D80027"/>
<path d="M6.10352e-05 20C6.10352e-05 21.7302 0.219905 23.409 0.632952 25.0102L17.4848 0.156982C7.62647 1.39401 6.10352e-05 9.8062 6.10352e-05 20Z" fill="#0052B4"/>
</g>
<defs>
<clipPath id="clip0_3011_51854">
<rect width="40" height="40" fill="white"/>
</clipPath>
</defs>
</svg>
