<svg width="40" height="40" viewBox="0 0 40 40" fill="none" xmlns="http://www.w3.org/2000/svg">
<g clip-path="url(#clip0_3011_51817)">
<path d="M20.0001 39.9999C31.0458 39.9999 40.0001 31.0456 40.0001 19.9999C40.0001 8.95418 31.0458 -0.00012207 20.0001 -0.00012207C8.95437 -0.00012207 6.10352e-05 8.95418 6.10352e-05 19.9999C6.10352e-05 31.0456 8.95437 39.9999 20.0001 39.9999Z" fill="#F0F0F0"/>
<path d="M13.0437 10.4346V7.82593H10.435V10.4346H7.82629V13.0433H10.435V15.652H13.0437V13.0433H15.6524V10.4346H13.0437Z" fill="#D80027"/>
<path d="M20.0002 -0.00012207V19.9999C8.95462 20 4.5647 19.9999 0.000244141 20C0.000244141 31.0455 8.95462 39.9999 20.0002 39.9999C31.0459 39.9999 40.0002 31.0455 40.0002 19.9999C40.0002 8.95425 31.0459 -0.00012207 20.0002 -0.00012207Z" fill="#D80027"/>
</g>
<defs>
<clipPath id="clip0_3011_51817">
<rect width="40" height="40" fill="white"/>
</clipPath>
</defs>
</svg>
