<svg width="40" height="40" viewBox="0 0 40 40" fill="none" xmlns="http://www.w3.org/2000/svg">
<g clip-path="url(#clip0_3011_51814)">
<path d="M20.0002 40.0001C31.0459 40.0001 40.0002 31.0458 40.0002 20.0001C40.0002 8.95443 31.0459 0.00012207 20.0002 0.00012207C8.95449 0.00012207 0.000183105 8.95443 0.000183105 20.0001C0.000183105 31.0458 8.95449 40.0001 20.0002 40.0001Z" fill="#D80027"/>
<path d="M19.181 16.3428L20.8221 18.6041L23.4796 17.7424L21.836 20.0018L23.4768 22.263L20.8202 21.398L19.1767 23.6574L19.1784 20.8636L16.5217 19.9986L19.1793 19.1368L19.181 16.3428Z" fill="#F0F0F0"/>
<path d="M14.7027 25.6523C11.5811 25.6523 9.05047 23.1217 9.05047 20.0001C9.05047 16.8786 11.5811 14.348 14.7027 14.348C15.6759 14.348 16.5917 14.5941 17.3913 15.0273C16.137 13.8006 14.4216 13.0436 12.5288 13.0436C8.68672 13.0436 5.57227 16.1581 5.57227 20.0001C5.57227 23.842 8.6868 26.9565 12.5288 26.9565C14.4217 26.9565 16.137 26.1994 17.3913 24.9728C16.5917 25.4062 15.6759 25.6523 14.7027 25.6523Z" fill="#F0F0F0"/>
</g>
<defs>
<clipPath id="clip0_3011_51814">
<rect width="40" height="40" fill="white"/>
</clipPath>
</defs>
</svg>
