<svg width="40" height="40" viewBox="0 0 40 40" fill="none" xmlns="http://www.w3.org/2000/svg">
<g clip-path="url(#clip0_3011_51822)">
<path d="M40 19.9999C40 31.0456 31.0456 39.9999 20 39.9999C8.95438 39.9999 0 31.0456 0 19.9999C6.86953 13.1304 12.6956 7.30431 20 -6.10352e-05C31.0456 -6.10352e-05 40 8.95431 40 19.9999Z" fill="#D80027"/>
<path d="M20 19.9999C20 8.95431 20 7.65213 20 -6.10352e-05C8.95437 -6.10352e-05 0 8.95431 0 19.9999H20Z" fill="#0052B4"/>
<path d="M17.3913 11.7047L14.9487 12.8538L16.2493 15.2193L13.597 14.7118L13.2609 17.3913L11.4135 15.4207L9.56603 17.3913L9.23001 14.7118L6.57767 15.2192L7.87829 12.8536L5.43579 11.7047L7.87837 10.5559L6.57767 8.19026L9.22993 8.69768L9.5661 6.01831L11.4135 7.98894L13.2609 6.01831L13.597 8.69768L16.2494 8.19026L14.9487 10.556L17.3913 11.7047Z" fill="#F0F0F0"/>
<path d="M11.4139 15.4272C13.47 15.4272 15.1368 13.7604 15.1368 11.7043C15.1368 9.64818 13.47 7.98138 11.4139 7.98138C9.35777 7.98138 7.69098 9.64818 7.69098 11.7043C7.69098 13.7604 9.35777 15.4272 11.4139 15.4272Z" fill="#0052B4"/>
<path d="M11.4136 13.6884C10.3198 13.6884 9.42993 12.7985 9.42993 11.7046C9.42993 10.6108 10.3199 9.72089 11.4136 9.72089C12.5074 9.72089 13.3974 10.6108 13.3974 11.7046C13.3973 12.7985 12.5073 13.6884 11.4136 13.6884Z" fill="#F0F0F0"/>
</g>
<defs>
<clipPath id="clip0_3011_51822">
<rect width="40" height="40" fill="white"/>
</clipPath>
</defs>
</svg>
