<svg width="40" height="40" viewBox="0 0 40 40" fill="none" xmlns="http://www.w3.org/2000/svg">
<g clip-path="url(#clip0_3011_51861)">
<path d="M29.5653 2.43174C26.7238 0.881423 23.4649 -6.10352e-05 20.0001 -6.10352e-05C16.5352 -6.10352e-05 13.2763 0.881423 10.4348 2.43174L8.69568 19.9999L10.4348 37.5681C13.2763 39.1185 16.5352 39.9999 20.0001 39.9999C23.4649 39.9999 26.7238 39.1185 29.5653 37.5681L31.3044 19.9999L29.5653 2.43174Z" fill="#FFDA44"/>
<path d="M10.4348 37.568V2.43164C4.21795 5.82383 6.10352e-05 12.4191 6.10352e-05 19.9999C6.10352e-05 27.5808 4.21795 34.176 10.4348 37.568Z" fill="#338AF3"/>
<path d="M40 19.9999C40 12.4191 35.7821 5.82383 29.5652 2.43164V37.568C35.7821 34.176 40 27.5808 40 19.9999Z" fill="#6DA544"/>
<path d="M15.6523 25.2174L12.1739 20L15.6522 14.7826L19.1306 20L15.6523 25.2174Z" fill="#6DA544"/>
<path d="M24.3479 25.2174L20.8696 20L24.3479 14.7826L27.8261 20L24.3479 25.2174Z" fill="#6DA544"/>
<path d="M20 32.1739L16.5217 26.9565L20 21.7391L23.4783 26.9565L20 32.1739Z" fill="#6DA544"/>
</g>
<defs>
<clipPath id="clip0_3011_51861">
<rect width="40" height="40" fill="white"/>
</clipPath>
</defs>
</svg>
