<svg width="40" height="40" viewBox="0 0 40 40" fill="none" xmlns="http://www.w3.org/2000/svg">
<g clip-path="url(#clip0_3011_51832)">
<path d="M38.0155 28.6956C39.287 26.0662 40 23.1164 40 20C40 16.8835 39.287 13.9337 38.0155 11.3043L20 9.56519L1.98453 11.3043C0.713047 13.9337 0 16.8835 0 20C0 23.1164 0.713047 26.0662 1.98453 28.6956L20 30.4347L38.0155 28.6956Z" fill="#0052B4"/>
<path d="M19.9998 40C27.929 40 34.7803 35.3855 38.0153 28.6956H1.98438C5.21937 35.3855 12.0706 40 19.9998 40Z" fill="#D80027"/>
<path d="M34.6379 23.9259L33.5815 24.7513L34.04 26.0108L32.9285 25.2613L31.8721 26.0866L32.2415 24.798L31.1301 24.0483L32.4699 24.0016L32.8396 22.7129L33.2982 23.9726L34.6379 23.9259Z" fill="#F0F0F0"/>
<path d="M31.9327 19.2407L31.2224 20.3776L32.0842 21.4044L30.7834 21.0804L30.0729 22.2171L29.9792 20.8798L28.6785 20.5554L29.9217 20.0531L29.8282 18.7158L30.6899 19.7429L31.9327 19.2407Z" fill="#F0F0F0"/>
<path d="M27.7885 15.7632L27.5099 17.0745L28.6708 17.7448L27.3376 17.8854L27.0588 19.1963L26.5135 17.9718L25.1802 18.1117L26.1766 17.2147L25.6313 15.9901L26.7923 16.6603L27.7885 15.7632Z" fill="#F0F0F0"/>
<path d="M22.7047 13.913L22.8915 15.2405L24.2115 15.4732L23.0067 16.0612L23.1933 17.3887L22.2621 16.4243L21.0569 17.0119L21.6865 15.8281L20.7551 14.8639L22.0754 15.0966L22.7047 13.913Z" fill="#F0F0F0"/>
<path d="M17.2949 13.913L17.9244 15.0966L19.2444 14.8637L18.3134 15.8284L18.9425 17.0121L17.7377 16.4243L16.8063 17.3884L16.9931 16.0612L15.7881 15.4735L17.1084 15.2405L17.2949 13.913Z" fill="#F0F0F0"/>
<path d="M12.2112 15.7632L13.2076 16.6603L14.3683 15.9901L13.8232 17.2151L14.8194 18.112L13.4862 17.9718L12.9407 19.1963L12.6624 17.8851L11.3291 17.7451L12.49 17.0747L12.2112 15.7632Z" fill="#F0F0F0"/>
<path d="M8.06694 19.2407L9.31015 19.7429L10.1716 18.716L10.0783 20.0536L11.3212 20.5558L10.0205 20.88L9.92679 22.2171L9.21663 21.0805L7.91577 21.4046L8.77749 20.3776L8.06694 19.2407Z" fill="#F0F0F0"/>
<path d="M5.36188 23.9258L6.70188 23.9725L7.16016 22.713L7.53008 24.0018L8.86969 24.0486L7.75828 24.7982L8.12766 26.0868L7.07141 25.2615L5.95992 26.011L6.41844 24.7513L5.36188 23.9258Z" fill="#F0F0F0"/>
<path d="M38.0153 11.3043C34.7803 4.61439 27.929 -6.10352e-05 19.9998 -6.10352e-05C12.0706 -6.10352e-05 5.21937 4.61439 1.98438 11.3043H38.0153Z" fill="#FFDA44"/>
</g>
<defs>
<clipPath id="clip0_3011_51832">
<rect width="40" height="40" fill="white"/>
</clipPath>
</defs>
</svg>
