<svg width="40" height="40" viewBox="0 0 40 40" fill="none" xmlns="http://www.w3.org/2000/svg">
<g clip-path="url(#clip0_3011_51834)">
<path d="M20.0001 39.9999C31.0458 39.9999 40.0001 31.0456 40.0001 19.9999C40.0001 8.95424 31.0458 -6.10352e-05 20.0001 -6.10352e-05C8.95437 -6.10352e-05 6.10352e-05 8.95424 6.10352e-05 19.9999C6.10352e-05 31.0456 8.95437 39.9999 20.0001 39.9999Z" fill="#F0F0F0"/>
<path d="M19.9999 39.9999C28.5992 39.9999 35.9301 34.5724 38.7559 26.9564H1.2439C4.06976 34.5724 11.4006 39.9999 19.9999 39.9999Z" fill="black"/>
<path d="M19.9999 -6.10352e-05C11.4006 -6.10352e-05 4.06976 5.42744 1.2439 13.0435H38.756C35.9301 5.42744 28.5992 -6.10352e-05 19.9999 -6.10352e-05Z" fill="#D80027"/>
</g>
<defs>
<clipPath id="clip0_3011_51834">
<rect width="40" height="40" fill="white"/>
</clipPath>
</defs>
</svg>
