<svg width="40" height="40" viewBox="0 0 40 40" fill="none" xmlns="http://www.w3.org/2000/svg">
<g clip-path="url(#clip0_3011_51848)">
<path d="M20.0002 40.0002C31.0459 40.0002 40.0003 31.0459 40.0003 20.0002C40.0003 8.95455 31.0459 0.000244141 20.0002 0.000244141C8.95455 0.000244141 0.000244141 8.95455 0.000244141 20.0002C0.000244141 31.0459 8.95455 40.0002 20.0002 40.0002Z" fill="#F0F0F0"/>
<path d="M5.85791 34.1423C-1.95256 26.3317 -1.95256 13.6685 5.85791 5.85791C5.85736 5.85877 17.3914 20.0001 17.3914 20.0001L5.85791 34.1423Z" fill="black"/>
<path d="M17.3913 20.0002L2.65258 10.0403C2.19563 10.8346 1.79266 11.6636 1.44641 12.5218L8.90805 20.0003L1.44665 27.4792C1.79258 28.3367 2.19516 29.1652 2.6518 29.959L17.3913 20.0002Z" fill="#FFDA44"/>
<path d="M39.8307 17.3914H17.3908L5.85765 5.85815C4.61484 7.10097 3.53508 8.50651 2.65258 10.0402L12.5931 20L2.65179 29.9586C3.53429 31.4927 4.61453 32.8987 5.85765 34.1418L17.3908 22.6087H39.8307C39.9419 21.7548 40 20.8842 40 20C40 19.1159 39.9419 18.2453 39.8307 17.3914Z" fill="#6DA544"/>
<path d="M7.82318 35.8655C11.1958 38.4578 15.4174 40.0001 19.9999 40.0001C29.2404 40.0001 37.0159 33.7328 39.3109 25.2175H18.4712L7.82318 35.8655Z" fill="#0052B4"/>
<path d="M39.3109 14.7826C37.0159 6.26727 29.2404 0 19.9999 0C15.4174 0 11.1958 1.54227 7.82318 4.13461L18.4711 14.7826H39.3109Z" fill="#D80027"/>
</g>
<defs>
<clipPath id="clip0_3011_51848">
<rect width="40" height="40" fill="white"/>
</clipPath>
</defs>
</svg>
